<svg width="27" height="24" viewBox="0 0 27 24" fill="none" xmlns="http://www.w3.org/2000/svg">
<path d="M10.6915 16.9233L20.3315 14.1256C20.8903 13.9635 21.2118 13.3793 21.0494 12.8203L20.0629 9.41949L8.39941 12.8043L9.38621 16.2051C9.54826 16.7639 10.1327 17.0853 10.6915 16.9233Z" fill="#32AD13"/>
<path d="M18.1378 6.56572L8.49777 9.36285C7.9384 9.52491 7.61725 10.1094 7.7793 10.6684L7.93398 11.2024L19.5978 7.81817L19.4428 7.28419C19.2807 6.72511 18.6972 6.40366 18.1378 6.56572Z" fill="#32AD13"/>
<path d="M14.3697 1.74688e-06C10.922 1.74688e-06 7.63369 1.48624 5.35401 4.08413C5.14856 4.31673 5.17306 4.66741 5.40566 4.87757C5.63856 5.08361 5.9913 5.05882 6.19941 4.82621C8.26656 2.47214 11.2479 1.12435 14.3721 1.12435C20.3708 1.12435 25.2495 6.00458 25.2495 12.0018C25.2495 17.9996 20.371 22.8795 14.3721 22.8795C8.76955 22.8795 4.14317 18.6679 3.55724 13.1757L5.84519 14.7121C6.1017 14.8851 6.45149 14.8157 6.62447 14.5583C6.6897 14.4615 6.71981 14.355 6.71981 14.2457C6.71981 14.066 6.63214 13.8892 6.4692 13.7788L2.9595 11.0492C2.837 10.9675 2.6838 10.9373 2.5365 10.9651C2.39157 10.9934 2.26346 11.082 2.18022 11.2048L0.0926981 15.0593C-0.0770311 15.3146 -0.00736831 15.6653 0.25003 15.8374C0.505066 16.0094 0.857217 15.9374 1.02813 15.68L2.46684 13.5223C3.21631 19.4693 8.27217 24 14.3721 24C20.99 24 26.3736 18.6162 26.3736 11.9979C26.3736 5.38027 20.99 -0.00354043 14.3697 1.74688e-06Z" fill="#32AD13"/>
</svg>
