<svg width="36" height="36" viewBox="0 0 36 36" fill="none" xmlns="http://www.w3.org/2000/svg">
<path d="M14.6919 0.222214L8.49037 10.9715L13.865 13.0387L17.9994 5.59686L22.0303 12.0955L19.6531 14.279H27.0949L29.1621 7.66403L26.6815 9.31777L21.3068 0.222214H14.6919ZM9.31724 17.173L2.28885 17.9999L4.76946 19.6536L0.22168 27.9223L2.68937 32.8835H13.865V27.9223H6.4232L9.31724 22.1342L12.2113 23.7879L9.31724 17.173ZM30.5833 18.0515L25.8288 20.7389L29.7822 27.9482L22.9606 27.9225V25.0285L18.8262 29.9897L22.9606 35.7778V32.8837H32.4696L35.777 28.3359L30.5833 18.0515Z" fill="white"/>
</svg>
