<svg width="17" height="16" viewBox="0 0 17 16" fill="none" xmlns="http://www.w3.org/2000/svg">
<path d="M16.3237 10.0972H12.3403L11.3338 8.36138C11.2663 8.2486 11.2464 8.11369 11.2782 7.98621C11.3101 7.85874 11.3912 7.74909 11.5038 7.68132L13.6511 6.3892C13.7639 6.32177 13.8988 6.3018 14.0262 6.33367C14.1537 6.36554 14.2634 6.44664 14.3311 6.55921L16.1537 9.6994C16.2266 9.82446 16.2838 9.9581 16.3237 10.0972ZM16.2948 11.1462H10.822V10.0785C10.8206 10.0212 10.8017 9.96567 10.7677 9.91943C10.7338 9.8732 10.6865 9.83847 10.6322 9.81995C10.5779 9.80142 10.5193 9.79998 10.4641 9.81582C10.409 9.83165 10.36 9.86401 10.3239 9.90852L8.34489 12.321C8.20964 12.4856 8.1357 12.692 8.1357 12.905C8.1357 13.1181 8.20964 13.3245 8.34489 13.4891L10.3358 15.8965C10.3725 15.9416 10.4224 15.9743 10.4785 15.9898C10.5346 16.0054 10.5941 16.0031 10.6488 15.9833C10.7036 15.9635 10.7508 15.9271 10.784 15.8793C10.8171 15.8314 10.8346 15.7745 10.8339 15.7163V14.6486L13.323 14.6401C13.6301 14.6393 13.9317 14.5576 14.1973 14.4033C14.4629 14.2491 14.6832 14.0275 14.8361 13.7611L16.1537 11.4506C16.2104 11.3539 16.2577 11.252 16.2948 11.1462ZM6.71444 14.6299C6.78066 14.6297 6.84616 14.6162 6.9071 14.5903C6.96803 14.5644 7.02317 14.5266 7.06927 14.4791C7.11538 14.4315 7.1515 14.3753 7.17553 14.3136C7.19956 14.2519 7.211 14.186 7.20919 14.1198L7.16329 11.6138C7.16105 11.4833 7.10753 11.3589 7.0143 11.2676C6.92107 11.1763 6.79564 11.1254 6.66514 11.1258H4.65896L2.66807 14.5789C2.80761 14.6139 2.95094 14.6316 3.09481 14.6316L6.71444 14.6299ZM0.238549 11.4574L1.57657 13.7611C1.63357 13.8567 1.69961 13.9467 1.77379 14.0297L4.50764 9.28966L5.43253 9.82011C5.48246 9.84877 5.54001 9.86136 5.59735 9.85618C5.65469 9.85101 5.70905 9.82832 5.75306 9.79118C5.79706 9.75405 5.82857 9.70428 5.84331 9.64863C5.85805 9.59297 5.85531 9.53413 5.83546 9.48008L4.73036 6.56091C4.65475 6.3603 4.51143 6.1924 4.32517 6.08624C4.13891 5.98007 3.92141 5.9423 3.71027 5.97946L0.632985 6.48951C0.575344 6.49855 0.521957 6.52534 0.480255 6.56614C0.438553 6.60695 0.410613 6.65974 0.400324 6.71717C0.390035 6.77461 0.397909 6.83382 0.422851 6.88656C0.447792 6.93931 0.488559 6.98296 0.539477 7.01145L1.46436 7.5419L0.235149 9.6994C0.0805346 9.96666 -0.000593942 10.2701 3.27354e-06 10.5788C0.000600489 10.8876 0.0829022 11.1907 0.238549 11.4574ZM5.38832 0.885791L3.58446 4.02258C3.55191 4.07964 3.53102 4.14259 3.52298 4.20779C3.51495 4.27298 3.51993 4.33912 3.53764 4.40238C3.55535 4.46563 3.58544 4.52474 3.62616 4.57629C3.66689 4.62783 3.71743 4.67078 3.77487 4.70264L5.96808 5.91655C6.08128 5.9779 6.21389 5.99287 6.33792 5.95829C6.46195 5.92371 6.5677 5.8423 6.63284 5.73124L7.63423 3.99198L5.64845 0.542359C5.54791 0.64567 5.46054 0.761024 5.38832 0.885791ZM8.48261 5.83665L11.5633 6.34669C11.7735 6.38097 11.9891 6.34123 12.1733 6.23426C12.3575 6.12729 12.4988 5.95972 12.5732 5.76014L13.663 2.83587C13.6832 2.78161 13.6861 2.72243 13.6714 2.66644C13.6566 2.61044 13.6249 2.56039 13.5806 2.52314C13.5363 2.48589 13.4815 2.46327 13.4238 2.45838C13.3661 2.45349 13.3083 2.46658 13.2583 2.49584L12.3352 3.03139L11.0821 0.870489C10.9278 0.604864 10.7062 0.384568 10.4397 0.23176C10.1732 0.0789527 9.87112 -0.000977659 9.56391 9.02538e-06L6.90146 0.0085098C6.79063 0.00988447 6.68019 0.0218398 6.57163 0.0442131L9.30888 4.77915L8.3857 5.3147C8.33473 5.34342 8.29401 5.38735 8.26924 5.44036C8.24448 5.49337 8.23691 5.55279 8.24759 5.61031C8.25827 5.66783 8.28666 5.72058 8.32881 5.76116C8.37095 5.80175 8.42472 5.82814 8.48261 5.83665Z" fill="#32AD13"/>
</svg>
