<svg width="16" height="18" viewBox="0 0 16 18" fill="none" xmlns="http://www.w3.org/2000/svg">
<path d="M15.2308 2.76923H11.4231V2.07692C11.4231 1.52609 11.2043 0.997815 10.8148 0.608316C10.4253 0.218818 9.89699 0 9.34615 0H6.57692C6.02609 0 5.49781 0.218818 5.10832 0.608316C4.71882 0.997815 4.5 1.52609 4.5 2.07692V2.76923H0.692308C0.508696 2.76923 0.332605 2.84217 0.202772 2.972C0.0729395 3.10184 0 3.27793 0 3.46154C0 3.64515 0.0729395 3.82124 0.202772 3.95107C0.332605 4.08091 0.508696 4.15385 0.692308 4.15385H1.73077V15.9231C1.73077 16.4739 1.94959 17.0022 2.33909 17.3917C2.72858 17.7812 3.25686 18 3.80769 18H12.1154C12.6662 18 13.1945 17.7812 13.584 17.3917C13.9735 17.0022 14.1923 16.4739 14.1923 15.9231V4.15385H15.2308C15.4144 4.15385 15.5905 4.08091 15.7203 3.95107C15.8501 3.82124 15.9231 3.64515 15.9231 3.46154C15.9231 3.27793 15.8501 3.10184 15.7203 2.972C15.5905 2.84217 15.4144 2.76923 15.2308 2.76923ZM5.88461 2.07692C5.88461 1.89331 5.95755 1.71722 6.08739 1.58739C6.21722 1.45755 6.39331 1.38462 6.57692 1.38462H9.34615C9.52977 1.38462 9.70586 1.45755 9.83569 1.58739C9.96552 1.71722 10.0385 1.89331 10.0385 2.07692V2.76923H5.88461V2.07692ZM12.8077 15.9231C12.8077 16.1067 12.7348 16.2828 12.6049 16.4126C12.4751 16.5424 12.299 16.6154 12.1154 16.6154H3.80769C3.62408 16.6154 3.44799 16.5424 3.31816 16.4126C3.18832 16.2828 3.11538 16.1067 3.11538 15.9231V4.15385H12.8077V15.9231Z" fill="#959DA4"/>
<path d="M5.19231 14.8848C5.37592 14.8848 5.55201 14.8118 5.68184 14.682C5.81168 14.5522 5.88462 14.3761 5.88462 14.1925V6.57707C5.88462 6.39346 5.81168 6.21737 5.68184 6.08754C5.55201 5.9577 5.37592 5.88477 5.19231 5.88477C5.0087 5.88477 4.8326 5.9577 4.70277 6.08754C4.57294 6.21737 4.5 6.39346 4.5 6.57707V14.1925C4.5 14.3761 4.57294 14.5522 4.70277 14.682C4.8326 14.8118 5.0087 14.8848 5.19231 14.8848Z" fill="#959DA4"/>
<path d="M10.7304 14.8848C10.914 14.8848 11.0901 14.8118 11.2199 14.682C11.3498 14.5522 11.4227 14.3761 11.4227 14.1925V6.57707C11.4227 6.39346 11.3498 6.21737 11.2199 6.08754C11.0901 5.9577 10.914 5.88477 10.7304 5.88477C10.5468 5.88477 10.3707 5.9577 10.2409 6.08754C10.111 6.21737 10.0381 6.39346 10.0381 6.57707V14.1925C10.0381 14.3761 10.111 14.5522 10.2409 14.682C10.3707 14.8118 10.5468 14.8848 10.7304 14.8848Z" fill="#959DA4"/>
<path d="M7.96184 14.8848C8.14545 14.8848 8.32154 14.8118 8.45138 14.682C8.58121 14.5522 8.65415 14.3761 8.65415 14.1925V6.57707C8.65415 6.39346 8.58121 6.21737 8.45138 6.08754C8.32154 5.9577 8.14545 5.88477 7.96184 5.88477C7.77823 5.88477 7.60214 5.9577 7.4723 6.08754C7.34247 6.21737 7.26953 6.39346 7.26953 6.57707V14.1925C7.26953 14.3761 7.34247 14.5522 7.4723 14.682C7.60214 14.8118 7.77823 14.8848 7.96184 14.8848Z" fill="#959DA4"/>
</svg>
