<svg width="20" height="20" viewBox="0 0 20 20" fill="none" xmlns="http://www.w3.org/2000/svg">
<path d="M19.235 8.01283L18.7991 7.55129L17.2692 3.42736C17.0085 2.73078 16.3419 2.26924 15.5983 2.26497H4.67094C3.92735 2.26497 3.26068 2.73078 3 3.42736L1.49145 7.50001L0.863248 8.08121C0.316239 8.54702 0 9.23078 0 9.94873V15.9573C0.0042735 16.9402 0.803419 17.7351 1.78632 17.7351H2.91453C3.89744 17.7351 4.69658 16.9402 4.70085 15.9573V15.0855H15.2991V15.9573C15.3034 16.9402 16.1026 17.7351 17.0855 17.7351H18.2137C19.1966 17.7351 19.9957 16.9402 20 15.9573V9.79061C19.9957 9.11967 19.7222 8.47864 19.235 8.01283ZM3.80342 3.71796C3.94017 3.35471 4.28632 3.11967 4.67094 3.11967H15.6026C15.9872 3.11967 16.3333 3.35898 16.4701 3.71796L17.8034 7.3077H16.8077C16.5726 5.70514 15.0812 4.5983 13.4786 4.83762C12.2009 5.02565 11.1966 6.02992 11.0085 7.3077H2.47009L3.80342 3.71796ZM15.9359 7.3077H11.8718C12.1068 6.18377 13.2094 5.46582 14.3333 5.70086C15.1368 5.8718 15.765 6.50001 15.9359 7.3077ZM3.84615 15.9573C3.84188 16.4701 3.42735 16.8804 2.91453 16.8804H1.78632C1.2735 16.8804 0.858974 16.4701 0.854701 15.9573V14.8376C1.11111 15.0043 1.44872 15.0855 1.78632 15.0855H3.84615V15.9573ZM19.1453 15.9573C19.141 16.4701 18.7265 16.8804 18.2137 16.8804H17.0855C16.5726 16.8804 16.1581 16.4658 16.1538 15.9573V15.0855H18.2137C18.5513 15.0855 18.8889 15.0043 19.1453 14.8376V15.9573ZM18.2137 14.2308H1.78632C1.27778 14.2351 0.858974 13.8291 0.854701 13.3163V9.94873C0.854701 9.47864 1.0641 9.02992 1.42308 8.72651C1.42735 8.72223 1.4359 8.71369 1.44017 8.70941L2.02137 8.1624H18.2051L18.6154 8.60257C18.6197 8.61112 18.6325 8.6154 18.6368 8.62394C18.9573 8.92736 19.141 9.35044 19.141 9.79061V13.3163H19.1453C19.141 13.8248 18.7222 14.2351 18.2137 14.2308Z" fill="#81909F"/>
<path d="M5.64102 9.8718H2.4359C2.20085 9.8718 2.00854 10.0641 2.00854 10.2991V12.5214C2.00854 12.7564 2.20085 12.9487 2.4359 12.9487H5.64102C5.87607 12.9487 6.06838 12.7564 6.06838 12.5214V10.2991C6.06838 10.0641 5.87607 9.8718 5.64102 9.8718ZM5.21367 12.094H2.86325V10.7265H5.21367V12.094Z" fill="#81909F"/>
<path d="M17.5639 9.8718H14.3587C14.1237 9.8718 13.9314 10.0641 13.9314 10.2991V12.5214C13.9314 12.7564 14.1237 12.9487 14.3587 12.9487H17.5639C17.7989 12.9487 17.9912 12.7564 17.9912 12.5214V10.2991C17.9912 10.0641 17.7989 9.8718 17.5639 9.8718ZM17.1365 12.094H14.7861V10.7265H17.1365V12.094Z" fill="#81909F"/>
<path d="M12.0643 11.6667H7.93614C7.7011 11.6667 7.50879 11.859 7.50879 12.094C7.50879 12.3291 7.7011 12.5214 7.93614 12.5214H12.0643C12.2994 12.5214 12.4917 12.3291 12.4917 12.094C12.4917 11.859 12.2994 11.6667 12.0643 11.6667Z" fill="#81909F"/>
<path d="M12.0643 10.3419H7.93614C7.7011 10.3419 7.50879 10.5342 7.50879 10.7692C7.50879 11.0043 7.7011 11.1966 7.93614 11.1966H12.0643C12.2994 11.1966 12.4917 11.0043 12.4917 10.7692C12.4917 10.5342 12.2994 10.3419 12.0643 10.3419Z" fill="#81909F"/>
</svg>
