<svg width="18" height="18" viewBox="0 0 18 18" fill="none" xmlns="http://www.w3.org/2000/svg">
<path d="M9 0C4.03693 0 0 4.03693 0 9C0 13.9631 4.03693 18 9 18C13.9631 18 18 13.9631 18 9C18 4.03693 13.9631 0 9 0ZM9.92171 10.8301L6.56721 13.8479C6.40325 13.9941 6.19941 14.065 6 14.065C5.76514 14.065 5.53471 13.9719 5.36632 13.7814C5.0517 13.4313 5.07829 12.8951 5.42836 12.5805L8.22009 10.0679V4.74151C8.22009 4.27179 8.60118 3.89069 9.0709 3.89069C9.54062 3.89069 9.92171 4.27179 9.92171 4.74151V10.8301Z" fill="#F8D157"/>
</svg>
