<svg width="80" height="80" viewBox="0 0 80 80" fill="none" xmlns="http://www.w3.org/2000/svg">
<circle cx="40" cy="40" r="40" fill="#043598"/>
<path d="M36.6919 22.2222L30.4904 32.9715L35.865 35.0387L39.9994 27.5969L44.0303 34.0955L41.6531 36.279H49.0949L51.1621 29.664L48.6815 31.3178L43.3068 22.2222H36.6919ZM31.3172 39.173L24.2889 39.9999L26.7695 41.6536L22.2217 49.9223L24.6894 54.8835H35.865V49.9223H28.4232L31.3172 44.1342L34.2113 45.7879L31.3172 39.173ZM52.5833 40.0515L47.8288 42.7389L51.7822 49.9482L44.9606 49.9225V47.0285L40.8262 51.9897L44.9606 57.7778V54.8837H54.4696L57.777 50.3359L52.5833 40.0515Z" fill="white"/>
</svg>
