<svg width="18" height="12" viewBox="0 0 18 12" fill="none" xmlns="http://www.w3.org/2000/svg">
<path d="M1.09091 0C0.489818 0 0 0.489818 0 1.09091V2.18182H17.4545V1.09091C17.4545 0.489818 16.9658 0 16.3636 0H1.09091ZM0 5.45455V10.9091C0 11.5113 0.489818 12 1.09091 12H16.3636C16.9658 12 17.4545 11.5113 17.4545 10.9091V5.45455H0ZM2.72727 7.63636H4.90909C5.21018 7.63636 5.45455 7.88073 5.45455 8.18182C5.45455 8.48291 5.21018 8.72727 4.90909 8.72727H2.72727C2.42618 8.72727 2.18182 8.48291 2.18182 8.18182C2.18182 7.88073 2.42618 7.63636 2.72727 7.63636Z" fill="#32AD13"/>
</svg>
