<svg width="20" height="20" viewBox="0 0 20 20" fill="none" xmlns="http://www.w3.org/2000/svg">
<g clip-path="url(#clip0)">
<path d="M4.00787 12.3428C4.06204 12.3428 3.40591 12.4995 15.4149 9.55063C15.574 9.51157 15.6714 9.3509 15.6322 9.19175C15.5933 9.0326 15.4323 8.93509 15.2733 8.97431L3.93737 11.7578C3.59863 11.841 3.65997 12.3428 4.00787 12.3428Z" fill="#81909F"/>
<path d="M6.11679 3.93172C5.86426 3.77883 5.56747 3.73336 5.28091 3.80385L2.47207 4.49355C1.87912 4.63912 1.51687 5.23711 1.66259 5.83007L2.00943 7.24288C2.15469 7.83446 2.75161 8.19839 3.34594 8.05236L6.15478 7.36266C6.74774 7.21694 7.10998 6.61925 6.96426 6.02614C6.60705 4.57122 6.61468 4.23324 6.11679 3.93172ZM3.2045 7.47588C2.93014 7.54333 2.65335 7.37594 2.5859 7.10128L2.23892 5.68847C2.17147 5.41411 2.33902 5.13732 2.61352 5.06988L3.358 4.88708C3.97949 7.41805 3.93738 7.25524 3.95248 7.29217L3.2045 7.47588ZM3.93448 4.74563C5.55404 4.34798 5.45959 4.36522 5.54535 4.36522C5.77118 4.36522 5.98282 4.51812 6.04095 4.75493L6.13113 5.12206L4.14657 5.60943L3.93448 4.74563ZM6.32873 6.55456C6.25793 6.67129 6.14593 6.75353 6.01318 6.78619L4.52179 7.1524C4.51797 7.11288 4.52987 7.17071 4.28802 6.18575L6.27273 5.69839C6.37909 6.13174 6.46927 6.32262 6.32873 6.55456Z" fill="#81909F"/>
<path d="M3.05836 9.80194C2.89921 9.841 2.80186 10.0018 2.84108 10.161L2.98497 10.7468C3.01808 10.8821 3.13939 10.9727 3.2729 10.9727C3.46577 10.9727 3.60707 10.7918 3.56129 10.6052L3.4174 10.0194C3.37834 9.86023 3.21751 9.76272 3.05836 9.80194Z" fill="#81909F"/>
<path d="M4.2751 10.7355C4.43425 10.6964 4.5316 10.5356 4.49239 10.3764L4.3485 9.79065C4.30959 9.6315 4.14876 9.53415 3.98961 9.57336C3.83046 9.61227 3.73311 9.7731 3.77217 9.93225L3.91606 10.518C3.95497 10.6764 4.11504 10.7747 4.2751 10.7355Z" fill="#81909F"/>
<path d="M5.20662 10.5067C5.36577 10.4677 5.46312 10.3069 5.42391 10.1477L5.28001 9.56192C5.2411 9.40277 5.08028 9.30542 4.92113 9.34464C4.76198 9.3837 4.66463 9.54437 4.70369 9.70352L4.84758 10.2893C4.88649 10.4477 5.04656 10.5461 5.20662 10.5067Z" fill="#81909F"/>
<path d="M6.06679 10.2867C6.25981 10.2867 6.40111 10.1057 6.35518 9.91913L6.21129 9.33319C6.17223 9.17404 6.0114 9.07669 5.8524 9.1159C5.69325 9.15497 5.5959 9.31564 5.63497 9.47479L5.77886 10.0606C5.81197 10.1961 5.93328 10.2867 6.06679 10.2867Z" fill="#81909F"/>
<path d="M7.9297 9.82925C8.12273 9.82925 8.26402 9.64828 8.21825 9.46167L8.07436 8.87588C8.03529 8.71673 7.87447 8.61923 7.71532 8.65844C7.55617 8.69751 7.45882 8.85833 7.49788 9.01748L7.64177 9.60327C7.67503 9.73862 7.79634 9.82925 7.9297 9.82925Z" fill="#81909F"/>
<path d="M8.64659 8.42972C8.48744 8.46878 8.39009 8.62961 8.42915 8.78875L8.57305 9.37454C8.60631 9.50989 8.72746 9.60052 8.86098 9.60052C9.054 9.60052 9.1953 9.41955 9.14937 9.23294L9.00548 8.64715C8.96642 8.488 8.80574 8.3905 8.64659 8.42972Z" fill="#81909F"/>
<path d="M9.57787 8.20098C9.41872 8.24004 9.32137 8.40087 9.36043 8.56002L9.50432 9.14581C9.54308 9.30419 9.70329 9.40246 9.86321 9.36325C10.0224 9.32418 10.1197 9.16336 10.0806 9.00421L9.93675 8.41842C9.89769 8.25927 9.73702 8.16192 9.57787 8.20098Z" fill="#81909F"/>
<path d="M10.5092 7.97225C10.35 8.01132 10.2527 8.17214 10.2919 8.33129L10.4358 8.91708C10.4689 9.05258 10.5902 9.14321 10.7237 9.14321C10.9166 9.14321 11.0579 8.96209 11.0121 8.77548L10.8682 8.18969C10.8291 8.03054 10.6683 7.93319 10.5092 7.97225Z" fill="#81909F"/>
<path d="M12.3957 7.50915C12.2366 7.54806 12.1392 7.70889 12.1783 7.86804L12.3222 8.45382C12.3555 8.58932 12.4768 8.67996 12.6101 8.67996C12.803 8.67996 12.9444 8.49899 12.8985 8.31237L12.7548 7.72659C12.7157 7.56729 12.555 7.46993 12.3957 7.50915Z" fill="#81909F"/>
<path d="M13.3274 7.28042C13.1682 7.31948 13.0709 7.48015 13.1099 7.6393L13.2538 8.22509C13.2927 8.38393 13.4533 8.48174 13.6127 8.44253C13.7719 8.40347 13.8692 8.24279 13.8302 8.08364L13.6864 7.49785C13.6474 7.33855 13.4867 7.2412 13.3274 7.28042Z" fill="#81909F"/>
<path d="M14.2587 7.05169C14.0995 7.09075 14.0022 7.25143 14.0412 7.41058L14.1851 7.99636C14.224 8.15536 14.3845 8.25302 14.544 8.2138C14.7031 8.17474 14.8005 8.01406 14.7614 7.85491L14.6175 7.26913C14.5785 7.10983 14.4178 7.01248 14.2587 7.05169Z" fill="#81909F"/>
<path d="M15.4755 7.98508C15.6347 7.94601 15.732 7.78534 15.6929 7.62619L15.5491 7.0404C15.51 6.88125 15.3492 6.78375 15.1902 6.82296C15.031 6.86203 14.9337 7.0227 14.9727 7.18185L15.1165 7.76764C15.1555 7.92663 15.3159 8.02429 15.4755 7.98508Z" fill="#81909F"/>
<path d="M14.6343 4.02099L13.7792 3.12942C13.6184 2.96142 13.3781 2.89138 13.1518 2.94692L12.0204 3.22479C11.9679 3.13537 12.0156 3.19381 11.0743 2.21206C10.9132 2.04406 10.6729 1.97418 10.4467 2.02972L9.24692 2.32437C9.02093 2.37975 8.84012 2.55309 8.77527 2.77664L8.43042 3.96301C8.36557 4.1864 8.42523 4.42962 8.58636 4.59762C8.58636 4.59762 9.44131 5.48935 9.44147 5.4895C9.60306 5.65796 9.84369 5.72708 10.0689 5.67169L11.2003 5.39398C11.2541 5.48553 11.2098 5.42984 12.1464 6.40671C12.308 6.57532 12.5488 6.64459 12.774 6.58905L13.9738 6.2944C14.1998 6.23886 14.3804 6.06567 14.4454 5.84213L14.7901 4.65576C14.8551 4.43222 14.7955 4.18915 14.6343 4.02099ZM11.5153 3.57284C11.141 4.86084 11.1741 4.78912 11.1271 4.80072C9.86734 5.11001 9.90778 5.1181 9.86978 5.07858C8.94113 4.10995 8.98706 4.1748 9.00033 4.12857C9.37479 2.84042 9.34152 2.91213 9.38852 2.90069C10.6478 2.59139 10.6078 2.58315 10.6458 2.62283C11.5745 3.5913 11.5287 3.52645 11.5153 3.57284ZM13.8755 5.67642C13.8618 5.72403 13.923 5.6958 12.6324 6.01257C12.6119 6.01776 12.5897 6.01135 12.5749 5.99594C11.6465 5.02777 11.692 5.09231 11.7054 5.04593C12.0764 3.76938 12.0455 3.8298 12.0936 3.81805C12.1043 3.8153 13.2965 3.52172 13.3076 3.52172C13.3471 3.52172 13.2931 3.47976 14.206 4.43191C14.2439 4.47143 14.2376 4.43039 13.8755 5.67642Z" fill="#81909F"/>
<path d="M18.5214 9.33258L17.4771 9.08646C17.4771 8.3876 17.8072 9.89014 15.7471 1.50161C15.5362 0.64147 14.7705 0.0404254 13.8858 0.0404254C13.553 0.0404254 14.2517 -0.106364 2.86194 2.69042C2.70249 2.72948 2.60514 2.89016 2.64435 3.04961C2.68357 3.20876 2.84455 3.30611 3.00324 3.2669C14.4264 0.462026 13.6546 0.63384 13.8858 0.63384C14.4963 0.63384 15.025 1.04903 15.1711 1.64291L16.8602 8.52371C17.0339 9.22623 16.611 9.94873 15.8899 10.126C14.8032 10.3928 5.01847 12.7954 3.92487 13.064C3.22159 13.2378 2.49955 12.814 2.32224 12.0938C0.489199 4.62814 0.594179 5.12359 0.594179 4.89593C0.594179 4.28497 1.00922 3.75671 1.60324 3.61083L1.85059 3.55026C2.00959 3.51104 2.10694 3.35037 2.06772 3.19091C2.02896 3.03191 1.86829 2.93456 1.70883 2.97363L1.46195 3.0342C0.425112 3.28872 -0.196837 4.3309 0.056459 5.35461L1.74607 12.2351C1.89728 12.8523 2.33368 13.3354 2.89475 13.5599L2.78275 14.035L2.78305 14.0352L2.59644 14.8268C2.35291 15.8574 2.99027 16.8907 4.02298 17.1343L16.0146 19.9623C17.0447 20.2059 18.0785 19.5683 18.322 18.5358L18.5086 17.744H18.5088L19.1355 15.0865L19.9483 11.6399C20.1915 10.6082 19.554 9.57581 18.5214 9.33258ZM19.3706 11.5038L18.5578 14.9503L13.4303 13.7412C13.2709 13.7035 13.111 13.8023 13.073 13.9619C13.0354 14.1214 13.1343 14.2812 13.2938 14.3189L18.4213 15.5281L18.0672 17.0302L6.03196 14.1917C5.87205 14.1538 5.71259 14.2528 5.67506 14.4125C5.63737 14.572 5.73594 14.7319 5.89539 14.7694L17.9309 17.6077L17.7442 18.3992C17.578 19.1057 16.8691 19.5545 16.1507 19.3846L4.1594 16.5566C3.44712 16.3889 3.00538 15.6764 3.17414 14.9634L3.36091 14.1715C4.87351 14.5284 4.75922 14.5047 4.80836 14.5047C5.15809 14.5047 5.21775 13.9996 4.87641 13.9191L3.85987 13.6794C4.00651 13.6601 3.77366 13.7125 7.1782 12.8764L12.1384 14.0462C12.2981 14.0842 12.4581 13.9853 12.4956 13.8257C12.5333 13.6659 12.4344 13.506 12.2748 13.4685L8.44529 12.5655L11.3165 11.8604C17.6616 13.3565 17.2807 13.2706 17.3303 13.2706C17.6798 13.2706 17.7391 12.7658 17.3979 12.6846L12.5835 11.5492L14.6103 11.0515C16.3947 11.4723 16.2784 11.4484 16.3277 11.4484C16.6773 11.4484 16.7369 10.9431 16.3957 10.8627L15.8769 10.7405L16.0312 10.7025C16.6098 10.5605 17.0708 10.1678 17.311 9.65714L18.3853 9.91028C19.0998 10.0787 19.5381 10.7928 19.3706 11.5038Z" fill="#81909F"/>
<path d="M4.40816 15.62C4.37047 15.7794 4.46935 15.9392 4.6288 15.9769C16.6454 18.8109 16.0045 18.6643 16.0583 18.6643C16.1927 18.6643 16.3146 18.5721 16.3468 18.4355C16.3845 18.2761 16.2856 18.1162 16.1262 18.0785L4.76522 15.3992C4.60561 15.3615 4.44585 15.4604 4.40816 15.62Z" fill="#81909F"/>
</g>
<defs>
<clipPath id="clip0">
<rect width="20" height="20" fill="white"/>
</clipPath>
</defs>
</svg>
