<svg width="18" height="18" viewBox="0 0 18 18" fill="none" xmlns="http://www.w3.org/2000/svg">
<path d="M15.5455 18.0001H2.45455C1.80356 18.0001 1.17924 17.7415 0.718919 17.2812C0.258603 16.8209 0 16.1966 0 15.5456V12.682C0 12.465 0.0862012 12.2568 0.23964 12.1034C0.393079 11.95 0.601187 11.8638 0.818182 11.8638C1.03518 11.8638 1.24328 11.95 1.39672 12.1034C1.55016 12.2568 1.63636 12.465 1.63636 12.682V15.5456C1.63636 15.7626 1.72256 15.9707 1.876 16.1241C2.02944 16.2776 2.23755 16.3638 2.45455 16.3638H15.5455C15.7625 16.3638 15.9706 16.2776 16.124 16.1241C16.2774 15.9707 16.3636 15.7626 16.3636 15.5456V12.682C16.3636 12.465 16.4498 12.2568 16.6033 12.1034C16.7567 11.95 16.9648 11.8638 17.1818 11.8638C17.3988 11.8638 17.6069 11.95 17.7604 12.1034C17.9138 12.2568 18 12.465 18 12.682V15.5456C18 16.1966 17.7414 16.8209 17.2811 17.2812C16.8208 17.7415 16.1964 18.0001 15.5455 18.0001Z" fill="#32AD13"/>
<path d="M8.99968 13.7824C8.89212 13.7814 8.78581 13.7592 8.68683 13.7171C8.58785 13.675 8.49815 13.6138 8.42286 13.537L4.43422 9.44606C4.35322 9.37057 4.28837 9.27943 4.24362 9.17815C4.19887 9.07686 4.17515 8.96755 4.17388 8.85684C4.17262 8.74612 4.19384 8.63629 4.23626 8.53401C4.27868 8.43174 4.34142 8.33913 4.42068 8.26181C4.49994 8.1845 4.59407 8.12407 4.69736 8.08419C4.80066 8.04432 4.91098 8.02582 5.02163 8.02983C5.13229 8.03384 5.24098 8.06027 5.34112 8.10751C5.44126 8.15476 5.53077 8.22184 5.60422 8.30469L8.99968 11.8065L12.6079 8.28833C12.7652 8.14885 12.9702 8.07528 13.1803 8.0829C13.3904 8.09051 13.5895 8.17871 13.7363 8.32921C13.8831 8.47971 13.9664 8.68095 13.9688 8.89119C13.9712 9.10142 13.8926 9.30451 13.7492 9.45833L9.55604 13.5492C9.40706 13.695 9.20806 13.7784 8.99968 13.7824Z" fill="#32AD13"/>
<path d="M8.99982 13.7782C8.78283 13.7782 8.57472 13.692 8.42128 13.5385C8.26784 13.3851 8.18164 13.177 8.18164 12.96V0.818182C8.18164 0.601186 8.26784 0.393079 8.42128 0.23964C8.57472 0.0862012 8.78283 0 8.99982 0C9.21682 0 9.42493 0.0862012 9.57837 0.23964C9.7318 0.393079 9.818 0.601186 9.818 0.818182V12.96C9.818 13.177 9.7318 13.3851 9.57837 13.5385C9.42493 13.692 9.21682 13.7782 8.99982 13.7782Z" fill="#32AD13"/>
</svg>
