<svg width="18" height="16" viewBox="0 0 18 16" fill="none" xmlns="http://www.w3.org/2000/svg">
<path d="M11.873 3.36274C11.8028 3.2924 11.7194 3.2366 11.6275 3.19853C11.5357 3.16046 11.4372 3.14087 11.3378 3.14087C11.2384 3.14087 11.14 3.16046 11.0481 3.19853C10.9563 3.2366 10.8729 3.2924 10.8026 3.36274L4.91709 9.24826C4.84561 9.31865 4.78885 9.40255 4.7501 9.49509C4.71136 9.58762 4.69141 9.68694 4.69141 9.78726C4.69141 9.88758 4.71136 9.9869 4.7501 10.0794C4.78885 10.172 4.84561 10.2559 4.91709 10.3263L7.34922 12.7584C7.49096 12.8993 7.68269 12.9784 7.88254 12.9784C8.0824 12.9784 8.27413 12.8993 8.41587 12.7584L14.3052 6.8653C14.3755 6.79505 14.4313 6.71161 14.4694 6.61978C14.5075 6.52794 14.527 6.4295 14.527 6.33008C14.527 6.23067 14.5075 6.13223 14.4694 6.04039C14.4313 5.94856 14.3755 5.86512 14.3052 5.79487L11.873 3.36274Z" fill="#32AD13"/>
<path d="M17.241 2.12969L16.0155 0.170371C15.9845 0.123171 15.9432 0.0835266 15.8949 0.0543487C15.8465 0.0251708 15.7922 0.00720089 15.736 0.0017589C15.6797 -0.00368308 15.623 0.00354105 15.5699 0.0229008C15.5168 0.0422605 15.4688 0.073264 15.4292 0.113634L13.8936 1.62662C13.8231 1.69749 13.7836 1.79336 13.7836 1.89329C13.7836 1.99321 13.8231 2.08908 13.8936 2.15995L14.1621 2.4285L13.0879 3.51786L14.1583 4.58829L15.2288 3.51786L15.4935 3.78263C15.5287 3.81808 15.5705 3.84622 15.6166 3.86542C15.6627 3.88463 15.7122 3.89451 15.7621 3.89451C15.812 3.89451 15.8615 3.88463 15.9076 3.86542C15.9537 3.84622 15.9955 3.81808 16.0307 3.78263L17.1919 2.60628C17.2538 2.54473 17.2926 2.46364 17.3015 2.37676C17.3105 2.28989 17.2891 2.20259 17.241 2.12969Z" fill="#32AD13"/>
<path d="M4.26284 12.3386C4.22768 12.374 4.18584 12.4022 4.13975 12.4214C4.09366 12.4406 4.04422 12.4505 3.99429 12.4505C3.94435 12.4505 3.89491 12.4406 3.84882 12.4214C3.80273 12.4022 3.76089 12.374 3.72573 12.3386L2.91628 11.5253C2.84575 11.4572 2.7515 11.4191 2.6534 11.4191C2.55531 11.4191 2.46105 11.4572 2.39052 11.5253L0 13.7305V16L2.39052 13.6662C2.46139 13.5958 2.55726 13.5562 2.65718 13.5562C2.75711 13.5562 2.85298 13.5958 2.92385 13.6662L3.72573 14.487C3.76089 14.5225 3.80273 14.5506 3.84882 14.5698C3.89491 14.589 3.94435 14.5989 3.99429 14.5989C4.04422 14.5989 4.09366 14.589 4.13975 14.5698C4.18584 14.5506 4.22768 14.5225 4.26284 14.487L6.15408 12.6147L5.06851 11.5329L4.26284 12.3386Z" fill="#32AD13"/>
</svg>
