<svg width="12" height="12" viewBox="0 0 12 12" fill="none" xmlns="http://www.w3.org/2000/svg">
<path d="M6.54545 12H1.63636C1.20237 12 0.786157 11.8276 0.47928 11.5207C0.172402 11.2138 0 10.7976 0 10.3636V1.63636C0 1.20237 0.172402 0.786157 0.47928 0.47928C0.786157 0.172402 1.20237 0 1.63636 0H6.54545C6.97945 0 7.39566 0.172402 7.70254 0.47928C8.00942 0.786157 8.18182 1.20237 8.18182 1.63636V3.54545C8.18182 3.69012 8.12435 3.82886 8.02206 3.93115C7.91977 4.03344 7.78103 4.09091 7.63636 4.09091C7.4917 4.09091 7.35296 4.03344 7.25067 3.93115C7.14838 3.82886 7.09091 3.69012 7.09091 3.54545V1.63636C7.09091 1.4917 7.03344 1.35296 6.93115 1.25067C6.82886 1.14838 6.69012 1.09091 6.54545 1.09091H1.63636C1.4917 1.09091 1.35296 1.14838 1.25067 1.25067C1.14838 1.35296 1.09091 1.4917 1.09091 1.63636V10.3636C1.09091 10.5083 1.14838 10.647 1.25067 10.7493C1.35296 10.8516 1.4917 10.9091 1.63636 10.9091H6.54545C6.69012 10.9091 6.82886 10.8516 6.93115 10.7493C7.03344 10.647 7.09091 10.5083 7.09091 10.3636V8.45455C7.09091 8.30988 7.14838 8.17114 7.25067 8.06885C7.35296 7.96656 7.4917 7.90909 7.63636 7.90909C7.78103 7.90909 7.91977 7.96656 8.02206 8.06885C8.12435 8.17114 8.18182 8.30988 8.18182 8.45455V10.3636C8.18182 10.7976 8.00942 11.2138 7.70254 11.5207C7.39566 11.8276 6.97945 12 6.54545 12Z" fill="#959DA4"/>
<path d="M11.1815 6.5455H4.04155C3.89688 6.5455 3.75815 6.48803 3.65585 6.38574C3.55356 6.28345 3.49609 6.14471 3.49609 6.00004C3.49609 5.85538 3.55356 5.71664 3.65585 5.61435C3.75815 5.51206 3.89688 5.45459 4.04155 5.45459H11.1815C11.3262 5.45459 11.465 5.51206 11.5672 5.61435C11.6695 5.71664 11.727 5.85538 11.727 6.00004C11.727 6.14471 11.6695 6.28345 11.5672 6.38574C11.465 6.48803 11.3262 6.5455 11.1815 6.5455Z" fill="#959DA4"/>
</svg>
