<svg width="18" height="18" viewBox="0 0 18 18" fill="none" xmlns="http://www.w3.org/2000/svg">
<path d="M17.1766 0H13.6811C13.4627 0 13.2533 0.0867525 13.0989 0.241174C12.9445 0.395596 12.8577 0.605037 12.8577 0.823422C12.8577 1.04181 12.9445 1.25125 13.0989 1.40567C13.2533 1.56009 13.4627 1.64684 13.6811 1.64684H15.188L12.1866 4.64822C12.0321 4.80272 11.9453 5.01228 11.9453 5.23079C11.9453 5.44929 12.0321 5.65885 12.1866 5.81336C12.3411 5.96786 12.5507 6.05467 12.7692 6.05467C12.9877 6.05467 13.1973 5.96786 13.3518 5.81336L16.3531 2.81199V4.31885C16.3531 4.53723 16.4399 4.74667 16.5943 4.90109C16.7487 5.05551 16.9582 5.14227 17.1766 5.14227C17.3949 5.14227 17.6044 5.05551 17.7588 4.90109C17.9132 4.74667 18 4.53723 18 4.31885V0.823422C18 0.605037 17.9132 0.395596 17.7588 0.241174C17.6044 0.0867525 17.3949 0 17.1766 0Z" fill="white"/>
<path d="M17.1766 12.8536C16.9582 12.8536 16.7487 12.9404 16.5943 13.0948C16.4399 13.2492 16.3531 13.4587 16.3531 13.677V15.1839L13.3518 12.1825C13.1973 12.028 12.9877 11.9412 12.7692 11.9412C12.5507 11.9412 12.3411 12.028 12.1866 12.1825C12.0321 12.337 11.9453 12.5466 11.9453 12.7651C11.9453 12.9836 12.0321 13.1932 12.1866 13.3477L15.188 16.3532H13.6811C13.4627 16.3532 13.2533 16.4399 13.0989 16.5943C12.9445 16.7488 12.8577 16.9582 12.8577 17.1766C12.8577 17.395 12.9445 17.6044 13.0989 17.7588C13.2533 17.9133 13.4627 18 13.6811 18H17.1766C17.3949 18 17.6044 17.9133 17.7588 17.7588C17.9132 17.6044 18 17.395 18 17.1766V13.677C18 13.4587 17.9132 13.2492 17.7588 13.0948C17.6044 12.9404 17.3949 12.8536 17.1766 12.8536Z" fill="white"/>
<path d="M4.65645 12.1825L1.64684 15.1839V13.677C1.64684 13.4586 1.56009 13.2492 1.40567 13.0948C1.25125 12.9404 1.04181 12.8536 0.823422 12.8536C0.605037 12.8536 0.395596 12.9404 0.241175 13.0948C0.0867533 13.2492 0 13.4586 0 13.677V17.1766C0 17.395 0.0867533 17.6044 0.241175 17.7588C0.395596 17.9132 0.605037 18 0.823422 18H4.32296C4.54135 18 4.75079 17.9132 4.90521 17.7588C5.05963 17.6044 5.14639 17.395 5.14639 17.1766C5.14639 16.9582 5.05963 16.7487 4.90521 16.5943C4.75079 16.4399 4.54135 16.3532 4.32296 16.3532H2.8161L5.81747 13.3518C5.97253 13.1978 6.06007 12.9886 6.06084 12.7701C6.06161 12.5516 5.97555 12.3417 5.82159 12.1866C5.66763 12.0316 5.45838 11.944 5.23987 11.9433C5.02137 11.9425 4.8115 12.0286 4.65645 12.1825Z" fill="white"/>
<path d="M2.8161 1.64684H4.32296C4.54135 1.64684 4.75079 1.56009 4.90521 1.40567C5.05963 1.25125 5.14639 1.04181 5.14639 0.823422C5.14639 0.605037 5.05963 0.395596 4.90521 0.241174C4.75079 0.0867525 4.54135 0 4.32296 0H0.823422C0.605037 0 0.395596 0.0867525 0.241175 0.241174C0.0867533 0.395596 0 0.605037 0 0.823422V4.31885C0 4.53723 0.0867533 4.74667 0.241175 4.90109C0.395596 5.05551 0.605037 5.14227 0.823422 5.14227C1.04181 5.14227 1.25125 5.05551 1.40567 4.90109C1.56009 4.74667 1.64684 4.53723 1.64684 4.31885V2.81199L4.64822 5.81336C4.80272 5.96786 5.01228 6.05467 5.23079 6.05467C5.44929 6.05467 5.65885 5.96786 5.81336 5.81336C5.96786 5.65885 6.05467 5.44929 6.05467 5.23079C6.05467 5.01228 5.96786 4.80272 5.81336 4.64822L2.8161 1.64684Z" fill="white"/>
</svg>
