<svg width="20" height="20" viewBox="0 0 20 20" fill="none" xmlns="http://www.w3.org/2000/svg">
<path d="M19.3943 6.61235L17.8842 5.23354L17.3589 3.2638C17.1948 2.67288 16.7023 2.21327 16.095 2.11479L14.076 1.77008L12.5823 0.407683C12.1227 -0.00267892 11.4661 -0.11758 10.908 0.128637L9.02037 0.932946L7.00139 0.588242C6.39405 0.489755 5.78672 0.752387 5.44201 1.26124L4.293 2.95193L2.42175 3.75624C1.86366 4.00245 1.48613 4.54413 1.46971 5.16788L1.42047 7.20328L0.271454 8.89397C-0.0732496 9.40281 -0.0896641 10.0758 0.222211 10.6011L1.28915 12.341L1.23991 14.3764C1.22349 15.0002 1.5682 15.5582 2.12629 15.8373L3.96471 16.7237L5.03165 18.4636C5.34353 18.9889 5.95086 19.2843 6.5582 19.2023L8.59359 18.956L10.432 19.8424C10.9901 20.1051 11.6467 20.0394 12.1227 19.6454L13.6985 18.3487L15.7339 18.1025C16.3412 18.0368 16.8665 17.6101 17.047 17.0191L17.6708 15.0822L19.2466 13.7855C19.7226 13.3915 19.9196 12.7678 19.7719 12.1604L19.2466 10.1907L19.8703 8.2538C20.0181 7.6793 19.8539 7.02272 19.3943 6.61235ZM15.9144 11.3561C15.9144 11.865 15.7339 12.3574 15.4056 12.735L13.6985 14.7868C13.3702 15.1807 12.927 15.4433 12.4182 15.5254L9.77544 15.985C9.283 16.0671 8.75774 15.985 8.33096 15.7224L6.01652 14.3928C5.57333 14.1466 5.24504 13.7362 5.06448 13.2602L4.14527 10.7488C3.96471 10.2728 3.96471 9.74752 4.14527 9.2715L5.06448 6.76008C5.24504 6.28406 5.57333 5.89012 6.01652 5.62749L8.33096 4.2815C8.77415 4.03528 9.283 3.93679 9.77544 4.01887L12.4182 4.49489C12.9106 4.57696 13.3702 4.83959 13.6985 5.23354L15.422 7.28535C15.7503 7.6793 15.9309 8.17173 15.9309 8.66416V11.3561H15.9144Z" fill="#32AD13"/>
<path d="M6.91926 10.634L8.52787 12.2426C8.6756 12.3903 8.88899 12.4888 9.10238 12.4888C9.31577 12.4888 9.52916 12.4067 9.67689 12.2426L12.9926 8.92685C13.1568 8.77912 13.2388 8.58214 13.2388 8.35234C13.2388 8.13895 13.1568 7.92556 13.009 7.77783C12.8449 7.61369 12.6479 7.53162 12.4345 7.53162C12.2211 7.53162 12.0077 7.61369 11.86 7.77783L9.10238 10.5191L8.06827 9.48494C7.92054 9.33721 7.70715 9.23872 7.49376 9.23872C7.28037 9.23872 7.06699 9.32079 6.91926 9.48494C6.77153 9.63267 6.68945 9.84606 6.68945 10.0594C6.68945 10.2892 6.77153 10.4862 6.91926 10.634Z" fill="#32AD13"/>
</svg>
