<svg width="46" height="46" viewBox="0 0 46 46" fill="none" xmlns="http://www.w3.org/2000/svg">
<path d="M43.9748 0H35.0143C34.6413 0 34.3391 0.302234 34.3391 0.675174C34.3391 1.04812 34.6413 1.35035 35.0143 1.35035H43.9748C44.3471 1.35035 44.65 1.65321 44.65 2.02552V15.6146C44.65 15.9869 44.3471 16.2898 43.9748 16.2898H25.398V15.9652C25.398 14.6481 24.3265 13.5767 23.0095 13.5767C21.6924 13.5767 20.621 14.6482 20.621 15.9652V16.2898H13.7435C13.3707 16.2898 13.0684 16.592 13.0684 16.965C13.0684 17.3379 13.3707 17.6402 13.7435 17.6402H20.621V29.5383L19.0174 27.7411C18.0275 26.6317 16.607 25.9954 15.1203 25.9954C14.5662 25.9954 14.0664 26.2798 13.7833 26.7561C13.5002 27.2325 13.4895 27.8075 13.7543 28.2942L16.4432 33.2337C17.1097 34.4582 17.9599 35.5666 18.9701 36.5278L21.8356 39.2543V40.7006C21.1347 40.8462 20.6065 41.4684 20.6065 42.2118V44.4564C20.6065 45.3076 21.2989 46 22.1501 46H32.7954C33.6466 46 34.3391 45.3076 34.3391 44.4564V42.2118C34.3391 41.4845 33.8328 40.8746 33.1546 40.7121V39.2112C33.7699 38.435 35.6779 35.5862 35.6779 30.1138V25.99C35.6779 24.6729 34.6065 23.6015 33.2895 23.6015C32.8493 23.6015 32.4366 23.7212 32.082 23.9297C31.7301 23.0487 30.868 22.4244 29.8627 22.4244C29.4226 22.4244 29.0099 22.5441 28.6554 22.7526C28.3035 21.8715 27.4414 21.2473 26.4361 21.2473C26.0642 21.2473 25.712 21.3326 25.3979 21.4849V17.6403H43.9747C45.0916 17.6403 46.0002 16.7317 46.0002 15.6149V2.02543C46.0003 0.908588 45.0917 0 43.9748 0V0ZM26.4362 22.5973C27.0087 22.5973 27.4744 23.063 27.4744 23.6355V24.8127C27.4744 25.1857 27.7767 25.4879 28.1496 25.4879C28.5225 25.4879 28.8248 25.1857 28.8248 24.8127C28.8248 24.2402 29.2905 23.7745 29.863 23.7745C30.4354 23.7745 30.9011 24.2402 30.9011 24.8127V25.9899C30.9011 26.3628 31.2034 26.665 31.5763 26.665C31.9493 26.665 32.2515 26.3628 32.2515 25.9899C32.2515 25.4174 32.7172 24.9517 33.2897 24.9517C33.8622 24.9517 34.328 25.4174 34.328 25.9899V30.1137C34.328 35.9142 32.0108 38.4776 31.9898 38.5002C31.8708 38.6255 31.8045 38.7919 31.8045 38.9647V40.6681H30.1734C29.8005 40.6681 29.4982 40.9703 29.4982 41.3432C29.4982 41.7162 29.8005 42.0184 30.1734 42.0184H32.7955C32.9021 42.0184 32.9889 42.1052 32.9889 42.2118V44.4564C32.9889 44.563 32.9021 44.6497 32.7955 44.6497H22.1501C22.0435 44.6497 21.9568 44.563 21.9568 44.4564V42.2118C21.9568 42.1052 22.0435 42.0184 22.1501 42.0184H27.4728C27.8457 42.0184 28.148 41.7162 28.148 41.3432C28.148 40.9703 27.8457 40.6681 27.4728 40.6681H23.1859V38.9647C23.1859 38.7798 23.1101 38.6031 22.9761 38.4756L19.9009 35.5495C18.9926 34.6853 18.2283 33.6889 17.6291 32.588L14.9402 27.6485C14.8767 27.4781 14.9402 27.3713 15.1202 27.3456C16.2226 27.3456 17.2757 27.8173 18.0097 28.6399L20.7665 31.7296C21.1577 32.1898 21.9899 31.8963 21.971 31.2801V15.9652C21.971 15.3927 22.4368 14.927 23.0093 14.927C23.5817 14.927 24.0474 15.3927 24.0474 15.9652V23.6355C24.0474 24.0085 24.3497 24.3107 24.7226 24.3107C25.0955 24.3107 25.3978 24.0085 25.3978 23.6355C25.398 23.063 25.8637 22.5973 26.4362 22.5973Z" fill="#34495E"/>
<path d="M11.0426 16.2897H2.02543C1.65312 16.2897 1.35026 15.9869 1.35026 15.6145V2.02543C1.35026 1.65312 1.65312 1.35026 2.02543 1.35026H32.3133C32.6863 1.35026 32.9885 1.04803 32.9885 0.675085C32.9885 0.302144 32.6863 0 32.3133 0H2.02543C0.908588 0 0 0.908588 0 2.02543V15.6145C0 16.7313 0.908588 17.64 2.02543 17.64H11.0426C11.4154 17.64 11.7178 17.3377 11.7178 16.9648C11.7178 16.5919 11.4155 16.2897 11.0426 16.2897Z" fill="#34495E"/>
<path d="M27.4421 8.3129C27.8388 7.9263 27.9789 7.35885 27.8077 6.83201C27.6365 6.30517 27.1895 5.92836 26.6413 5.84867L25.0693 5.62029C25.0385 5.6158 25.0118 5.59648 24.998 5.56854L24.2949 4.14398C24.0498 3.64724 23.5534 3.33862 22.9993 3.33862C22.4454 3.33862 21.9489 3.64715 21.7037 4.14398L21.0006 5.56863C20.9868 5.59648 20.9602 5.61589 20.9295 5.62029L19.3572 5.84867C18.8089 5.92836 18.3621 6.30517 18.1909 6.83201C18.0198 7.35885 18.1598 7.9263 18.5565 8.3129L19.6942 9.42193C19.7165 9.44367 19.7266 9.47485 19.7213 9.50557L19.4528 11.0714C19.3591 11.6173 19.5794 12.1587 20.0275 12.4843C20.4756 12.81 21.0587 12.8522 21.5491 12.5944L22.9553 11.8551C22.9828 11.8405 23.0157 11.8405 23.0432 11.8551L24.4495 12.5944C24.6628 12.7064 24.8935 12.7619 25.1231 12.7619C25.4214 12.7619 25.7178 12.6683 25.9711 12.4843C26.4191 12.1587 26.6393 11.6173 26.5456 11.0714L26.2772 9.50557C26.2719 9.47494 26.282 9.44367 26.3043 9.42193L27.4421 8.3129ZM25.3619 8.45512C25.0213 8.78709 24.8659 9.26515 24.9464 9.73387L25.215 11.2998C25.2176 11.3156 25.2249 11.3577 25.1773 11.3921C25.13 11.4266 25.0919 11.4067 25.0778 11.3993L23.6716 10.6601C23.461 10.5493 23.2302 10.494 22.9992 10.494C22.7684 10.494 22.5375 10.5494 22.3269 10.66L20.9208 11.3993C20.9066 11.4067 20.8688 11.4268 20.8212 11.3921C20.7736 11.3576 20.7808 11.3156 20.7836 11.2997L21.0522 9.73387C21.1326 9.26506 20.9772 8.787 20.6366 8.45512L19.499 7.34618C19.4875 7.33495 19.457 7.30512 19.475 7.24933C19.4932 7.19345 19.5355 7.18725 19.5513 7.185L21.1237 6.95662C21.5944 6.88816 22.0009 6.59258 22.2113 6.16627L22.9144 4.74171C22.9215 4.72724 22.9404 4.68906 22.9992 4.68906C23.0579 4.68906 23.0767 4.72733 23.0839 4.74171L23.787 6.16618C23.9973 6.59267 24.404 6.88816 24.8749 6.95671L26.447 7.18509C26.4629 7.18743 26.5052 7.19354 26.5233 7.24942C26.5414 7.30521 26.5109 7.33504 26.4994 7.34627L25.3619 8.45512Z" fill="#34495E"/>
<path d="M13.0848 11.0714L12.8163 9.50557C12.811 9.47494 12.8211 9.44367 12.8435 9.42193L13.9811 8.3129C14.3777 7.9263 14.5178 7.35885 14.3467 6.83201C14.1755 6.30517 13.7286 5.92836 13.1803 5.84867L11.6082 5.62029C11.5774 5.6158 11.5508 5.59648 11.537 5.56854L10.8339 4.14398C10.5887 3.64724 10.0923 3.33862 9.53831 3.33862C8.98434 3.33862 8.48786 3.64715 8.24268 4.14398L7.53965 5.56854C7.52582 5.59648 7.49913 5.6158 7.4685 5.62029L5.89623 5.84867C5.34801 5.92836 4.90113 6.30517 4.72997 6.83201C4.55882 7.35885 4.69889 7.9263 5.09555 8.3129L6.23324 9.42193C6.25552 9.44367 6.26567 9.47485 6.26037 9.50557L5.99183 11.0714C5.89821 11.6173 6.11842 12.1588 6.56656 12.4843C7.01479 12.8101 7.59778 12.8521 8.08815 12.5944L9.49438 11.8551C9.52187 11.8406 9.55475 11.8406 9.58234 11.8551L10.9887 12.5944C11.2019 12.7064 11.4327 12.7619 11.6623 12.7619C11.9606 12.7619 12.257 12.6683 12.5102 12.4843C12.9582 12.1587 13.1784 11.6173 13.0848 11.0714ZM11.901 8.45494C11.5603 8.78691 11.405 9.26497 11.4854 9.73377L11.7539 11.2997C11.7566 11.3155 11.7639 11.3575 11.7164 11.392C11.669 11.4267 11.631 11.4066 11.6168 11.3992L10.2106 10.6599C10.0001 10.5492 9.76921 10.4939 9.53831 10.4939C9.30742 10.4939 9.07643 10.5493 8.86601 10.6599L7.45987 11.3992C7.44568 11.4066 7.40785 11.4266 7.36033 11.392C7.3128 11.3576 7.31999 11.3155 7.32277 11.2997L7.59131 9.73377C7.67172 9.26497 7.51638 8.78691 7.17579 8.45503L6.03819 7.346C6.02669 7.33477 5.99614 7.30494 6.0142 7.24915C6.03235 7.19327 6.07466 7.18707 6.09048 7.18482L7.66283 6.95644C8.13343 6.88798 8.54006 6.59249 8.75056 6.16609L9.45368 4.74153C9.46078 4.72706 9.47965 4.68888 9.5384 4.68888C9.59716 4.68888 9.61603 4.72715 9.62313 4.74153L10.3262 6.166C10.5367 6.59249 10.9432 6.88798 11.4141 6.95653L12.9862 7.18491C13.0021 7.18725 13.0444 7.19336 13.0625 7.24924C13.0807 7.30504 13.0501 7.33486 13.0386 7.34609L11.901 8.45494Z" fill="#34495E"/>
<path d="M40.905 8.3129C41.3016 7.9263 41.4418 7.35885 41.2706 6.83201C41.0994 6.30517 40.6524 5.92836 40.1042 5.84867L38.5322 5.62029C38.5013 5.6158 38.4747 5.59648 38.4609 5.56854L37.7578 4.14398C37.5126 3.64724 37.0162 3.33862 36.4622 3.33862C35.9082 3.33862 35.4118 3.64715 35.1666 4.14398L34.4636 5.56845C34.4496 5.59639 34.423 5.6158 34.3923 5.62029L32.82 5.84867C32.2717 5.92836 31.8249 6.30517 31.6538 6.8321C31.4826 7.35894 31.6228 7.92639 32.0194 8.3129L33.1571 9.42193C33.1792 9.44367 33.1895 9.47485 33.1841 9.50557L32.9157 11.0714C32.822 11.6173 33.0422 12.1588 33.4904 12.4844C33.9383 12.8101 34.5214 12.8522 35.0119 12.5945L36.4181 11.8552C36.4455 11.8408 36.4786 11.8406 36.506 11.8552L37.9123 12.5945C38.1256 12.7065 38.3563 12.762 38.5859 12.762C38.8842 12.762 39.1806 12.6684 39.4339 12.4844C39.8819 12.1588 40.1021 11.6173 40.0084 11.0715L39.74 9.50566C39.7347 9.47503 39.7448 9.44376 39.7671 9.42202L40.905 8.3129ZM38.8247 8.45512C38.4841 8.78709 38.3288 9.26515 38.4093 9.73387L38.6779 11.2998C38.6805 11.3156 38.6877 11.3577 38.6402 11.3921C38.5929 11.4266 38.5548 11.4067 38.5407 11.3993L37.1345 10.6601C36.924 10.5493 36.6931 10.494 36.4622 10.494C36.2313 10.494 36.0003 10.5494 35.7898 10.66L34.3836 11.3993C34.3696 11.4067 34.3317 11.4267 34.2841 11.3921C34.2367 11.3577 34.2439 11.3156 34.2466 11.2997L34.5149 9.73413C34.5954 9.26533 34.4402 8.78718 34.0996 8.45512L32.962 7.346C32.9506 7.33486 32.92 7.30503 32.9381 7.24924C32.9563 7.19336 32.9986 7.18716 33.0144 7.18491L34.5867 6.95653C35.0572 6.88807 35.4638 6.59258 35.6745 6.16618L36.3776 4.74162C36.3847 4.72715 36.4036 4.68897 36.4623 4.68897C36.521 4.68897 36.5398 4.72724 36.5469 4.74162L37.2501 6.16609C37.4604 6.59258 37.8671 6.88807 38.338 6.95662L39.9101 7.185C39.926 7.18734 39.9683 7.19345 39.9863 7.24933C40.0046 7.30512 39.9739 7.33495 39.9624 7.34618L38.8247 8.45512Z" fill="#34495E"/>
</svg>
