<svg width="18" height="20" viewBox="0 0 18 20" fill="none" xmlns="http://www.w3.org/2000/svg">
<path d="M6.33369 4.3335C6.1496 4.3335 6.00035 4.48275 6.00035 4.66684V6.33353H5.00033C4.81625 6.33353 4.66699 6.48278 4.66699 6.66687V15.3337C4.66699 15.5178 4.81625 15.667 5.00033 15.667H6.00035V17.0004C6.00035 17.1845 6.1496 17.3337 6.33369 17.3337C6.51777 17.3337 6.66702 17.1845 6.66702 17.0004V15.667H7.66704C7.85113 15.667 8.00038 15.5178 8.00038 15.3337V6.66687C8.00038 6.48278 7.85113 6.33353 7.66704 6.33353H6.66702V4.66684C6.66702 4.48275 6.51777 4.3335 6.33369 4.3335ZM7.3337 7.00021V15.0003H5.33367V7.00021H7.3337Z" fill="#51C569"/>
<path d="M11.0002 3C10.8161 3 10.6668 3.14925 10.6668 3.33334V5.00003H9.66683C9.48275 5.00003 9.3335 5.14929 9.3335 5.33337V14.0002C9.3335 14.1843 9.48275 14.3335 9.66683 14.3335H10.6668V15.6669C10.6668 15.851 10.8161 16.0002 11.0002 16.0002C11.1843 16.0002 11.3335 15.851 11.3335 15.6669V14.3335H12.3335C12.5176 14.3335 12.6669 14.1843 12.6669 14.0002V5.33337C12.6669 5.14929 12.5176 5.00003 12.3335 5.00003H11.3335V3.33334C11.3335 3.14925 11.1843 3 11.0002 3ZM12.0002 5.66671V13.6668H10.0002V5.66671H12.0002Z" fill="#51C569"/>
<path d="M15.6672 7C15.4831 7 15.3338 7.14925 15.3338 7.33334V9.00003H14.3338C14.1497 9.00003 14.0005 9.14929 14.0005 9.33337V18.0002C14.0005 18.1843 14.1497 18.3335 14.3338 18.3335H15.3338V19.6669C15.3338 19.851 15.4831 20.0002 15.6672 20.0002C15.8513 20.0002 16.0005 19.851 16.0005 19.6669V18.3335H17.0005C17.1846 18.3335 17.3339 18.1843 17.3339 18.0002V9.33337C17.3339 9.14929 17.1846 9.00003 17.0005 9.00003H16.0005V7.33334C16.0005 7.14925 15.8513 7 15.6672 7ZM16.6672 9.66671V17.6668H14.6672V9.66671H16.6672Z" fill="#51C569"/>
<path d="M1.6667 0C1.48261 0 1.33336 0.149254 1.33336 0.333339V2.00003H0.333339C0.149254 2.00003 0 2.14929 0 2.33337V11.0002C0 11.1843 0.149254 11.3335 0.333339 11.3335H1.33336V12.6669C1.33336 12.851 1.48261 13.0002 1.6667 13.0002C1.85078 13.0002 2.00003 12.851 2.00003 12.6669V11.3335H3.00005C3.18414 11.3335 3.33339 11.1843 3.33339 11.0002V2.33337C3.33339 2.14929 3.18414 2.00003 3.00005 2.00003H2.00003V0.333339C2.00003 0.149254 1.85078 0 1.6667 0ZM2.66671 2.66671V10.6668H0.666678V2.66671H2.66671Z" fill="#51C569"/>
</svg>
