<svg width="20" height="20" viewBox="0 0 20 20" fill="none" xmlns="http://www.w3.org/2000/svg">
<path d="M19.3386 11.7146H19.0297V9.01871C19.0297 8.59191 18.8104 8.21402 18.4755 7.98441V7.61734C18.4755 7.08488 18.0284 6.65171 17.4787 6.65171H17.248L18.1307 5.39702C18.4265 4.97648 18.314 4.40112 17.8799 4.11448L11.8905 0.160576C11.6802 0.0217088 11.4268 -0.0295412 11.1766 0.0164354C10.9265 0.0623338 10.7099 0.199795 10.5666 0.403545L5.397 7.7521H3.95844L4.30551 4.34859C4.30942 4.31023 4.33515 4.27698 4.37104 4.2639C4.81819 4.10058 5.2057 3.79558 5.46216 3.40511C5.48237 3.37437 5.52047 3.35679 5.55991 3.36066L7.81624 3.57659C7.97801 3.59179 8.12193 3.47765 8.1379 3.32101C8.15387 3.16437 8.03576 3.02487 7.87406 3.00941L5.61773 2.79347C5.35583 2.76862 5.10606 2.88554 4.96573 3.09913C4.77718 3.38624 4.49225 3.61046 4.16349 3.73054C3.91602 3.82093 3.7461 4.03624 3.71997 4.29253L3.36721 7.75206H2.99208L3.54097 2.36909C3.56073 2.17534 3.73924 2.033 3.93949 2.05241L8.49908 2.48874C8.66078 2.50386 8.80478 2.3898 8.82075 2.23316C8.83671 2.07651 8.71861 1.93702 8.55691 1.92155L3.99731 1.48523C3.47455 1.43526 3.00708 1.80655 2.95542 2.31304L2.51299 6.65171H1.75954C1.20992 6.65171 0.762728 7.08488 0.762728 7.61734V7.86773C0.313075 8.06828 0 8.50859 0 9.01871V18.7334C0 19.4318 0.586552 20 1.30759 20H17.7221C18.4431 20 19.0297 19.4318 19.0297 18.7334V16.0375H19.3386C19.7033 16.0375 20 15.7501 20 15.3969V12.3553C20 12.002 19.7033 11.7146 19.3386 11.7146ZM17.4787 7.22171C17.704 7.22167 17.8871 7.39917 17.8871 7.61738V7.76257C17.833 7.75593 17.7781 7.75214 17.7221 7.75214H16.4739L16.847 7.22171H17.4787ZM11.0528 0.724483C11.1076 0.646553 11.1905 0.593975 11.2861 0.576397C11.309 0.572217 11.3319 0.570108 11.3547 0.570108C11.4272 0.570108 11.498 0.591123 11.5592 0.631514L17.5485 4.58542C17.7146 4.69507 17.7577 4.91515 17.6445 5.07601L15.762 7.75202H15.3102L16.2331 6.44003C16.3828 6.22726 16.3952 5.95648 16.2652 5.73331C16.0926 5.43683 16.0226 5.08773 16.0681 4.75027C16.102 4.49921 15.988 4.25413 15.7705 4.11062L12.6657 2.06093C12.4482 1.91737 12.171 1.90421 11.9422 2.02659C11.6348 2.19105 11.2737 2.25562 10.9257 2.20843C10.6677 2.17335 10.4059 2.28624 10.2585 2.49581L6.56079 7.75206H6.109L11.0528 0.724483ZM11.1823 5.56398C9.90119 5.56398 8.84954 6.53167 8.76385 7.75206H7.27271L10.7446 2.81679C10.7446 2.81679 10.7446 2.81679 10.7446 2.81679C10.7643 2.7887 10.797 2.77198 10.8306 2.77198C10.8351 2.77198 10.8396 2.7723 10.844 2.77288C11.3174 2.83702 11.8083 2.74929 12.2265 2.52558C12.2595 2.50792 12.3017 2.51046 12.3343 2.53194L15.4392 4.58167C15.4717 4.60316 15.4896 4.64034 15.4847 4.67644C15.4227 5.13538 15.518 5.61015 15.7528 6.01335C15.7716 6.04573 15.7693 6.08722 15.747 6.11906L14.5982 7.75202H13.6009C13.5151 6.53167 12.4635 5.56398 11.1823 5.56398ZM13.0109 7.7521H9.35375C9.43803 6.84628 10.2257 6.13398 11.1823 6.13398C12.139 6.13394 12.9267 6.84628 13.0109 7.7521ZM1.35109 7.61734C1.35109 7.39913 1.53429 7.22163 1.75954 7.22163H2.45488L2.40081 7.75206H1.35109V7.61734ZM0.588367 9.01871C0.588367 8.63456 0.910999 8.32203 1.30759 8.32203H17.7221C18.1187 8.32203 18.4413 8.63456 18.4413 9.01871V9.80949H0.588367V9.01871ZM18.4413 18.7334C18.4413 19.1175 18.1187 19.43 17.7221 19.43H1.30759C0.910999 19.43 0.588367 19.1175 0.588367 18.7334V17.9426H2.17479C2.3373 17.9426 2.46896 17.815 2.46896 17.6576C2.46896 17.5002 2.33726 17.3727 2.17479 17.3727H0.588367V10.3794H18.4413V11.7146H15.6442H15.6442C14.7628 11.7146 13.9994 12.2123 13.6371 12.9326C13.6359 12.935 13.6345 12.9374 13.6333 12.9398C13.6302 12.9459 13.6276 12.9523 13.6246 12.9585C13.5814 13.0473 13.5439 13.1392 13.5134 13.234C13.5133 13.2343 13.5132 13.2345 13.5132 13.2348C13.448 13.4375 13.4129 13.6528 13.4129 13.8761C13.4129 15.0679 14.4138 16.0375 15.6441 16.0375H15.6442H18.4413V17.3727H4.05849C3.89598 17.3727 3.76432 17.5002 3.76432 17.6576C3.76432 17.815 3.89602 17.9426 4.05849 17.9426H18.4413V18.7334ZM19.4117 15.3968C19.4117 15.4358 19.3789 15.4675 19.3386 15.4675H15.6442C15.0214 15.4675 14.4784 15.1301 14.1999 14.634C14.1873 14.6115 14.1752 14.5886 14.1636 14.5654C14.1405 14.5191 14.1196 14.4714 14.1012 14.4227C14.0366 14.2521 14.0014 14.068 14.0014 13.8761C14.0014 13.6841 14.0366 13.5 14.1012 13.3294C14.1197 13.2807 14.1405 13.2331 14.1636 13.1867C14.1752 13.1635 14.1873 13.1406 14.1999 13.1181C14.4784 12.622 15.0214 12.2846 15.6442 12.2846H19.3386C19.3789 12.2846 19.4117 12.3163 19.4117 12.3553V15.3968Z" fill="#51C569"/>
</svg>
