<svg width="13" height="12" viewBox="0 0 13 12" fill="none" xmlns="http://www.w3.org/2000/svg">
<path d="M3.81526 3.54545C3.81537 3.13425 3.68269 2.73399 3.43699 2.40426C3.19129 2.07453 2.84569 1.83294 2.45162 1.71545V0.545455C2.45162 0.400791 2.39416 0.262053 2.29186 0.15976C2.18957 0.0574675 2.05083 0 1.90617 0C1.76151 0 1.62277 0.0574675 1.52047 0.15976C1.41818 0.262053 1.36071 0.400791 1.36071 0.545455V1.71545C0.967414 1.8334 0.622622 2.075 0.377502 2.40441C0.132383 2.73383 0 3.13349 0 3.54409C0 3.95469 0.132383 4.35436 0.377502 4.68377C0.622622 5.01318 0.967414 5.25478 1.36071 5.37273V11.4545C1.36071 11.5992 1.41818 11.7379 1.52047 11.8402C1.62277 11.9425 1.76151 12 1.90617 12C2.05083 12 2.18957 11.9425 2.29186 11.8402C2.39416 11.7379 2.45162 11.5992 2.45162 11.4545V5.37545C2.84569 5.25797 3.19129 5.01638 3.43699 4.68665C3.68269 4.35692 3.81537 3.95666 3.81526 3.54545ZM1.90617 4.36364C1.74435 4.36364 1.58616 4.31565 1.45161 4.22575C1.31706 4.13584 1.21219 4.00806 1.15027 3.85856C1.08834 3.70906 1.07214 3.54455 1.10371 3.38584C1.13528 3.22712 1.2132 3.08134 1.32763 2.96691C1.44205 2.85249 1.58784 2.77456 1.74655 2.74299C1.90526 2.71142 2.06977 2.72763 2.21927 2.78955C2.36878 2.85148 2.49656 2.95635 2.58646 3.0909C2.67636 3.22545 2.72435 3.38363 2.72435 3.54545C2.72435 3.76245 2.63815 3.97056 2.48471 4.124C2.33127 4.27743 2.12316 4.36364 1.90617 4.36364Z" fill="#34495E"/>
<path d="M8.17903 8.45455C8.17913 8.04334 8.04646 7.64308 7.80076 7.31335C7.55506 6.98362 7.20946 6.74203 6.81539 6.62455V0.545455C6.81539 0.400791 6.75793 0.262053 6.65563 0.15976C6.55334 0.0574675 6.4146 0 6.26994 0C6.12527 0 5.98654 0.0574675 5.88424 0.15976C5.78195 0.262053 5.72448 0.400791 5.72448 0.545455V6.62455C5.33118 6.74249 4.98639 6.98409 4.74127 7.31351C4.49615 7.64292 4.36377 8.04258 4.36377 8.45318C4.36377 8.86379 4.49615 9.26345 4.74127 9.59286C4.98639 9.92227 5.33118 10.1639 5.72448 10.2818V11.4545C5.72448 11.5992 5.78195 11.7379 5.88424 11.8402C5.98654 11.9425 6.12527 12 6.26994 12C6.4146 12 6.55334 11.9425 6.65563 11.8402C6.75793 11.7379 6.81539 11.5992 6.81539 11.4545V10.2845C7.20946 10.1671 7.55506 9.92547 7.80076 9.59574C8.04646 9.26601 8.17913 8.86575 8.17903 8.45455ZM6.26994 9.27273C6.10812 9.27273 5.94993 9.22474 5.81538 9.13484C5.68083 9.04494 5.57596 8.91715 5.51404 8.76765C5.45211 8.61815 5.43591 8.45364 5.46748 8.29493C5.49905 8.13622 5.57697 7.99043 5.6914 7.876C5.80582 7.76158 5.95161 7.68365 6.11032 7.65208C6.26903 7.62052 6.43354 7.63672 6.58304 7.69864C6.73255 7.76057 6.86033 7.86544 6.95023 7.99999C7.04013 8.13454 7.08812 8.29272 7.08812 8.45455C7.08812 8.67154 7.00192 8.87965 6.84848 9.03309C6.69504 9.18653 6.48693 9.27273 6.26994 9.27273Z" fill="#34495E"/>
<path d="M12.5423 3.54545C12.5424 3.13425 12.4097 2.73399 12.164 2.40426C11.9183 2.07453 11.5727 1.83294 11.1787 1.71545V0.545455C11.1787 0.400791 11.1212 0.262053 11.0189 0.15976C10.9166 0.0574675 10.7779 0 10.6332 0C10.4886 0 10.3498 0.0574675 10.2475 0.15976C10.1452 0.262053 10.0878 0.400791 10.0878 0.545455V1.71545C9.69447 1.8334 9.34967 2.075 9.10455 2.40441C8.85943 2.73383 8.72705 3.13349 8.72705 3.54409C8.72705 3.95469 8.85943 4.35436 9.10455 4.68377C9.34967 5.01318 9.69447 5.25478 10.0878 5.37273V11.4545C10.0878 11.5992 10.1452 11.7379 10.2475 11.8402C10.3498 11.9425 10.4886 12 10.6332 12C10.7779 12 10.9166 11.9425 11.0189 11.8402C11.1212 11.7379 11.1787 11.5992 11.1787 11.4545V5.37545C11.5727 5.25797 11.9183 5.01638 12.164 4.68665C12.4097 4.35692 12.5424 3.95666 12.5423 3.54545ZM10.6332 4.36364C10.4714 4.36364 10.3132 4.31565 10.1787 4.22575C10.0441 4.13584 9.93924 4.00806 9.87732 3.85856C9.81539 3.70906 9.79919 3.54455 9.83076 3.38584C9.86233 3.22712 9.94025 3.08134 10.0547 2.96691C10.1691 2.85249 10.3149 2.77456 10.4736 2.74299C10.6323 2.71142 10.7968 2.72763 10.9463 2.78955C11.0958 2.85148 11.2236 2.95635 11.3135 3.0909C11.4034 3.22545 11.4514 3.38363 11.4514 3.54545C11.4514 3.76245 11.3652 3.97056 11.2118 4.124C11.0583 4.27743 10.8502 4.36364 10.6332 4.36364Z" fill="#34495E"/>
</svg>
