<svg width="25" height="23" viewBox="0 0 25 23" fill="none" xmlns="http://www.w3.org/2000/svg">
<path d="M18.8449 11.6219V8.01753C18.8622 5.26954 17.0143 3.4469 15.4265 2.72113C14.9716 2.51314 14.5027 2.35284 14.0262 2.23382V2.00378C14.0262 0.898896 13.1273 0 12.0225 0C10.9176 0 10.0187 0.898896 10.0187 2.00378V2.26868C9.58947 2.3845 9.16747 2.53558 8.7579 2.72474C7.00338 3.53347 5.22563 5.48275 5.2096 8.01512V11.6219C5.2096 14.182 4.30549 16.3785 2.52253 18.1507C2.41633 18.2564 2.37786 18.4123 2.42274 18.5554C2.46763 18.6985 2.58905 18.8043 2.73693 18.8299L6.54051 19.4868C7.24905 19.609 7.90148 19.7092 8.52225 19.7917C9.22157 21.1623 10.595 22.042 12.0954 22.042C13.5962 22.042 14.97 21.1619 15.6689 19.7905C16.2873 19.7084 16.9365 19.6086 17.6411 19.4868L21.4442 18.8299C21.5921 18.8047 21.7131 18.6985 21.7584 18.5554C21.8037 18.4127 21.7652 18.2564 21.6586 18.1507C19.7919 16.2947 18.8449 14.0982 18.8449 11.6219ZM10.8202 2.00378C10.8202 1.34093 11.3596 0.801512 12.0225 0.801512C12.6853 0.801512 13.2247 1.34093 13.2247 2.00378V2.07672C12.426 1.9621 11.6157 1.96691 10.8202 2.09555V2.00378ZM12.0958 21.2401C11.0811 21.2401 10.1329 20.7359 9.52414 19.9116C10.4198 20.0037 11.2558 20.0502 12.0914 20.0502C12.9302 20.0502 13.769 20.0037 14.6683 19.9104C14.0591 20.7355 13.1105 21.2401 12.0958 21.2401ZM17.5052 18.6965C16.7362 18.8291 16.0312 18.9369 15.3652 19.0219C15.3644 19.0219 15.3636 19.0219 15.3624 19.0219C15.0686 19.0592 14.7833 19.0916 14.5039 19.1197C14.5015 19.1197 14.4995 19.1201 14.4971 19.1201C14.241 19.1457 13.991 19.1666 13.7433 19.1842C13.6968 19.1874 13.6503 19.1906 13.6042 19.1934C13.3898 19.2074 13.1778 19.2187 12.967 19.2267C12.9242 19.2283 12.8809 19.2307 12.838 19.2319C12.3395 19.2487 11.8477 19.2487 11.3496 19.2323C11.3051 19.2307 11.2602 19.2283 11.2157 19.2267C11.0085 19.2183 10.7997 19.2078 10.5886 19.1938C10.5385 19.1906 10.4884 19.1874 10.4379 19.1838C10.1978 19.1666 9.95496 19.1465 9.70689 19.1217C9.69767 19.1209 9.68885 19.1201 9.67964 19.1193C9.40231 19.0916 9.11938 19.0592 8.82843 19.0223C8.82723 19.0223 8.82602 19.0223 8.82482 19.0223C8.15636 18.9377 7.44862 18.8291 6.67637 18.6961L3.60657 18.1663C5.20279 16.3412 6.01111 14.1435 6.01111 11.6219V8.01753C6.02474 5.83942 7.56925 4.15544 9.09333 3.45251C9.54658 3.24372 10.0167 3.08783 10.4948 2.97842C10.4988 2.97762 10.5032 2.97802 10.5072 2.97722C11.4951 2.7552 12.5458 2.74518 13.5449 2.94997C13.5501 2.95117 13.5553 2.94876 13.5606 2.94957C14.0831 3.05857 14.5977 3.22368 15.0935 3.45011C16.5718 4.12619 18.0574 5.79894 18.0434 8.01552V11.6223C18.0434 14.0401 18.9151 16.2883 20.5734 18.1671L17.5052 18.6965Z" fill="#81909F"/>
<path d="M14.5948 4.54422C13.0419 3.83448 11.1403 3.83368 9.59782 4.54503C8.71816 4.95059 7.22614 6.13723 7.21412 8.01317C7.21292 8.23439 7.39085 8.41473 7.61247 8.41633C7.61327 8.41633 7.61407 8.41633 7.61487 8.41633C7.83489 8.41633 8.01443 8.23879 8.01563 8.01798C8.02485 6.5444 9.22551 5.59941 9.93325 5.2728C11.2678 4.65684 12.9173 4.65844 14.261 5.2728C14.4626 5.36497 14.7002 5.2764 14.7924 5.07523C14.8846 4.87365 14.7956 4.636 14.5948 4.54422Z" fill="#81909F"/>
<path d="M1.92443 8.13315C1.76774 7.97645 1.51446 7.97645 1.35776 8.13315C0.48211 9.0088 0 10.1742 0 11.4153C0 12.6565 0.48211 13.8223 1.35776 14.6975C1.43591 14.7757 1.5385 14.815 1.6411 14.815C1.74369 14.815 1.84628 14.7757 1.92443 14.6975C2.08113 14.5408 2.08113 14.2876 1.92443 14.1309C1.20026 13.4067 0.801512 12.4425 0.801512 11.4153C0.801512 10.3882 1.20026 9.42358 1.92443 8.69982C2.08073 8.54312 2.08073 8.28984 1.92443 8.13315Z" fill="#81909F"/>
<path d="M3.32832 13.9031C3.43091 13.9031 3.53351 13.8638 3.61165 13.7857C3.76835 13.629 3.76835 13.3757 3.61165 13.219C2.58652 12.1939 2.58652 10.5263 3.61165 9.50157C3.76835 9.34488 3.76835 9.0916 3.61165 8.9349C3.45496 8.77821 3.20168 8.77821 3.04498 8.9349C1.70766 10.2722 1.70766 12.4487 3.04498 13.7857C3.12313 13.8642 3.22573 13.9031 3.32832 13.9031Z" fill="#81909F"/>
<path d="M22.6876 8.13315C22.5309 7.97645 22.2776 7.97645 22.1209 8.13315C21.9642 8.28984 21.9642 8.54312 22.1209 8.69982C22.8451 9.42398 23.2439 10.3882 23.2439 11.4153C23.2439 12.4425 22.8451 13.4067 22.1209 14.1309C21.9642 14.2876 21.9642 14.5408 22.1209 14.6975C22.1991 14.7757 22.3017 14.815 22.4043 14.815C22.5069 14.815 22.6095 14.7757 22.6876 14.6975C23.5633 13.8223 24.0454 12.6565 24.0454 11.4153C24.0454 10.1742 23.5633 9.0088 22.6876 8.13315Z" fill="#81909F"/>
<path d="M20.4334 8.9349C20.2767 9.0916 20.2767 9.34488 20.4334 9.50157C21.4586 10.5267 21.4586 12.1943 20.4334 13.219C20.2767 13.3757 20.2767 13.629 20.4334 13.7857C20.5116 13.8638 20.6142 13.9031 20.7168 13.9031C20.8194 13.9031 20.922 13.8638 21.0001 13.7857C22.3374 12.4483 22.3374 10.2718 21.0001 8.9349C20.8434 8.77821 20.5897 8.77821 20.4334 8.9349Z" fill="#81909F"/>
</svg>
