<svg width="20" height="20" viewBox="0 0 20 20" fill="none" xmlns="http://www.w3.org/2000/svg">
<path d="M9.99997 3.26078C10.2391 3.26078 10.4347 3.06513 10.4347 2.826V2.60861C10.4347 2.36948 10.2391 2.17383 9.99997 2.17383C9.76084 2.17383 9.56519 2.36948 9.56519 2.60861V2.826C9.56519 3.06513 9.76084 3.26078 9.99997 3.26078Z" fill="#51C569"/>
<path d="M9.99997 16.7391C9.76084 16.7391 9.56519 16.9348 9.56519 17.1739V17.3913C9.56519 17.6304 9.76084 17.8261 9.99997 17.8261C10.2391 17.8261 10.4347 17.6304 10.4347 17.3913V17.1739C10.4347 16.9348 10.2391 16.7391 9.99997 16.7391Z" fill="#51C569"/>
<path d="M2.826 9.56519H2.60861C2.36948 9.56519 2.17383 9.76084 2.17383 9.99997C2.17383 10.2391 2.36948 10.4347 2.60861 10.4347H2.826C3.06513 10.4347 3.26078 10.2391 3.26078 9.99997C3.26078 9.76084 3.06513 9.56519 2.826 9.56519Z" fill="#51C569"/>
<path d="M17.3912 9.56519H17.1738C16.9347 9.56519 16.739 9.76084 16.739 9.99997C16.739 10.2391 16.9347 10.4347 17.1738 10.4347H17.3912C17.6303 10.4347 17.826 10.2391 17.826 9.99997C17.826 9.76084 17.6303 9.56519 17.3912 9.56519Z" fill="#51C569"/>
<path d="M5.08679 4.47834C4.91287 4.30442 4.652 4.30442 4.47809 4.47834C4.30418 4.65225 4.30418 4.91312 4.47809 5.08703L4.63027 5.2392C4.71722 5.32616 4.82592 5.36964 4.93461 5.36964C5.04331 5.36964 5.15201 5.32616 5.23896 5.2392C5.41287 5.06529 5.41287 4.80442 5.23896 4.63051L5.08679 4.47834Z" fill="#51C569"/>
<path d="M4.63027 14.7608L4.47809 14.913C4.30418 15.0869 4.30418 15.3478 4.47809 15.5217C4.56505 15.6086 4.67374 15.6521 4.78244 15.6521C4.89114 15.6521 4.99983 15.6086 5.08679 15.5217L5.23896 15.3695C5.41287 15.1956 5.41287 14.9347 5.23896 14.7608C5.06505 14.5869 4.80418 14.5869 4.63027 14.7608Z" fill="#51C569"/>
<path d="M14.913 4.47834L14.7608 4.63051C14.5869 4.80442 14.5869 5.06529 14.7608 5.2392C14.8478 5.32616 14.9565 5.36964 15.0652 5.36964C15.1739 5.36964 15.2825 5.32616 15.3695 5.2392L15.5217 5.08703C15.6956 4.91312 15.6956 4.65225 15.5217 4.47834C15.3478 4.30442 15.0869 4.30442 14.913 4.47834Z" fill="#51C569"/>
<path d="M10.4347 9.82612V5.8696C10.4347 5.63047 10.2391 5.43481 9.99997 5.43481C9.76084 5.43481 9.56519 5.63047 9.56519 5.8696V10C9.56519 10.1087 9.60866 10.2174 9.69562 10.3044L14.4565 15.0653C14.5434 15.1522 14.6521 15.1957 14.7608 15.1957C14.8695 15.1957 14.9782 15.1522 15.0652 15.0653C15.2391 14.8913 15.2391 14.6305 15.0652 14.4566L10.4347 9.82612Z" fill="#51C569"/>
<path d="M10 0C4.47826 0 0 4.47826 0 10C0 15.5217 4.47826 20 10 20C15.5217 20 20 15.5217 20 10C20 4.47826 15.5217 0 10 0ZM10 19.1304C4.95652 19.1304 0.869565 15.0435 0.869565 10C0.869565 4.95652 4.95652 0.869565 10 0.869565C15.0435 0.869565 19.1304 4.95652 19.1304 10C19.1304 15.0435 15.0435 19.1304 10 19.1304Z" fill="#51C569"/>
</svg>
