<svg width="14" height="14" viewBox="0 0 14 14" fill="none" xmlns="http://www.w3.org/2000/svg">
<path d="M7 0C3.1402 0 0 3.1402 0 7C0 10.8598 3.1402 14 7 14C10.8598 14 14 10.8598 14 7C14 3.1402 10.8598 0 7 0ZM7 12.9626C3.7128 12.9626 1.0374 10.2881 1.0374 7C1.0374 3.71187 3.7128 1.0374 7 1.0374C10.2872 1.0374 12.9626 3.71187 12.9626 7C12.9626 10.2881 10.2872 12.9626 7 12.9626Z" fill="#F7F9FC"/>
<path d="M5.296 8.204V8.912H7.96V9.596H5.296V11H4.084V9.596H2.86V8.912H4.084V2.6H7.384C8.48 2.6 9.336 2.844 9.952 3.332C10.568 3.812 10.876 4.5 10.876 5.396C10.876 6.3 10.568 6.996 9.952 7.484C9.336 7.964 8.48 8.204 7.384 8.204H5.296ZM9.664 5.408C9.664 4.84 9.468 4.404 9.076 4.1C8.684 3.796 8.12 3.644 7.384 3.644H5.296V7.208H7.384C8.112 7.208 8.672 7.052 9.064 6.74C9.464 6.42 9.664 5.976 9.664 5.408Z" fill="white"/>
</svg>
