<svg id="icon-instagram" viewBox="0 0 15 15"  xmlns="http://www.w3.org/2000/svg">
<path d="M10.9396 0H4.06036C1.82144 0 0 1.82144 0 4.06036V10.9397C0 13.1785 1.82144 15 4.06036 15H10.9397C13.1785 15 15 13.1785 15 10.9397V4.06036C15 1.82144 13.1785 0 10.9396 0V0ZM14.1206 10.9397C14.1206 12.6936 12.6936 14.1206 10.9396 14.1206H4.06036C2.30632 14.1206 0.879362 12.6936 0.879362 10.9397V4.06036C0.879362 2.30632 2.30632 0.879362 4.06036 0.879362H10.9397C12.6936 0.879362 14.1206 2.30632 14.1206 4.06036V10.9397Z" />
<path d="M7.49994 3.39856C5.23836 3.39856 3.3985 5.23842 3.3985 7.5C3.3985 9.76158 5.23836 11.6014 7.49994 11.6014C9.76151 11.6014 11.6014 9.76158 11.6014 7.5C11.6014 5.23842 9.76151 3.39856 7.49994 3.39856ZM7.49994 10.7221C5.72336 10.7221 4.27786 9.27669 4.27786 7.5C4.27786 5.72342 5.72336 4.27792 7.49994 4.27792C9.27663 4.27792 10.722 5.72342 10.722 7.5C10.722 9.27669 9.27663 10.7221 7.49994 10.7221Z" />
<path d="M11.6995 1.94189C11.0311 1.94189 10.4875 2.4856 10.4875 3.15382C10.4875 3.82216 11.0311 4.36586 11.6995 4.36586C12.3678 4.36586 12.9115 3.82216 12.9115 3.15382C12.9115 2.48549 12.3678 1.94189 11.6995 1.94189ZM11.6995 3.48639C11.5161 3.48639 11.3669 3.33716 11.3669 3.15382C11.3669 2.97037 11.5161 2.82126 11.6995 2.82126C11.8829 2.82126 12.0322 2.97037 12.0322 3.15382C12.0322 3.33716 11.8829 3.48639 11.6995 3.48639Z" />
</svg>
