<svg width="20" height="20" viewBox="0 0 20 20" fill="none" xmlns="http://www.w3.org/2000/svg">
<g clip-path="url(#clip0)">
<path d="M16.667 14.4119L15.818 13.9033C15.5592 13.7485 15.2631 13.6668 14.9615 13.6666H13.6839C13.4223 13.6662 13.1619 13.6998 12.909 13.7666L9.05936 14.7999C8.63847 14.9162 8.30041 15.2296 8.15295 15.6406L4.76688 13.8087C4.49231 13.6525 4.17085 13.5994 3.86063 13.659C3.74361 13.6797 3.63016 13.7169 3.52356 13.7697C3.28283 13.8849 3.08313 14.0711 2.95097 14.303C2.83541 14.505 2.7747 14.7337 2.7747 14.9663C2.77112 15.4412 3.02274 15.8813 3.43355 16.1193L9.50224 19.7503C9.76591 19.9136 10.0696 20 10.3797 20H15.0763C15.2861 20.0001 15.4939 19.9604 15.6889 19.8833L16.667 19.4971V20H20.0003V13.3333H16.667V14.4119ZM15.444 19.2633C15.3273 19.3094 15.2028 19.3332 15.0773 19.3333H10.3797C10.1919 19.3332 10.0078 19.2803 9.84859 19.1806L3.7716 15.5454C3.56506 15.4261 3.4386 15.2051 3.44022 14.9666C3.44071 14.8498 3.47147 14.7348 3.52958 14.6333C3.59599 14.5182 3.69592 14.4259 3.81587 14.369C3.86877 14.3432 3.92476 14.325 3.98254 14.3149C4.0247 14.3071 4.0675 14.303 4.11031 14.303C4.22489 14.3027 4.33752 14.3327 4.43697 14.3896L8.10868 16.3737C8.11291 16.394 8.11291 16.414 8.11828 16.4344C8.27616 17.0163 8.80399 17.4204 9.40702 17.421C9.59257 17.4041 9.77632 17.3712 9.95634 17.3231L13.4196 16.3963L13.2477 15.7523L9.79569 16.6749C9.64367 16.7099 9.44755 16.75 9.40702 16.7534C9.10591 16.7539 8.84192 16.5527 8.76265 16.2623C8.75191 16.222 8.74556 16.1806 8.74328 16.139C8.74328 16.139 8.74068 16.0582 8.74328 16.0299C8.76867 15.7511 8.96399 15.5171 9.23368 15.442L13.0817 14.4126C13.2781 14.36 13.4806 14.3333 13.6839 14.3333H14.9615C15.1425 14.3333 15.3201 14.3825 15.4752 14.4754L16.667 15.1889V18.7799L15.444 19.2633ZM17.3336 14H19.3336V19.3333H17.3336V14Z" fill="#81909F"/>
<path d="M13.748 2.66637L11.96 0.878451C11.3986 0.313835 10.6348 -0.0025716 9.83871 -0.000292953H5.64795C5.38932 3.25678e-05 5.13428 0.0604167 4.90267 0.175651L4.1556 0.549349C4.00586 0.624707 3.83952 0.660677 3.67204 0.654004L3.33333 0.642123V-0.000292953H0V7.33304H3.33333V6.33304H3.90007L4.10173 6.46634C4.66602 6.84102 5.32308 7.0526 6 7.07734V11.333H20V2.66637H13.748ZM2.66667 6.66637H0.666667V0.666374H2.66667V6.66637ZM4.4707 5.91165L4.09994 5.66637H3.33333V1.30911L3.64762 1.32035C3.92676 1.33027 4.20378 1.27022 4.45361 1.1457L5.20003 0.772005C5.33903 0.702507 5.49251 0.666374 5.64795 0.666374H9.83871C10.4578 0.664583 11.0521 0.910677 11.4886 1.34964L12.8053 2.66637H10.0547L9.24561 1.85745L8.77441 2.32865L11.1291 4.68346C11.3906 4.94388 11.3914 5.36706 11.131 5.62878C10.8704 5.89033 10.4473 5.89115 10.1857 5.63073L8.21908 3.6641L7.98568 3.86413C7.34131 4.41133 6.39941 4.42533 5.73893 3.89733L5.54574 3.74076L5.12565 4.25866L5.32096 4.41703C5.52523 4.58027 5.75456 4.70951 6 4.79967V6.41035C5.45443 6.3861 4.92562 6.21374 4.4707 5.91165ZM9.2124 5.59964L9.71533 6.10274C10.2375 6.61706 11.0757 6.61787 11.5986 6.10436C11.1094 6.86201 11.3024 7.87031 12.0369 8.39359C12.7715 8.91686 13.7876 8.76989 14.3438 8.06009C14.8999 7.35013 14.7995 6.32832 14.1156 5.74043C13.4318 5.15254 12.4064 5.20641 11.7881 5.86266C12.0158 5.50508 12.0565 5.05944 11.8973 4.66637H16.361C16.5044 5.50508 17.1613 6.16198 18 6.30537V7.69404C17.1613 7.83744 16.5044 8.49434 16.361 9.33304H9.639C9.49561 8.49434 8.83871 7.83744 8 7.69404V6.30537C8.4764 6.22513 8.90723 5.97432 9.2124 5.59964ZM12 6.99971C12 6.44746 12.4478 5.99971 13 5.99971C13.5522 5.99971 14 6.44746 14 6.99971C14 7.55195 13.5522 7.99971 13 7.99971C12.4478 7.99971 12 7.55195 12 6.99971ZM19.3333 10.6664H6.66667V4.93932C7.19515 4.97904 7.72201 4.84427 8.16667 4.55602L8.73535 5.12471C8.48519 5.46455 8.08871 5.66556 7.66667 5.66637H7.33333V8.33304H7.66667C8.403 8.33304 9 8.93005 9 9.66638V9.99971H17V9.66638C17 8.93005 17.597 8.33304 18.3333 8.33304H18.6667V5.66637H18.3333C17.597 5.66637 17 5.06937 17 4.33304V3.99971H11.388L10.7214 3.33304H19.3333V10.6664Z" fill="#81909F"/>
</g>
<defs>
<clipPath id="clip0">
<rect width="20" height="20" fill="white"/>
</clipPath>
</defs>
</svg>
