<svg id="tab-location" width="14" height="18" viewBox="0 0 14 18"  xmlns="http://www.w3.org/2000/svg">
<path d="M6.54545 18C6.34072 17.9994 6.14366 17.922 5.99318 17.7832C5.72727 17.5582 0 12.2114 0 6.54545C0 4.80949 0.689608 3.14463 1.91712 1.91712C3.14463 0.689608 4.80949 0 6.54545 0C8.28142 0 9.94628 0.689608 11.1738 1.91712C12.4013 3.14463 13.0909 4.80949 13.0909 6.54545C13.0909 12.1377 7.36364 17.5541 7.10182 17.7791C6.95093 17.9204 6.75216 17.9993 6.54545 18ZM6.54545 1.63636C5.24348 1.63636 3.99484 2.15357 3.0742 3.0742C2.15357 3.99484 1.63636 5.24348 1.63636 6.54545C1.63636 10.53 5.15045 14.58 6.54545 16.0241C7.93227 14.5636 11.4545 10.4809 11.4545 6.54545C11.4545 5.24348 10.9373 3.99484 10.0167 3.0742C9.09607 2.15357 7.84743 1.63636 6.54545 1.63636Z" />
<path d="M6.54528 9.4091C5.9789 9.4091 5.42525 9.24115 4.95433 8.92649C4.4834 8.61183 4.11637 8.16459 3.89962 7.64133C3.68288 7.11807 3.62617 6.54229 3.73667 5.98679C3.84716 5.4313 4.11989 4.92105 4.52038 4.52056C4.92087 4.12008 5.43112 3.84734 5.98661 3.73685C6.5421 3.62635 7.11788 3.68307 7.64114 3.89981C8.16441 4.11655 8.61164 4.48359 8.9263 4.95451C9.24096 5.42543 9.40891 5.97909 9.40891 6.54546C9.40891 7.30494 9.10721 8.03332 8.57018 8.57036C8.03314 9.10739 7.30476 9.4091 6.54528 9.4091ZM6.54528 5.31819C6.30255 5.31819 6.06527 5.39017 5.86344 5.52502C5.66162 5.65988 5.50432 5.85155 5.41143 6.07581C5.31854 6.30006 5.29423 6.54682 5.34159 6.78489C5.38894 7.02296 5.50583 7.24164 5.67747 7.41327C5.8491 7.58491 6.06778 7.7018 6.30585 7.74915C6.54392 7.79651 6.79068 7.7722 7.01493 7.67931C7.23919 7.58642 7.43086 7.42912 7.56572 7.2273C7.70057 7.02547 7.77255 6.78819 7.77255 6.54546C7.77255 6.21997 7.64325 5.90781 7.41309 5.67765C7.18293 5.44749 6.87077 5.31819 6.54528 5.31819Z" />
</svg>
