<svg width="20" height="20" viewBox="0 0 20 20" fill="none" xmlns="http://www.w3.org/2000/svg">
<g clip-path="url(#clip0)">
<path d="M4.00787 12.3428C4.06204 12.3428 3.40591 12.4995 15.4149 9.55063C15.574 9.51157 15.6714 9.3509 15.6322 9.19175C15.5933 9.0326 15.4323 8.93509 15.2733 8.97431L3.93737 11.7578C3.59863 11.841 3.65997 12.3428 4.00787 12.3428Z" fill="#81909F"/>
<path d="M6.11679 3.93174C5.86426 3.77884 5.56747 3.73337 5.28091 3.80387L2.47207 4.49357C1.87912 4.63914 1.51687 5.23713 1.66259 5.83008L2.00943 7.2429C2.15469 7.83448 2.75161 8.1984 3.34594 8.05238L6.15478 7.36268C6.74774 7.21696 7.10998 6.61927 6.96426 6.02616C6.60705 4.57123 6.61468 4.23325 6.11679 3.93174ZM3.2045 7.4759C2.93014 7.54334 2.65335 7.37595 2.5859 7.10129L2.23892 5.68848C2.17147 5.41413 2.33902 5.13734 2.61352 5.06989L3.358 4.88709C3.97949 7.41807 3.93738 7.25526 3.95248 7.29218L3.2045 7.4759ZM3.93448 4.74564C5.55404 4.348 5.45959 4.36524 5.54535 4.36524C5.77118 4.36524 5.98282 4.51813 6.04095 4.75495L6.13113 5.12208L4.14657 5.60944L3.93448 4.74564ZM6.32873 6.55457C6.25793 6.6713 6.14593 6.75355 6.01318 6.7862L4.52179 7.15241C4.51797 7.11289 4.52987 7.17072 4.28802 6.18577L6.27273 5.6984C6.37909 6.13175 6.46927 6.32264 6.32873 6.55457Z" fill="#81909F"/>
<path d="M3.05836 9.80195C2.89921 9.84101 2.80186 10.0018 2.84108 10.161L2.98497 10.7468C3.01808 10.8821 3.13939 10.9728 3.2729 10.9728C3.46577 10.9728 3.60707 10.7918 3.56129 10.6052L3.4174 10.0194C3.37834 9.86023 3.21751 9.76273 3.05836 9.80195Z" fill="#81909F"/>
<path d="M4.2751 10.7355C4.43425 10.6964 4.5316 10.5356 4.49239 10.3764L4.3485 9.79066C4.30959 9.63151 4.14876 9.53416 3.98961 9.57338C3.83046 9.61229 3.73311 9.77312 3.77217 9.93227L3.91606 10.5181C3.95497 10.6764 4.11504 10.7747 4.2751 10.7355Z" fill="#81909F"/>
<path d="M5.20662 10.5067C5.36577 10.4677 5.46312 10.3068 5.42391 10.1477L5.28001 9.5619C5.2411 9.40275 5.08028 9.3054 4.92113 9.34462C4.76198 9.38368 4.66463 9.54436 4.70369 9.7035L4.84758 10.2893C4.88649 10.4477 5.04656 10.5461 5.20662 10.5067Z" fill="#81909F"/>
<path d="M6.06679 10.2867C6.25981 10.2867 6.40111 10.1058 6.35518 9.91914L6.21129 9.33321C6.17223 9.17406 6.0114 9.0767 5.8524 9.11592C5.69325 9.15498 5.5959 9.31566 5.63497 9.47481L5.77886 10.0606C5.81197 10.1961 5.93328 10.2867 6.06679 10.2867Z" fill="#81909F"/>
<path d="M7.9297 9.82926C8.12273 9.82926 8.26402 9.64829 8.21825 9.46168L8.07436 8.87589C8.03529 8.71674 7.87447 8.61924 7.71532 8.65845C7.55617 8.69751 7.45882 8.85834 7.49788 9.01749L7.64177 9.60328C7.67503 9.73862 7.79634 9.82926 7.9297 9.82926Z" fill="#81909F"/>
<path d="M8.64659 8.42969C8.48744 8.46875 8.39009 8.62958 8.42915 8.78873L8.57305 9.37452C8.60631 9.50986 8.72746 9.6005 8.86098 9.6005C9.054 9.6005 9.1953 9.41953 9.14937 9.23292L9.00548 8.64713C8.96642 8.48798 8.80574 8.39048 8.64659 8.42969Z" fill="#81909F"/>
<path d="M9.57787 8.20101C9.41872 8.24007 9.32137 8.4009 9.36043 8.56004L9.50432 9.14583C9.54308 9.30422 9.70329 9.40248 9.86321 9.36327C10.0224 9.32421 10.1197 9.16338 10.0806 9.00423L9.93675 8.41844C9.89769 8.25929 9.73702 8.16194 9.57787 8.20101Z" fill="#81909F"/>
<path d="M10.5092 7.97225C10.35 8.01131 10.2527 8.17214 10.2919 8.33128L10.4358 8.91707C10.4689 9.05257 10.5902 9.1432 10.7237 9.1432C10.9166 9.1432 11.0579 8.96208 11.0121 8.77547L10.8682 8.18968C10.8291 8.03053 10.6683 7.93318 10.5092 7.97225Z" fill="#81909F"/>
<path d="M12.3957 7.50917C12.2366 7.54808 12.1392 7.70891 12.1783 7.86806L12.3222 8.45384C12.3555 8.58934 12.4768 8.67998 12.6101 8.67998C12.803 8.67998 12.9444 8.49901 12.8985 8.31239L12.7548 7.72661C12.7157 7.5673 12.555 7.46995 12.3957 7.50917Z" fill="#81909F"/>
<path d="M13.3274 7.28041C13.1682 7.31947 13.0709 7.48015 13.1099 7.6393L13.2538 8.22508C13.2927 8.38393 13.4533 8.48174 13.6127 8.44252C13.7719 8.40346 13.8692 8.24278 13.8302 8.08363L13.6864 7.49785C13.6474 7.33855 13.4867 7.24119 13.3274 7.28041Z" fill="#81909F"/>
<path d="M14.2587 7.05171C14.0995 7.09077 14.0022 7.25145 14.0412 7.4106L14.1851 7.99638C14.224 8.15538 14.3845 8.25304 14.544 8.21382C14.7031 8.17476 14.8005 8.01408 14.7614 7.85493L14.6175 7.26915C14.5785 7.10985 14.4178 7.0125 14.2587 7.05171Z" fill="#81909F"/>
<path d="M15.4755 7.98505C15.6347 7.94599 15.732 7.78531 15.6929 7.62617L15.5491 7.04038C15.51 6.88123 15.3492 6.78373 15.1902 6.82294C15.031 6.862 14.9337 7.02268 14.9727 7.18183L15.1165 7.76761C15.1555 7.92661 15.3159 8.02427 15.4755 7.98505Z" fill="#81909F"/>
<path d="M14.6343 4.02102L13.7792 3.12944C13.6184 2.96144 13.3781 2.89141 13.1518 2.94695L12.0204 3.22481C11.9679 3.13539 12.0156 3.19384 11.0743 2.21208C10.9132 2.04408 10.6729 1.9742 10.4467 2.02974L9.24692 2.32439C9.02093 2.37978 8.84012 2.55312 8.77527 2.77666L8.43042 3.96303C8.36557 4.18642 8.42523 4.42965 8.58636 4.59765C8.58636 4.59765 9.44131 5.48937 9.44147 5.48952C9.60306 5.65798 9.84369 5.7271 10.0689 5.67171L11.2003 5.394C11.2541 5.48556 11.2098 5.42986 12.1464 6.40673C12.308 6.57534 12.5488 6.64462 12.774 6.58907L13.9738 6.29443C14.1998 6.23888 14.3804 6.0657 14.4454 5.84216L14.7901 4.65578C14.8551 4.43224 14.7955 4.18917 14.6343 4.02102ZM11.5153 3.57286C11.141 4.86086 11.1741 4.78914 11.1271 4.80074C9.86734 5.11004 9.90778 5.11812 9.86978 5.0786C8.94113 4.10997 8.98706 4.17482 9.00033 4.12859C9.37479 2.84044 9.34152 2.91216 9.38852 2.90071C10.6478 2.59142 10.6078 2.58318 10.6458 2.62285C11.5745 3.59133 11.5287 3.52648 11.5153 3.57286ZM13.8755 5.67644C13.8618 5.72405 13.923 5.69582 12.6324 6.0126C12.6119 6.01778 12.5897 6.01138 12.5749 5.99596C11.6465 5.02779 11.692 5.09234 11.7054 5.04595C12.0764 3.7694 12.0455 3.82982 12.0936 3.81807C12.1043 3.81533 13.2965 3.52175 13.3076 3.52175C13.3471 3.52175 13.2931 3.47979 14.206 4.43194C14.2439 4.47146 14.2376 4.43041 13.8755 5.67644Z" fill="#81909F"/>
<path d="M18.5214 9.3326L17.4771 9.08648C17.4771 8.38763 17.8072 9.89016 15.7471 1.50163C15.5362 0.641493 14.7705 0.0404483 13.8858 0.0404483C13.553 0.0404483 14.2517 -0.106341 2.86194 2.69044C2.70249 2.72951 2.60514 2.89018 2.64435 3.04964C2.68357 3.20879 2.84455 3.30614 3.00324 3.26692C14.4264 0.462049 13.6546 0.633863 13.8858 0.633863C14.4963 0.633863 15.025 1.04906 15.1711 1.64293L16.8602 8.52373C17.0339 9.22625 16.611 9.94875 15.8899 10.1261C14.8032 10.3928 5.01847 12.7954 3.92487 13.064C3.22159 13.2378 2.49955 12.8141 2.32224 12.0938C0.489199 4.62816 0.594179 5.12361 0.594179 4.89595C0.594179 4.28499 1.00922 3.75673 1.60324 3.61086L1.85059 3.55028C2.00959 3.51106 2.10694 3.35039 2.06772 3.19093C2.02896 3.03194 1.86829 2.93459 1.70883 2.97365L1.46195 3.03423C0.425112 3.28874 -0.196837 4.33092 0.056459 5.35463L1.74607 12.2351C1.89728 12.8524 2.33368 13.3354 2.89475 13.5599L2.78275 14.0351L2.78305 14.0352L2.59644 14.8268C2.35291 15.8574 2.99027 16.8907 4.02298 17.1343L16.0146 19.9623C17.0447 20.2059 18.0785 19.5684 18.322 18.5358L18.5086 17.744H18.5088L19.1355 15.0865L19.9483 11.6399C20.1915 10.6082 19.554 9.57583 18.5214 9.3326ZM19.3706 11.5038L18.5578 14.9503L13.4303 13.7412C13.2709 13.7035 13.111 13.8024 13.073 13.962C13.0354 14.1214 13.1343 14.2812 13.2938 14.3189L18.4213 15.5281L18.0672 17.0302L6.03196 14.1918C5.87205 14.1538 5.71259 14.2528 5.67506 14.4126C5.63737 14.572 5.73594 14.7319 5.89539 14.7695L17.9309 17.6078L17.7442 18.3992C17.578 19.1057 16.8691 19.5545 16.1507 19.3846L4.1594 16.5566C3.44712 16.3889 3.00538 15.6765 3.17414 14.9634L3.36091 14.1715C4.87351 14.5284 4.75922 14.5047 4.80836 14.5047C5.15809 14.5047 5.21775 13.9997 4.87641 13.9191L3.85987 13.6794C4.00651 13.6602 3.77366 13.7125 7.1782 12.8765L12.1384 14.0462C12.2981 14.0842 12.4581 13.9853 12.4956 13.8257C12.5333 13.666 12.4344 13.506 12.2748 13.4685L8.44529 12.5655L11.3165 11.8604C17.6616 13.3565 17.2807 13.2706 17.3303 13.2706C17.6798 13.2706 17.7391 12.7658 17.3979 12.6847L12.5835 11.5492L14.6103 11.0515C16.3947 11.4723 16.2784 11.4484 16.3277 11.4484C16.6773 11.4484 16.7369 10.9432 16.3957 10.8628L15.8769 10.7405L16.0312 10.7025C16.6098 10.5605 17.0708 10.1679 17.311 9.65716L18.3853 9.9103C19.0998 10.0788 19.5381 10.7929 19.3706 11.5038Z" fill="#81909F"/>
<path d="M4.40816 15.62C4.37047 15.7794 4.46935 15.9392 4.6288 15.9769C16.6454 18.8109 16.0045 18.6643 16.0583 18.6643C16.1927 18.6643 16.3146 18.5721 16.3468 18.4355C16.3845 18.2761 16.2856 18.1162 16.1262 18.0785L4.76522 15.3992C4.60561 15.3615 4.44585 15.4604 4.40816 15.62Z" fill="#81909F"/>
</g>
<defs>
<clipPath id="clip0">
<rect width="20" height="20" fill="white"/>
</clipPath>
</defs>
</svg>
