<svg width="16" height="10" viewBox="0 0 16 10" fill="none" xmlns="http://www.w3.org/2000/svg">
<path d="M14.1201 3.75673e-07L1.1431 3.04128e-08C0.511763 1.36158e-08 1.79636e-08 0.511763 4.01242e-08 1.1431L1.17004e-07 3.33333L15.2631 3.33333L15.2631 1.1431C15.2631 0.511763 14.7514 3.9247e-07 14.1201 3.75673e-07Z" fill="#F5F5F5"/>
<path d="M7.68801e-08 8.85698C9.90397e-08 9.48829 0.511763 10.0001 1.1431 10.0001L14.1201 10.0001C14.7514 10.0001 15.2631 9.48832 15.2631 8.85698L15.2631 6.66675L0 6.66675L7.68801e-08 8.85698Z" fill="#FF4B55"/>
<path d="M15.2631 3.33325L0 3.33325L1.16998e-07 6.6664L15.2631 6.6664L15.2631 3.33325Z" fill="#41479B"/>
</svg>
