<svg width="17" height="20" viewBox="0 0 17 20" fill="none" xmlns="http://www.w3.org/2000/svg">
<path d="M11.3385 7.24609C11.069 7.24609 10.8506 7.45577 10.8506 7.71448L10.8506 16.5669C10.8506 16.8255 11.069 17.0353 11.3385 17.0353C11.608 17.0353 11.8264 16.8255 11.8264 16.5669L11.8264 7.71448C11.8264 7.45577 11.608 7.24609 11.3385 7.24609Z" fill="#34495E"/>
<path d="M5.58214 7.24609C5.31265 7.24609 5.09424 7.45577 5.09424 7.71448L5.09424 16.5669C5.09424 16.8255 5.31265 17.0353 5.58214 17.0353C5.85163 17.0353 6.07004 16.8255 6.07004 16.5669L6.07004 7.71448C6.07004 7.45577 5.85163 7.24609 5.58214 7.24609Z" fill="#34495E"/>
<path d="M1.38571 5.95419L1.38571 17.4941C1.38571 18.1762 1.64624 18.8168 2.10136 19.2764C2.55438 19.7373 3.18484 19.9989 3.84464 20L13.0758 20C13.7358 19.9989 14.3663 19.7373 14.8191 19.2764C15.2742 18.8168 15.5348 18.1762 15.5348 17.4941L15.5348 5.95419C16.4395 5.72366 17.0257 4.88459 16.9047 3.99339C16.7835 3.10236 15.9927 2.43583 15.0566 2.43565L12.5586 2.43565L12.5586 1.85017C12.5614 1.35782 12.3587 0.885047 11.9956 0.537236C11.6325 0.189609 11.1393 -0.00396504 10.6264 6.01864e-05L6.29405 6.07389e-05C5.78118 -0.00396436 5.28795 0.189609 4.92488 0.537237C4.56182 0.885048 4.35903 1.35782 4.36189 1.85017L4.36189 2.43565L1.86389 2.43565C0.927735 2.43583 0.136996 3.10236 0.0157838 3.99339C-0.105238 4.8846 0.481003 5.72366 1.38571 5.95419ZM13.0758 19.0632L3.84464 19.0632C3.01045 19.0632 2.36151 18.3753 2.36151 17.4941L2.36151 5.99536L14.559 5.99536L14.559 17.4941C14.559 18.3753 13.91 19.0632 13.0758 19.0632ZM5.33769 1.85017C5.33445 1.60628 5.43432 1.37154 5.61461 1.19938C5.79471 1.02721 6.03981 0.932618 6.29405 0.936826L10.6264 0.936825C10.8807 0.932617 11.1258 1.02721 11.3059 1.19938C11.4862 1.37136 11.586 1.60628 11.5828 1.85017L11.5828 2.43565L5.33769 2.43565L5.33769 1.85017ZM1.86389 3.37242L15.0566 3.37241C15.5416 3.37241 15.9348 3.74986 15.9348 4.2155C15.9348 4.68114 15.5416 5.05859 15.0566 5.05859L1.86389 5.05859C1.37885 5.05859 0.985673 4.68114 0.985673 4.2155C0.985673 3.74987 1.37885 3.37242 1.86389 3.37242Z" fill="#34495E"/>
<path d="M8.46056 7.24609C8.19107 7.24609 7.97266 7.45577 7.97266 7.71448L7.97266 16.5669C7.97266 16.8255 8.19107 17.0353 8.46056 17.0353C8.73004 17.0353 8.94846 16.8255 8.94846 16.5669L8.94846 7.71448C8.94846 7.45577 8.73004 7.24609 8.46056 7.24609Z" fill="#34495E"/>
</svg>
