<svg width="21" height="15" viewBox="0 0 21 15" fill="none" xmlns="http://www.w3.org/2000/svg">
<path d="M19.4273 0.620667L1.57274 0.620667C0.704115 0.620667 2.47154e-08 1.32478 5.52054e-08 2.19341L1.60982e-07 5.20687L21 5.20687L21 2.19341C21 1.32478 20.2959 0.620667 19.4273 0.620667Z" fill="#F5F5F5"/>
<path d="M1.05776e-07 12.8066C1.36265e-07 13.6751 0.704115 14.3793 1.57274 14.3793L19.4273 14.3793C20.2958 14.3793 21 13.6752 21 12.8066L21 9.79309L0 9.79309L1.05776e-07 12.8066Z" fill="#FF4B55"/>
<path d="M21 5.20679L0 5.20679L1.60973e-07 9.79274L21 9.79275L21 5.20679Z" fill="#41479B"/>
</svg>
