<svg id="icon-vk"  viewBox="0 0 15 9"  xmlns="http://www.w3.org/2000/svg">
<path d="M14.3336 6.83447C14.0073 6.44344 13.6387 6.09431 13.2821 5.75666C13.1569 5.63798 13.0273 5.51526 12.9025 5.39341C12.9024 5.39338 12.9024 5.39335 12.9024 5.39332C12.7345 5.22958 12.6523 5.11336 12.6437 5.02752C12.6353 4.94314 12.693 4.81796 12.8256 4.63292C13.0239 4.3546 13.2353 4.07581 13.4398 3.80622C13.6215 3.56657 13.8094 3.31874 13.9896 3.06951L14.03 3.01356C14.3814 2.52717 14.7447 2.02423 14.9395 1.41133C14.9951 1.23561 15.0528 0.97557 14.9135 0.747288C14.7742 0.518947 14.5159 0.451271 14.3338 0.420275C14.2449 0.40504 14.1605 0.40378 14.082 0.40378L11.8025 0.401759C11.4084 0.395196 11.135 0.581994 10.986 0.957112C10.8668 1.2567 10.726 1.6039 10.5628 1.93326C10.2506 2.56909 9.85399 3.30143 9.27907 3.9116L9.25352 3.93878C9.21438 3.98056 9.15042 4.04888 9.11758 4.06456C9.0553 4.02542 8.98343 3.80156 8.98671 3.68428C8.9868 3.68138 8.98683 3.67851 8.98683 3.67564L8.98481 1.04175C8.98481 1.02836 8.98387 1.01497 8.98208 1.0017C8.93096 0.625939 8.83129 0.249239 8.23656 0.131875C8.21749 0.128096 8.1981 0.126221 8.1787 0.126221H5.80755C5.36145 0.126221 5.12549 0.330509 4.93632 0.551994C4.88156 0.616564 4.73607 0.78801 4.81019 0.997601C4.88519 1.20968 5.10867 1.25202 5.18203 1.2659C5.44043 1.31495 5.57405 1.46099 5.61542 1.74019C5.69719 2.28268 5.70721 2.86303 5.647 3.56566C5.63022 3.7543 5.59899 3.89768 5.5486 4.01692C5.53465 4.04994 5.5224 4.07039 5.51385 4.08243C5.5002 4.07692 5.47896 4.06637 5.44954 4.04625C5.26796 3.922 5.13111 3.72884 4.99878 3.5421C4.4702 2.79582 4.02559 1.97158 3.63937 1.02192C3.48032 0.632766 3.18131 0.415411 2.79799 0.409786C2.06767 0.397628 1.39223 0.397921 0.733754 0.410724C0.423176 0.416114 0.205383 0.513878 0.0863197 0.70135C-0.0328897 0.889173 -0.0285245 1.12865 0.0993275 1.41324C1.01328 3.44557 1.84314 4.92401 2.79002 6.20705C3.45673 7.11033 4.12787 7.73734 4.9021 8.18032C5.71556 8.6457 6.63296 8.87377 7.69727 8.87374C7.81829 8.87374 7.94143 8.87079 8.0662 8.86484C8.72284 8.83493 8.98999 8.57374 9.01915 7.93422C9.03549 7.59622 9.07311 7.32241 9.20363 7.08452C9.24013 7.01793 9.28132 6.97328 9.31378 6.96511C9.3483 6.95649 9.4095 6.97761 9.47756 7.02182C9.60198 7.10262 9.70912 7.2122 9.79721 7.30838C9.88651 7.40614 9.97675 7.50713 10.0641 7.60478C10.2499 7.8127 10.4421 8.02771 10.6434 8.23279C11.0988 8.69697 11.6237 8.90984 12.2043 8.86525L14.2904 8.86622C14.2904 8.86622 14.2905 8.86622 14.2905 8.86622C14.2971 8.86622 14.3037 8.86601 14.3104 8.86557C14.551 8.84955 14.759 8.71633 14.8812 8.5C15.0283 8.2395 15.0261 7.90952 14.8751 7.61699C14.7176 7.31286 14.5133 7.05109 14.3336 6.83447ZM14.3608 8.20618C14.3321 8.25713 14.2966 8.26642 14.2783 8.26865L12.1926 8.26768C12.1926 8.26768 12.1925 8.26768 12.1924 8.26768C12.1842 8.26768 12.176 8.268 12.1678 8.2687C11.7569 8.30292 11.4076 8.15849 11.0699 7.81425C10.8783 7.61907 10.6909 7.40939 10.5096 7.2066C10.4213 7.10778 10.33 7.00556 10.2382 6.90513C10.1244 6.78086 9.98378 6.63803 9.80305 6.52067C9.53246 6.34503 9.30822 6.35034 9.1678 6.38573C9.02884 6.42074 8.83132 6.52064 8.67971 6.79732C8.4833 7.1553 8.43997 7.54149 8.42234 7.90633C8.41214 8.12946 8.37441 8.1884 8.35865 8.20337C8.33799 8.223 8.26897 8.25751 8.03866 8.26803C6.93194 8.32006 6.00317 8.12187 5.19888 7.6617C4.49921 7.26139 3.88655 6.68637 3.27087 5.85226C2.35021 4.60482 1.54015 3.16025 0.644398 1.16834C0.611937 1.09619 0.601917 1.05116 0.599017 1.02704C0.621868 1.01954 0.666517 1.00967 0.744799 1.00824C1.3966 0.995609 2.06498 0.995257 2.7887 1.00733C2.88778 1.00879 3.00061 1.03853 3.08604 1.24756C3.48957 2.23982 3.95572 3.10335 4.51119 3.88757C4.65867 4.09573 4.84225 4.35483 5.11204 4.53943C5.35916 4.70865 5.5597 4.70057 5.68445 4.664C5.80925 4.62741 5.98245 4.52575 6.09912 4.24954C6.17438 4.0715 6.21988 3.87102 6.24241 3.61772C6.30677 2.86616 6.29535 2.24132 6.20652 1.65195C6.14391 1.22969 5.92588 0.924652 5.58243 0.76888C5.64343 0.737122 5.71216 0.723879 5.80761 0.723879H8.14777C8.27943 0.753411 8.3055 0.788098 8.31444 0.799963C8.35235 0.850384 8.37403 0.969652 8.38727 1.06285L8.38926 3.67245C8.38399 3.92261 8.50557 4.47744 8.91954 4.62958C8.92293 4.63084 8.92636 4.63201 8.92979 4.63312C9.30667 4.75629 9.55595 4.49024 9.68978 4.3473L9.71363 4.32193C10.3434 3.65352 10.7675 2.87252 11.0988 2.19766C11.2715 1.84918 11.4177 1.48871 11.5414 1.17798C11.6033 1.02215 11.6596 0.996488 11.7939 0.99933C11.7958 0.999388 11.7976 0.999388 11.7995 0.999388L14.0818 1.00141C14.1349 1.00141 14.1903 1.00203 14.2333 1.00938C14.3421 1.02789 14.3869 1.05045 14.4016 1.0598C14.4031 1.07711 14.4028 1.12692 14.3699 1.23086C14.2044 1.75203 13.8844 2.19482 13.5457 2.66363L13.5052 2.71968C13.3293 2.96319 13.1434 3.20821 12.9637 3.44519C12.7566 3.71827 12.5425 4.0006 12.3395 4.28554C11.9055 4.89108 11.9437 5.29292 12.4853 5.8212C12.6133 5.94616 12.7445 6.07043 12.8714 6.19061C13.2312 6.53142 13.571 6.85331 13.8744 7.21677C14.0331 7.40819 14.2131 7.63809 14.3443 7.89145C14.4128 8.02407 14.396 8.1439 14.3608 8.20618Z"/>
</svg>
