<svg width="20" height="20" viewBox="0 0 20 20" fill="none" xmlns="http://www.w3.org/2000/svg">
<path d="M19.235 8.01282L18.7991 7.55128L17.2692 3.42735C17.0085 2.73077 16.3419 2.26923 15.5983 2.26495H4.67094C3.92735 2.26495 3.26068 2.73077 3 3.42735L1.49145 7.5L0.863248 8.0812C0.316239 8.54701 0 9.23077 0 9.94872V15.9573C0.0042735 16.9402 0.803419 17.735 1.78632 17.735H2.91453C3.89744 17.735 4.69658 16.9402 4.70085 15.9573V15.0855H15.2991V15.9573C15.3034 16.9402 16.1026 17.735 17.0855 17.735H18.2137C19.1966 17.735 19.9957 16.9402 20 15.9573V9.7906C19.9957 9.11966 19.7222 8.47863 19.235 8.01282ZM3.80342 3.71795C3.94017 3.3547 4.28632 3.11965 4.67094 3.11965H15.6026C15.9872 3.11965 16.3333 3.35897 16.4701 3.71795L17.8034 7.30769H16.8077C16.5726 5.70513 15.0812 4.59829 13.4786 4.8376C12.2009 5.02564 11.1966 6.02991 11.0085 7.30769H2.47009L3.80342 3.71795ZM15.9359 7.30769H11.8718C12.1068 6.18376 13.2094 5.46581 14.3333 5.70085C15.1368 5.87179 15.765 6.5 15.9359 7.30769ZM3.84615 15.9573C3.84188 16.4701 3.42735 16.8803 2.91453 16.8803H1.78632C1.2735 16.8803 0.858974 16.4701 0.854701 15.9573V14.8376C1.11111 15.0043 1.44872 15.0855 1.78632 15.0855H3.84615V15.9573ZM19.1453 15.9573C19.141 16.4701 18.7265 16.8803 18.2137 16.8803H17.0855C16.5726 16.8803 16.1581 16.4658 16.1538 15.9573V15.0855H18.2137C18.5513 15.0855 18.8889 15.0043 19.1453 14.8376V15.9573ZM18.2137 14.2308H1.78632C1.27778 14.235 0.858974 13.8291 0.854701 13.3162V9.94872C0.854701 9.47863 1.0641 9.02991 1.42308 8.72649C1.42735 8.72222 1.4359 8.71367 1.44017 8.7094L2.02137 8.16239H18.2051L18.6154 8.60256C18.6197 8.61111 18.6325 8.61538 18.6368 8.62393C18.9573 8.92735 19.141 9.35043 19.141 9.7906V13.3162H19.1453C19.141 13.8248 18.7222 14.235 18.2137 14.2308Z" fill="#81909F"/>
<path d="M5.64102 9.87183H2.4359C2.20085 9.87183 2.00854 10.0641 2.00854 10.2992V12.5214C2.00854 12.7564 2.20085 12.9487 2.4359 12.9487H5.64102C5.87607 12.9487 6.06838 12.7564 6.06838 12.5214V10.2992C6.06838 10.0641 5.87607 9.87183 5.64102 9.87183ZM5.21367 12.094H2.86325V10.7265H5.21367V12.094Z" fill="#81909F"/>
<path d="M17.5639 9.87183H14.3587C14.1237 9.87183 13.9314 10.0641 13.9314 10.2992V12.5214C13.9314 12.7564 14.1237 12.9487 14.3587 12.9487H17.5639C17.7989 12.9487 17.9912 12.7564 17.9912 12.5214V10.2992C17.9912 10.0641 17.7989 9.87183 17.5639 9.87183ZM17.1365 12.094H14.7861V10.7265H17.1365V12.094Z" fill="#81909F"/>
<path d="M12.0643 11.6667H7.93614C7.7011 11.6667 7.50879 11.859 7.50879 12.094C7.50879 12.3291 7.7011 12.5214 7.93614 12.5214H12.0643C12.2994 12.5214 12.4917 12.3291 12.4917 12.094C12.4917 11.859 12.2994 11.6667 12.0643 11.6667Z" fill="#81909F"/>
<path d="M12.0643 10.3419H7.93614C7.7011 10.3419 7.50879 10.5342 7.50879 10.7693C7.50879 11.0043 7.7011 11.1966 7.93614 11.1966H12.0643C12.2994 11.1966 12.4917 11.0043 12.4917 10.7693C12.4917 10.5342 12.2994 10.3419 12.0643 10.3419Z" fill="#81909F"/>
</svg>
