<svg id="tab-photo" width="22" height="18" viewBox="0 0 19 18"  xmlns="http://www.w3.org/2000/svg">
<path d="M15.5464 18H2.45552C1.80454 18 1.18021 17.7414 0.719896 17.2811C0.259579 16.8208 0.000976562 16.1964 0.000976562 15.5455V2.45455C0.000976562 1.80356 0.259579 1.17924 0.719896 0.718919C1.18021 0.258603 1.80454 0 2.45552 0H15.5464C16.1974 0 16.8217 0.258603 17.2821 0.718919C17.7424 1.17924 18.001 1.80356 18.001 2.45455V15.5455C18.001 16.1964 17.7424 16.8208 17.2821 17.2811C16.8217 17.7414 16.1974 18 15.5464 18ZM2.45552 1.63636C2.23853 1.63636 2.03042 1.72256 1.87698 1.876C1.72354 2.02944 1.63734 2.23755 1.63734 2.45455V15.5455C1.63734 15.7625 1.72354 15.9706 1.87698 16.124C2.03042 16.2774 2.23853 16.3636 2.45552 16.3636H15.5464C15.7634 16.3636 15.9715 16.2774 16.125 16.124C16.2784 15.9706 16.3646 15.7625 16.3646 15.5455V2.45455C16.3646 2.23755 16.2784 2.02944 16.125 1.876C15.9715 1.72256 15.7634 1.63636 15.5464 1.63636H2.45552Z" />
<path d="M0.818836 13.9091C0.656673 13.9092 0.498129 13.8612 0.363335 13.771C0.22854 13.6809 0.123575 13.5527 0.0617653 13.4028C-4.42199e-05 13.2529 -0.0159099 13.088 0.0161837 12.929C0.0482773 12.77 0.126882 12.6242 0.242018 12.51L2.69656 10.0555C2.84997 9.90332 3.05732 9.81803 3.27338 9.8182C3.49003 9.81911 3.69747 9.90592 3.8502 10.0596L5.72793 11.9332L10.8784 6.78684C10.9544 6.71077 11.0446 6.65042 11.1439 6.60924C11.2433 6.56807 11.3497 6.54688 11.4572 6.54688C11.5648 6.54688 11.6712 6.56807 11.7706 6.60924C11.8699 6.65042 11.9601 6.71077 12.0361 6.78684L17.7634 12.5141C17.9169 12.6676 18.0032 12.8759 18.0032 13.093C18.0032 13.3101 17.9169 13.5183 17.7634 13.6718C17.6099 13.8254 17.4016 13.9116 17.1845 13.9116C16.9674 13.9116 16.7592 13.8254 16.6057 13.6718L11.4552 8.52138L6.30475 13.6677C6.15201 13.8214 5.94457 13.9082 5.72793 13.9091C5.61996 13.9092 5.51305 13.8879 5.41335 13.8465C5.31365 13.8051 5.22313 13.7443 5.14702 13.6677L3.27338 11.7941L1.39565 13.6718C1.24225 13.824 1.03489 13.9093 0.818836 13.9091Z" />
<path d="M5.72785 7.36355C5.34929 7.36325 4.98254 7.2317 4.69008 6.99132C4.39763 6.75094 4.19757 6.4166 4.12399 6.04525C4.0504 5.67391 4.10785 5.28854 4.28654 4.9548C4.46522 4.62106 4.7541 4.3596 5.10394 4.21496C5.45379 4.07033 5.84296 4.05146 6.20516 4.16159C6.56735 4.27171 6.88016 4.50401 7.09028 4.81891C7.30041 5.1338 7.39486 5.51181 7.35753 5.88853C7.3202 6.26525 7.15342 6.61738 6.88558 6.88491C6.57694 7.18946 6.16144 7.36124 5.72785 7.36355Z" />
</svg>
