<svg width="80" height="80" viewBox="0 0 80 80" fill="none" xmlns="http://www.w3.org/2000/svg">
<circle cx="40" cy="40" r="39.5" fill="#32AD13" fill-opacity="0.1" stroke="#32AD13" stroke-dasharray="4 4"/>
<path d="M46.5455 49.0001H33.4545C32.8036 49.0001 32.1792 48.7415 31.7189 48.2812C31.2586 47.8209 31 47.1966 31 46.5456V43.682C31 43.465 31.0862 43.2568 31.2396 43.1034C31.3931 42.95 31.6012 42.8638 31.8182 42.8638C32.0352 42.8638 32.2433 42.95 32.3967 43.1034C32.5502 43.2568 32.6364 43.465 32.6364 43.682V46.5456C32.6364 46.7626 32.7226 46.9707 32.876 47.1241C33.0294 47.2776 33.2376 47.3638 33.4545 47.3638H46.5455C46.7625 47.3638 46.9706 47.2776 47.124 47.1241C47.2774 46.9707 47.3636 46.7626 47.3636 46.5456V43.682C47.3636 43.465 47.4498 43.2568 47.6033 43.1034C47.7567 42.95 47.9648 42.8638 48.1818 42.8638C48.3988 42.8638 48.6069 42.95 48.7604 43.1034C48.9138 43.2568 49 43.465 49 43.682V46.5456C49 47.1966 48.7414 47.8209 48.2811 48.2812C47.8208 48.7415 47.1964 49.0001 46.5455 49.0001Z" fill="#32AD13"/>
<path d="M39.9997 44.7824C39.8921 44.7814 39.7858 44.7592 39.6868 44.7171C39.5879 44.675 39.4982 44.6138 39.4229 44.537L35.4342 40.4461C35.3532 40.3706 35.2884 40.2794 35.2436 40.1781C35.1989 40.0769 35.1751 39.9676 35.1739 39.8568C35.1726 39.7461 35.1938 39.6363 35.2363 39.534C35.2787 39.4317 35.3414 39.3391 35.4207 39.2618C35.4999 39.1845 35.5941 39.1241 35.6974 39.0842C35.8007 39.0443 35.911 39.0258 36.0216 39.0298C36.1323 39.0338 36.241 39.0603 36.3411 39.1075C36.4413 39.1548 36.5308 39.2218 36.6042 39.3047L39.9997 42.8065L43.6079 39.2883C43.7652 39.1488 43.9702 39.0753 44.1803 39.0829C44.3904 39.0905 44.5895 39.1787 44.7363 39.3292C44.8831 39.4797 44.9664 39.681 44.9688 39.8912C44.9712 40.1014 44.8926 40.3045 44.7492 40.4583L40.556 44.5492C40.4071 44.695 40.2081 44.7784 39.9997 44.7824Z" fill="#32AD13"/>
<path d="M39.9998 44.7782C39.7828 44.7782 39.5747 44.692 39.4213 44.5385C39.2678 44.3851 39.1816 44.177 39.1816 43.96V31.8182C39.1816 31.6012 39.2678 31.3931 39.4213 31.2396C39.5747 31.0862 39.7828 31 39.9998 31C40.2168 31 40.4249 31.0862 40.5784 31.2396C40.7318 31.3931 40.818 31.6012 40.818 31.8182V43.96C40.818 44.177 40.7318 44.3851 40.5784 44.5385C40.4249 44.692 40.2168 44.7782 39.9998 44.7782Z" fill="#32AD13"/>
</svg>
