<svg id="tab-info" width="19" height="18" viewBox="0 0 19 18"  xmlns="http://www.w3.org/2000/svg">
<path d="M9.11864 14.3181C8.95697 14.3183 8.79888 14.2705 8.66434 14.1809C8.5298 14.0912 8.42483 13.9637 8.36268 13.8145C8.30053 13.6652 8.28399 13.5009 8.31514 13.3423C8.3463 13.1836 8.42375 13.0378 8.53773 12.9231C8.69419 12.7753 8.90131 12.6929 9.11659 12.6929C9.33187 12.6929 9.53899 12.7753 9.69545 12.9231C9.80919 13.0375 9.88656 13.183 9.91785 13.3413C9.94913 13.4995 9.93294 13.6635 9.87129 13.8126C9.80965 13.9617 9.70531 14.0892 9.57139 14.1792C9.43748 14.2691 9.27996 14.3175 9.11864 14.3181Z" />
<path d="M9.11847 11.4545C8.90148 11.4545 8.69337 11.3683 8.53993 11.2148C8.38649 11.0614 8.30029 10.8533 8.30029 10.6363V4.49994C8.30029 4.28295 8.38649 4.07484 8.53993 3.9214C8.69337 3.76796 8.90148 3.68176 9.11847 3.68176C9.33547 3.68176 9.54358 3.76796 9.69702 3.9214C9.85045 4.07484 9.93666 4.28295 9.93666 4.49994V10.6363C9.93666 10.8533 9.85045 11.0614 9.69702 11.2148C9.54358 11.3683 9.33547 11.4545 9.11847 11.4545Z" />
<path d="M9.11859 18C7.53879 18.0028 5.98631 17.5879 4.61859 16.7973L2.67132 17.6604C2.30385 17.8229 1.89439 17.8648 1.50164 17.7802C1.10888 17.6955 0.753004 17.4888 0.485016 17.1894C0.217027 16.8901 0.0506919 16.5136 0.00985432 16.1139C-0.0309833 15.7142 0.0557743 15.3119 0.257689 14.9645L1.21496 13.3282C0.266503 11.599 -0.0876992 9.60612 0.206818 7.65601C0.501336 5.7059 1.42827 3.90652 2.84508 2.53455C4.2619 1.16258 6.09015 0.293983 8.04872 0.0623177C10.0073 -0.169348 11.9877 0.248746 13.6855 1.25231C15.3833 2.25588 16.7045 3.78935 17.4458 5.61693C18.1872 7.44451 18.3077 9.46502 17.7888 11.3678C17.27 13.2705 16.1405 14.9502 14.574 16.1484C13.0075 17.3467 11.0908 17.9972 9.11859 18ZM4.69632 15.0586C4.85309 15.059 5.00645 15.1045 5.13814 15.1895C6.66797 16.1771 8.50835 16.5657 10.3068 16.2808C12.1053 15.9959 13.7355 15.0576 14.8852 13.6455C16.0349 12.2335 16.6234 10.4469 16.5378 8.62805C16.4523 6.80914 15.6988 5.08572 14.4216 3.78781C13.1444 2.4899 11.4334 1.70872 9.6161 1.59388C7.79882 1.47904 6.00303 2.0386 4.57264 3.16541C3.14225 4.29222 2.17779 5.90708 1.86395 7.70075C1.55012 9.49441 1.90897 11.3408 2.87178 12.8864C2.94823 13.0136 2.98862 13.1593 2.98862 13.3077C2.98862 13.4562 2.94823 13.6018 2.87178 13.7291L1.67314 15.7745C1.64463 15.8233 1.63236 15.8798 1.63813 15.936C1.6439 15.9921 1.66739 16.045 1.70521 16.0869C1.74304 16.1289 1.79322 16.1577 1.8485 16.1692C1.90378 16.1807 1.96129 16.1743 2.01269 16.1509L4.36496 15.1364C4.46874 15.0875 4.58164 15.061 4.69632 15.0586Z" />
</svg>
