<svg width="18" height="18" viewBox="0 0 18 18" fill="none" xmlns="http://www.w3.org/2000/svg">
<path d="M11.8017 12.7439C11.7197 12.8829 11.6388 13.0191 11.559 13.1523C14.3459 13.3605 16.3312 13.8987 16.3312 14.53C16.3312 15.3419 13.0489 16 9 16C4.95107 16 1.66875 15.3419 1.66875 14.53C1.66875 13.8987 3.6541 13.3604 6.44095 13.1522C6.36134 13.0193 6.28044 12.8832 6.19825 12.7439C2.6 13.0967 0 14.1096 0 15.305C0 16.7934 4.02944 18 9 18C13.9706 18 18 16.7934 18 15.305C18 14.1096 15.4 13.0967 11.8017 12.7439Z" fill="#32AD13"/>
<path d="M8.82119 14.29C8.84041 14.3199 8.86684 14.3445 8.89805 14.3615C8.92926 14.3786 8.96424 14.3875 8.9998 14.3875C9.03536 14.3875 9.07035 14.3786 9.10156 14.3615C9.13277 14.3445 9.15919 14.3199 9.17842 14.29C9.88142 13.2033 12.4627 9.12755 13.3557 6.51817C13.5655 5.92581 13.673 5.30206 13.6734 4.67365C13.6733 3.51791 13.2451 2.40319 12.4714 1.54461C11.6977 0.686036 10.6334 0.144476 9.48396 0.02445C9.16201 -0.00815 8.8376 -0.00815 8.51566 0.02445C7.36617 0.144473 6.30188 0.686032 5.5282 1.54461C4.75452 2.40318 4.3263 3.51791 4.32617 4.67365C4.32665 5.30206 4.4341 5.92581 4.64392 6.51817C5.5369 9.12755 8.1182 13.2033 8.82119 14.29ZM8.99979 2.25695C9.47777 2.25695 9.94501 2.39868 10.3424 2.66423C10.7399 2.92978 11.0496 3.30722 11.2325 3.74881C11.4155 4.19041 11.4633 4.67633 11.3701 5.14512C11.2768 5.61392 11.0467 6.04453 10.7087 6.38252C10.3707 6.7205 9.94007 6.95067 9.47128 7.04392C9.00248 7.13717 8.51656 7.08931 8.07497 6.9064C7.63337 6.72349 7.25593 6.41373 6.99038 6.01631C6.72483 5.61888 6.58309 5.15164 6.58309 4.67366C6.58309 4.35629 6.6456 4.04203 6.76705 3.74882C6.8885 3.45562 7.06651 3.1892 7.29092 2.96479C7.51534 2.74037 7.78175 2.56236 8.07496 2.44091C8.36817 2.31946 8.68243 2.25695 8.99979 2.25695H8.99979Z" fill="#32AD13"/>
</svg>
