<svg width="10" height="13" viewBox="0 0 10 13" fill="none" xmlns="http://www.w3.org/2000/svg">
<path d="M9.5 5C9.5 5.56275 9.23715 6.31744 8.77751 7.17979C8.32593 8.02703 7.71794 8.91746 7.10103 9.73417C6.48551 10.549 5.86882 11.2804 5.4054 11.8086C5.25111 11.9844 5.11405 12.1375 5 12.2633C4.88595 12.1375 4.74889 11.9844 4.5946 11.8086C4.13118 11.2804 3.51449 10.549 2.89897 9.73417C2.28206 8.91746 1.67407 8.02703 1.22249 7.17979C0.762845 6.31744 0.5 5.56275 0.5 5C0.5 2.51472 2.51472 0.5 5 0.5C7.48528 0.5 9.5 2.51472 9.5 5Z" stroke="#959DA4"/>
<circle cx="5" cy="5" r="1.5" stroke="#959DA4"/>
</svg>
