<svg id="tab-company" width="22" height="18" viewBox="0 0 14 18"  xmlns="http://www.w3.org/2000/svg">
<path d="M6.8288 13.6552C6.67348 13.6547 6.52399 13.596 6.40983 13.4907C6.20811 13.32 1.86328 9.26379 1.86328 4.96552C1.86328 3.64858 2.38643 2.38558 3.31765 1.45437C4.24886 0.523151 5.51186 0 6.8288 0C8.14574 0 9.40873 0.523151 10.3399 1.45437C11.2712 2.38558 11.7943 3.64858 11.7943 4.96552C11.7943 9.20793 7.44949 13.3169 7.25087 13.4876C7.1364 13.5948 6.98561 13.6546 6.8288 13.6552ZM6.8288 1.24138C5.8411 1.24138 4.89385 1.63374 4.19543 2.33215C3.49702 3.03057 3.10466 3.97781 3.10466 4.96552C3.10466 7.98828 5.77052 11.0607 6.8288 12.1562C7.88087 11.0483 10.5529 7.95103 10.5529 4.96552C10.5529 3.97781 10.1606 3.03057 9.46216 2.33215C8.76375 1.63374 7.8165 1.24138 6.8288 1.24138Z" />
<path d="M6.83062 7.13804C6.40096 7.13804 5.98094 7.01063 5.62369 6.77192C5.26644 6.53322 4.98799 6.19393 4.82357 5.79697C4.65914 5.40002 4.61612 4.96322 4.69995 4.54181C4.78377 4.1204 4.99067 3.73332 5.29449 3.4295C5.59831 3.12568 5.98539 2.91878 6.4068 2.83496C6.82821 2.75113 7.26501 2.79415 7.66196 2.95858C8.05892 3.123 8.39821 3.40145 8.63691 3.7587C8.87562 4.11595 9.00303 4.53596 9.00303 4.96563C9.00303 5.54179 8.77415 6.09435 8.36675 6.50176C7.95934 6.90916 7.40678 7.13804 6.83062 7.13804ZM6.83062 4.03459C6.64648 4.03459 6.46647 4.0892 6.31336 4.1915C6.16026 4.2938 6.04092 4.43921 5.97045 4.60934C5.89999 4.77946 5.88155 4.96666 5.91747 5.14726C5.9534 5.32787 6.04207 5.49376 6.17228 5.62397C6.30249 5.75418 6.46838 5.84285 6.64898 5.87877C6.82959 5.9147 7.01678 5.89626 7.18691 5.82579C7.35703 5.75532 7.50244 5.63599 7.60474 5.48288C7.70705 5.32977 7.76165 5.14977 7.76165 4.96563C7.76165 4.7187 7.66356 4.48189 7.48896 4.30729C7.31436 4.13268 7.07754 4.03459 6.83062 4.03459Z" />
<path d="M11.7931 17.9999H1.86207C1.36822 17.9999 0.894593 17.8037 0.545387 17.4545C0.196181 17.1053 0 16.6317 0 16.1378V6.2068C0 5.71294 0.196181 5.23932 0.545387 4.89011C0.894593 4.54091 1.36822 4.34473 1.86207 4.34473H2.48276C2.64738 4.34473 2.80525 4.41012 2.92165 4.52652C3.03805 4.64292 3.10345 4.8008 3.10345 4.96542C3.10345 5.13003 3.03805 5.28791 2.92165 5.40431C2.80525 5.52071 2.64738 5.58611 2.48276 5.58611H1.86207C1.69745 5.58611 1.53958 5.6515 1.42317 5.7679C1.30677 5.8843 1.24138 6.04218 1.24138 6.2068V16.1378C1.24138 16.3024 1.30677 16.4603 1.42317 16.5767C1.53958 16.6931 1.69745 16.7585 1.86207 16.7585H11.7931C11.9577 16.7585 12.1156 16.6931 12.232 16.5767C12.3484 16.4603 12.4138 16.3024 12.4138 16.1378V6.2068C12.4138 6.04218 12.3484 5.8843 12.232 5.7679C12.1156 5.6515 11.9577 5.58611 11.7931 5.58611H11.1724C11.0078 5.58611 10.8499 5.52071 10.7335 5.40431C10.6171 5.28791 10.5517 5.13003 10.5517 4.96542C10.5517 4.8008 10.6171 4.64292 10.7335 4.52652C10.8499 4.41012 11.0078 4.34473 11.1724 4.34473H11.7931C12.287 4.34473 12.7606 4.54091 13.1098 4.89011C13.459 5.23932 13.6552 5.71294 13.6552 6.2068V16.1378C13.6552 16.6317 13.459 17.1053 13.1098 17.4545C12.7606 17.8037 12.287 17.9999 11.7931 17.9999Z" />
</svg>
