<svg width="460" height="452" viewBox="0 0 460 452" fill="none" xmlns="http://www.w3.org/2000/svg">
<path d="M261.7 136.3C244.4 136.3 225.6 131.7 206.1 122.6C157 99.7 136.5 109.3 131.3 112.8C128.7 114.5 125.4 114.4 123 112.5C120.6 110.6 119.6 107.4 120.7 104.5C141 48.2 165 15.5 193.8 4.59997C214.5 -3.30003 237.4 -0.200027 263.6 14C318 43.5 346.3 37.1 346.6 37C348.6 36.5 350.8 37.1 352.3 38.5C353.8 40 354.5 42.1 354.1 44.1C345.9 84.9 327.4 113.6 300.5 127.2C288.7 133.3 275.6 136.3 261.7 136.3ZM152 95.5C165.9 95.5 185.2 99.3 211.2 111.4C243 126.3 271.9 128 294.9 116.4C316.6 105.5 332.1 82.6 340.2 50C326.8 50.4 299 47.3 257.7 24.8C234.8 12.4 215.3 9.49997 198.1 16C174.7 24.9 154.5 51.5 136.4 97.3C140.7 96.2 145.8 95.5 152 95.5Z" fill="#51C569"/>
<path d="M126.8 113.8C125.6 113.8 124.4 113.5 123.4 112.8C120.6 110.9 119.8 107.1 121.7 104.3C123.6 101.5 169.8 35.2 279.1 62.3C282.4 63.1 284.4 66.4 283.6 69.7C282.8 73 279.4 75 276.2 74.2C175.2 49.1 132.4 110.5 132 111.1C130.7 112.8 128.8 113.8 126.8 113.8Z" fill="#51C569"/>
<path d="M348.3 443.8C346.8 443.8 345.4 443.3 344.2 442.3C313 414.8 297.4 384.4 299.1 354.3C300.8 324.7 318.5 297.2 350.5 274.9C394.6 244.1 396.8 221.5 396.4 215.3C396.2 212.2 398 209.4 400.9 208.3C403.8 207.1 407.1 208 409.1 210.3C447.5 256 463.7 292.9 458.8 323.3C455.3 345.2 441.2 363.4 415.7 379C362.3 411.8 354.3 439 354.2 439.3C353.6 441.3 352.1 443 350 443.6C349.5 443.7 348.9 443.8 348.3 443.8ZM407.1 227.2C403.4 240.7 391.6 261.1 357.5 284.9C328.8 305 312.8 329.2 311.4 354.9C310 379.1 322.1 404 346.2 427.3C352.7 415.5 369.2 393 409.2 368.4C431.4 354.8 443.7 339.3 446.6 321.2C450.7 296.5 437.7 265.7 407.1 227.2Z" fill="#51C569"/>
<path d="M361.8 370.2C360.3 370.2 358.7 369.6 357.5 368.5C355.1 366.1 355 362.3 357.3 359.8C429.5 284.8 397.8 217.4 397.5 216.7C396 213.7 397.3 210 400.3 208.5C403.3 207 407 208.3 408.5 211.3C410 214.4 444.2 287.2 366.1 368.3C365 369.5 363.4 370.2 361.8 370.2Z" fill="#51C569"/>
<path d="M118.1 412.3C88.2 412.3 65.8 406 50.3 393.3C33.2 379.3 24.5 358 23.7 328.2C22 266.3 2.4 245 2.2 244.8C0.799999 243.3 0.199999 241.1 0.699999 239.1C1.2 237.1 2.7 235.4 4.7 234.7C44.1 221.4 78.3 223.1 103.5 239.6C128.3 255.8 143.2 285 146.6 323.8C150.9 373.9 167.3 388.7 174.1 392.7C176.9 394.4 178.4 397.6 177.8 400.8C177.2 404 174.6 406.6 171.4 407.2C151.3 410.6 133.7 412.3 118.1 412.3ZM16.4 243.9C23.4 255.4 34.6 280.9 35.9 327.9C36.6 353.9 43.8 372.2 58 383.8C77.4 399.7 110.6 403.9 159.3 396.6C149.3 386.5 137.7 366.1 134.2 324.8C131.2 289.9 118.2 263.9 96.6 249.8C76.3 236.6 48.7 234.6 16.4 243.9Z" fill="#51C569"/>
<path d="M171.5 405.7C171.4 405.7 171.2 405.7 171.1 405.7C167.8 405.5 88.8 398.9 57.6 290.7C56.7 287.4 58.5 284 61.8 283.1C65.1 282.2 68.5 284 69.4 287.3C98.2 387.3 171.2 393.4 171.9 393.5C175.3 393.7 177.8 396.7 177.6 400C177.4 403.2 174.7 405.7 171.5 405.7Z" fill="#51C569"/>
<path d="M32.1 212.5C31.8 212.5 31.4 212.5 31.1 212.4C27.8 211.8 25.5 208.7 26.1 205.3C34.8 153.2 62.6 106.6 104.3 73.9C107 71.8 110.8 72.3 112.9 74.9C115 77.6 114.5 81.4 111.9 83.5C72.6 114.3 46.5 158.2 38.3 207.2C37.6 210.4 35 212.5 32.1 212.5Z" fill="#51C569"/>
<path d="M437.4 217.9C434.4 217.9 431.8 215.7 431.3 212.6C424.4 163.4 399.4 118.8 361 87C358.4 84.8 358 81 360.2 78.4C362.3 75.8 366.2 75.4 368.8 77.6C409.6 111.4 436.2 158.7 443.5 211C444 214.4 441.6 217.5 438.3 217.9C437.9 217.9 437.6 217.9 437.4 217.9Z" fill="#51C569"/>
<path d="M234.3 451.7C233.2 451.7 232.2 451.7 231.1 451.7C204.9 451.3 179.3 446.1 155 436.3C151.9 435 150.3 431.4 151.6 428.3C152.9 425.2 156.4 423.6 159.6 424.9C182.5 434.2 206.6 439 231.3 439.4C256.1 439.8 280.5 435.6 303.8 426.9C307 425.7 310.5 427.3 311.7 430.5C312.9 433.7 311.3 437.2 308.1 438.4C284.4 447.2 259.6 451.7 234.3 451.7Z" fill="#51C569"/>
<path d="M106.4 153.4C105.1 153.4 103.9 153 102.8 152.2C100.1 150.2 99.5 146.4 101.5 143.6C104.6 139.3 108 135.1 111.5 131.2C113.8 128.7 117.6 128.4 120.2 130.7C122.7 132.9 123 136.8 120.7 139.4C117.4 143.1 114.3 146.9 111.4 150.9C110.1 152.5 108.3 153.4 106.4 153.4Z" fill="#51C569"/>
<path d="M89.4 182.8C88.6 182.8 87.7 182.6 86.9 182.3C83.8 180.9 82.4 177.3 83.7 174.2C86.1 168.8 88.7 163.5 91.7 158.4C93.4 155.5 97.1 154.5 100.1 156.1C103 157.8 104.1 161.5 102.4 164.5C99.7 169.2 97.2 174.1 95 179.1C94.1 181.4 91.8 182.8 89.4 182.8Z" fill="#51C569"/>
<path d="M79.5 213.6C79.1 213.6 78.6 213.6 78.2 213.5C74.9 212.8 72.8 209.5 73.5 206.2C74.6 201 76 195.8 77.6 190.8C78.6 187.6 82.1 185.8 85.3 186.8C88.5 187.8 90.3 191.3 89.3 194.5C87.8 199.2 86.6 204 85.5 208.8C84.9 211.6 82.4 213.6 79.5 213.6Z" fill="#51C569"/>
<path d="M384.5 196.6C381.9 196.6 379.5 195 378.7 192.4C377.2 187.8 375.4 183.2 373.4 178.6C372 175.5 373.4 171.9 376.5 170.5C379.6 169.1 383.2 170.5 384.6 173.6C386.8 178.5 388.7 183.5 390.4 188.5C391.5 191.7 389.7 195.2 386.5 196.3C385.8 196.5 385.2 196.6 384.5 196.6Z" fill="#51C569"/>
<path d="M371.2 167.2C369.1 167.2 367 166.1 365.9 164.1C363.2 159.4 360.2 154.8 356.9 150.4C354.9 147.7 355.5 143.8 358.2 141.8C360.9 139.8 364.8 140.4 366.8 143.1C370.3 147.8 373.5 152.8 376.5 157.9C378.2 160.8 377.2 164.6 374.3 166.3C373.3 166.9 372.3 167.2 371.2 167.2Z" fill="#51C569"/>
<path d="M351.1 139.8C349.4 139.8 347.8 139.1 346.6 137.8C343.3 134.2 339.8 130.7 336.1 127.4C333.6 125.1 333.4 121.2 335.7 118.7C338 116.2 341.9 116 344.4 118.3C348.3 121.8 352.1 125.6 355.7 129.5C358 132 357.8 135.9 355.3 138.2C354.1 139.3 352.6 139.8 351.1 139.8Z" fill="#51C569"/>
<path d="M217.6 403.9C217.4 403.9 217.2 403.9 216.9 403.9C211.7 403.3 206.4 402.5 201.2 401.5C197.9 400.8 195.7 397.6 196.4 394.3C197.1 391 200.3 388.8 203.6 389.5C208.5 390.5 213.4 391.3 218.2 391.8C221.6 392.2 224 395.2 223.7 398.6C223.4 401.6 220.7 403.9 217.6 403.9Z" fill="#51C569"/>
<path d="M234.6 404.8C231.2 404.8 228.5 402.1 228.5 398.7C228.5 395.3 231.2 392.6 234.6 392.5C240 392.5 245.5 392.2 250.9 391.6C254.3 391.2 257.3 393.7 257.7 397C258.1 400.4 255.6 403.4 252.3 403.8C246.4 404.5 240.5 404.8 234.6 404.8Z" fill="#51C569"/>
<path d="M268.4 401.1C265.6 401.1 263 399.2 262.4 396.3C261.7 393 263.8 389.7 267.1 389C271.9 387.9 276.7 386.6 281.3 385.1C284.5 384.1 288 385.8 289 389C290 392.2 288.3 395.7 285.1 396.7C280.1 398.3 274.9 399.7 269.7 400.9C269.2 401.1 268.8 401.1 268.4 401.1Z" fill="#51C569"/>
</svg>
