<svg width="20" height="20" viewBox="0 0 20 20" fill="none" xmlns="http://www.w3.org/2000/svg">
<g clip-path="url(#clip0)">
<path d="M16.667 14.4119L15.818 13.9033C15.5592 13.7485 15.2631 13.6668 14.9615 13.6667H13.6839C13.4223 13.6662 13.1619 13.6999 12.909 13.7666L9.05936 14.8C8.63847 14.9162 8.30041 15.2297 8.15295 15.6406L4.76688 13.8088C4.49231 13.6525 4.17085 13.5994 3.86063 13.659C3.74361 13.6797 3.63016 13.717 3.52356 13.7697C3.28283 13.8849 3.08313 14.0711 2.95097 14.3031C2.83541 14.505 2.7747 14.7337 2.7747 14.9663C2.77112 15.4412 3.02274 15.8814 3.43355 16.1193L9.50224 19.7503C9.76591 19.9136 10.0696 20 10.3797 20H15.0763C15.2861 20.0002 15.4939 19.9605 15.6889 19.8833L16.667 19.4971V20H20.0003V13.3333H16.667V14.4119ZM15.444 19.2633C15.3273 19.3094 15.2028 19.3332 15.0773 19.3333H10.3797C10.1919 19.3332 10.0078 19.2803 9.84859 19.1807L3.7716 15.5454C3.56506 15.4261 3.4386 15.2051 3.44022 14.9666C3.44071 14.8498 3.47147 14.7349 3.52958 14.6333C3.59599 14.5182 3.69592 14.4259 3.81587 14.369C3.86877 14.3433 3.92476 14.325 3.98254 14.3149C4.0247 14.3071 4.0675 14.3031 4.11031 14.3031C4.22489 14.3027 4.33752 14.3327 4.43697 14.3897L8.10868 16.3737C8.11291 16.394 8.11291 16.4141 8.11828 16.4344C8.27616 17.0163 8.80399 17.4204 9.40702 17.4211C9.59257 17.4041 9.77632 17.3713 9.95634 17.3231L13.4196 16.3963L13.2477 15.7523L9.79569 16.675C9.64367 16.71 9.44755 16.75 9.40702 16.7534C9.10591 16.7539 8.84192 16.5527 8.76265 16.2624C8.75191 16.222 8.74556 16.1807 8.74328 16.139C8.74328 16.139 8.74068 16.0583 8.74328 16.03C8.76867 15.7511 8.96399 15.5171 9.23368 15.4421L13.0817 14.4126C13.2781 14.36 13.4806 14.3333 13.6839 14.3333H14.9615C15.1425 14.3333 15.3201 14.3825 15.4752 14.4754L16.667 15.189V18.78L15.444 19.2633ZM17.3336 14H19.3336V19.3333H17.3336V14Z" fill="#81909F"/>
<path d="M13.748 2.66639L11.96 0.878462C11.3986 0.313846 10.6348 -0.00256016 9.83871 -0.000281509H5.64795C5.38932 4.40119e-05 5.13428 0.0604281 4.90267 0.175663L4.1556 0.549361C4.00586 0.624719 3.83952 0.660689 3.67204 0.654015L3.33333 0.642134V-0.000281509H0V7.33305H3.33333V6.33305H3.90007L4.10173 6.46635C4.66602 6.84103 5.32308 7.05262 6 7.07736V11.3331H20V2.66639H13.748ZM2.66667 6.66639H0.666667V0.666385H2.66667V6.66639ZM4.4707 5.91167L4.09994 5.66639H3.33333V1.30913L3.64762 1.32036C3.92676 1.33029 4.20378 1.27023 4.45361 1.14571L5.20003 0.772017C5.33903 0.702518 5.49251 0.666385 5.64795 0.666385H9.83871C10.4578 0.664595 11.0521 0.910689 11.4886 1.34965L12.8053 2.66639H10.0547L9.24561 1.85747L8.77441 2.32866L11.1291 4.68348C11.3906 4.94389 11.3914 5.36707 11.131 5.62879C10.8704 5.89034 10.4473 5.89116 10.1857 5.63074L8.21908 3.66411L7.98568 3.86414C7.34131 4.41134 6.39941 4.42534 5.73893 3.89734L5.54574 3.74077L5.12565 4.25867L5.32096 4.41704C5.52523 4.58029 5.75456 4.70952 6 4.79969V6.41036C5.45443 6.38611 4.92562 6.21375 4.4707 5.91167ZM9.2124 5.59965L9.71533 6.10275C10.2375 6.61707 11.0757 6.61788 11.5986 6.10437C11.1094 6.86202 11.3024 7.87032 12.0369 8.3936C12.7715 8.91687 13.7876 8.7699 14.3438 8.0601C14.8999 7.35014 14.7995 6.32833 14.1156 5.74044C13.4318 5.15255 12.4064 5.20642 11.7881 5.86267C12.0158 5.50509 12.0565 5.05945 11.8973 4.66639H16.361C16.5044 5.50509 17.1613 6.16199 18 6.30538V7.69406C17.1613 7.83745 16.5044 8.49435 16.361 9.33305H9.639C9.49561 8.49435 8.83871 7.83745 8 7.69406V6.30538C8.4764 6.22514 8.90723 5.97433 9.2124 5.59965ZM12 6.99972C12 6.44747 12.4478 5.99972 13 5.99972C13.5522 5.99972 14 6.44747 14 6.99972C14 7.55197 13.5522 7.99972 13 7.99972C12.4478 7.99972 12 7.55197 12 6.99972ZM19.3333 10.6664H6.66667V4.93933C7.19515 4.97905 7.72201 4.84428 8.16667 4.55603L8.73535 5.12472C8.48519 5.46456 8.08871 5.66557 7.66667 5.66639H7.33333V8.33305H7.66667C8.403 8.33305 9 8.93006 9 9.66639V9.99972H17V9.66639C17 8.93006 17.597 8.33305 18.3333 8.33305H18.6667V5.66639H18.3333C17.597 5.66639 17 5.06938 17 4.33305V3.99972H11.388L10.7214 3.33305H19.3333V10.6664Z" fill="#81909F"/>
</g>
<defs>
<clipPath id="clip0">
<rect width="20" height="20" fill="white"/>
</clipPath>
</defs>
</svg>
