<svg width="14" height="14" viewBox="0 0 14 14" fill="none" xmlns="http://www.w3.org/2000/svg">
<path d="M13.6962 6.3445C13.9717 6.06419 14.069 5.65278 13.9502 5.27035C13.831 4.88791 13.5207 4.61491 13.1394 4.55698L9.74965 4.04287C9.60528 4.02092 9.48053 3.92641 9.41605 3.78976L7.90057 0.583979C7.73041 0.223782 7.38504 -6.1199e-05 7.00014 -6.11904e-05C6.61552 -6.11819e-05 6.27015 0.223782 6.09999 0.583979L4.58423 3.79006C4.51975 3.9267 4.39472 4.02122 4.25035 4.04316L0.860564 4.55727C0.479592 4.61491 0.168983 4.88821 0.0498411 5.27064C-0.0690201 5.65308 0.0282555 6.06448 0.303823 6.3448L2.75646 8.84013C2.86102 8.94664 2.90896 9.09997 2.88429 9.24978L2.30568 12.7733C2.25438 13.0835 2.33231 13.3852 2.52462 13.6231C2.82346 13.9938 3.34516 14.1067 3.76229 13.8779L6.79381 12.2142C6.92052 12.1448 7.08003 12.1454 7.20646 12.2142L10.2383 13.8779C10.3857 13.959 10.543 13.9999 10.7053 13.9999C11.0016 13.9999 11.2825 13.8624 11.4757 13.6231C11.6682 13.3852 11.7459 13.0829 11.6946 12.7733L11.1157 9.24978C11.091 9.09967 11.139 8.94664 11.2435 8.84013L13.6962 6.3445Z" fill="#51C569"/>
</svg>
