<svg width="14" height="14" viewBox="0 0 14 14" fill="none" xmlns="http://www.w3.org/2000/svg">
<path d="M13.6962 6.34481C13.9717 6.06449 14.069 5.65309 13.9502 5.27065C13.831 4.88822 13.5207 4.61522 13.1394 4.55728L9.74965 4.04317C9.60528 4.02123 9.48053 3.92672 9.41605 3.79007L7.90057 0.584284C7.73041 0.224087 7.38504 0.000243977 7.00014 0.000243985C6.61552 0.000243994 6.27015 0.224087 6.09999 0.584284L4.58423 3.79036C4.51975 3.92701 4.39472 4.02152 4.25035 4.04347L0.860564 4.55757C0.479592 4.61522 0.168983 4.88851 0.0498411 5.27095C-0.0690201 5.65338 0.0282555 6.06478 0.303823 6.3451L2.75646 8.84044C2.86102 8.94695 2.90896 9.10027 2.88429 9.25009L2.30568 12.7736C2.25438 13.0838 2.33231 13.3855 2.52462 13.6234C2.82346 13.9941 3.34516 14.107 3.76229 13.8782L6.79381 12.2145C6.92052 12.1451 7.08003 12.1457 7.20646 12.2145L10.2383 13.8782C10.3857 13.9593 10.543 14.0002 10.7053 14.0002C11.0016 14.0002 11.2825 13.8627 11.4757 13.6234C11.6682 13.3855 11.7459 13.0832 11.6946 12.7736L11.1157 9.25009C11.091 9.09998 11.139 8.94695 11.2435 8.84044L13.6962 6.34481Z" fill="#E5E5E5"/>
</svg>
