<svg width="140" height="140" viewBox="0 0 140 140" fill="none" xmlns="http://www.w3.org/2000/svg">
<g opacity="0.05">
<path d="M119.498 90.5023C111.873 82.8784 102.799 77.2343 92.8974 73.8177C103.502 66.5139 110.469 54.2905 110.469 40.4688C110.469 18.1543 92.3144 0 70 0C47.6856 0 29.5312 18.1543 29.5312 40.4688C29.5312 54.2905 36.4982 66.5139 47.1029 73.8177C37.2017 77.2343 28.1269 82.8784 20.5026 90.5023C7.28137 103.724 0 121.302 0 140H10.9375C10.9375 107.433 37.4328 80.9375 70 80.9375C102.567 80.9375 129.062 107.433 129.062 140H140C140 121.302 132.719 103.724 119.498 90.5023ZM70 70C53.7165 70 40.4688 56.7525 40.4688 40.4688C40.4688 24.185 53.7165 10.9375 70 10.9375C86.2835 10.9375 99.5312 24.185 99.5312 40.4688C99.5312 56.7525 86.2835 70 70 70Z" fill="#32AD13"/>
</g>
</svg>
