<svg width="59" height="60" viewBox="0 0 59 60" fill="none" xmlns="http://www.w3.org/2000/svg">
<path d="M42.039 58.9226H28.4117C27.7977 58.9226 27.2999 58.4249 27.2999 57.8108V54.9375C27.2999 54.3236 27.7977 53.8257 28.4117 53.8257H42.0389C42.6529 53.8257 43.1507 54.3236 43.1507 54.9375V57.8108C43.1508 58.4249 42.653 58.9226 42.039 58.9226Z" fill="#E5ECF7"/>
<path d="M42.039 56.8484H28.4117C27.7977 56.8484 27.2999 56.3506 27.2999 55.7366V57.8109C27.2999 58.4248 27.7977 58.9226 28.4117 58.9226H42.0389C42.6529 58.9226 43.1507 58.4248 43.1507 57.8109V55.7366C43.1508 56.3506 42.653 56.8484 42.039 56.8484Z" fill="#51C569"/>
<path d="M2.65039 22.6189C1.69579 22.6189 0.921875 21.845 0.921875 20.8904V3.49482C0.921875 2.54021 1.69579 1.7663 2.65039 1.7663H56.3497C57.3043 1.7663 58.0782 2.54021 58.0782 3.49482V20.8904C58.0782 21.845 57.3043 22.6189 56.3497 22.6189H2.65039Z" fill="#F7F9FC"/>
<path d="M56.3497 20.5447H2.65039C1.69579 20.5447 0.921875 19.7708 0.921875 18.8162V20.8904C0.921875 21.845 1.69579 22.6189 2.65039 22.6189H56.3497C57.3043 22.6189 58.0782 21.845 58.0782 20.8904V18.8162C58.0782 19.7708 57.3043 20.5447 56.3497 20.5447Z" fill="#81909F"/>
<path d="M45.8494 6.58907L44.9493 8.41277C44.8058 8.70351 44.5285 8.90505 44.2075 8.95172L42.1949 9.24418C41.3869 9.36161 41.0642 10.3547 41.649 10.9246L43.1053 12.3442C43.3375 12.5705 43.4435 12.8967 43.3887 13.2162L43.0449 15.2207C42.9069 16.0255 43.7517 16.6392 44.4744 16.2593L46.2745 15.3129C46.5615 15.1619 46.9044 15.1619 47.1914 15.3129L48.9915 16.2593C49.7142 16.6394 50.559 16.0255 50.421 15.2207L50.0772 13.2162C50.0224 12.8967 50.1284 12.5705 50.3606 12.3442L51.8169 10.9246C52.4016 10.3547 52.079 9.36161 51.2709 9.24418L49.2584 8.95172C48.9374 8.90505 48.6601 8.70351 48.5166 8.41277L47.6166 6.58907C47.255 5.85687 46.2109 5.85687 45.8494 6.58907Z" fill="#FFE07D"/>
<path d="M50.3674 14.9084L47.1913 13.2387C46.9043 13.0878 46.5615 13.0878 46.2744 13.2387L43.0983 14.9084L43.0447 15.2207C42.9067 16.0255 43.7515 16.6393 44.4742 16.2593L46.2743 15.3129C46.5613 15.1619 46.9042 15.1619 47.1912 15.3129L48.9913 16.2593C49.714 16.6394 50.5588 16.0255 50.4208 15.2207L50.3674 14.9084Z" fill="#FFD064"/>
<path d="M41.6343 53.8258V50.7811C41.6343 50.7811 44.8645 47.3744 44.8645 39.4507V34.1717C44.8645 32.9604 43.8826 31.9785 42.6712 31.9785C41.4599 31.9785 40.4779 32.9604 40.4779 34.1717V32.6648C40.4779 31.4534 39.496 30.4715 38.2847 30.4715C37.0733 30.4715 36.0914 31.4534 36.0914 32.6648V31.158C36.0914 29.9466 35.1095 28.9647 33.8982 28.9647C32.6868 28.9647 31.7049 29.9466 31.7049 31.158V21.3392C31.7049 20.1278 30.723 19.1459 29.5117 19.1459C28.3003 19.1459 27.3184 20.1278 27.3184 21.3392V40.9441H27.2856L23.7564 36.9889C22.6519 35.751 21.0716 35.0431 19.4126 35.0431C18.5579 35.0431 18.0145 35.9576 18.4231 36.7083L21.865 43.0313C22.6742 44.5177 23.7105 45.8686 24.9365 47.0352L28.873 50.7811V53.8258H41.6343Z" fill="#F0C69E"/>
<path d="M28.8733 51.7515H41.6344V53.8257H28.8733V51.7515Z" fill="#E6BA94"/>
<path d="M28.6168 6.58907L27.7167 8.41277C27.5733 8.70351 27.2959 8.90505 26.975 8.95172L24.9624 9.24418C24.1544 9.36161 23.8316 10.3547 24.4164 10.9246L25.8728 12.3442C26.105 12.5705 26.211 12.8967 26.1561 13.2162L25.8124 15.2207C25.6743 16.0255 26.5191 16.6392 27.2419 16.2593L29.0419 15.3129C29.329 15.1619 29.6718 15.1619 29.9589 15.3129L31.759 16.2593C32.4817 16.6394 33.3265 16.0255 33.1884 15.2207L32.8447 13.2162C32.7898 12.8967 32.8959 12.5705 33.1281 12.3442L34.5844 10.9246C35.1691 10.3547 34.8464 9.36161 34.0384 9.24418L32.0258 8.95172C31.7049 8.90505 31.4275 8.70351 31.2841 8.41277L30.3841 6.58907C30.0225 5.85687 28.9783 5.85687 28.6168 6.58907Z" fill="#FFE07D"/>
<path d="M33.1349 14.9084L29.9589 13.2387C29.6719 13.0878 29.329 13.0878 29.042 13.2387L25.8659 14.9084L25.8123 15.2207C25.6743 16.0255 26.519 16.6393 27.2418 16.2593L29.0419 15.3129C29.3289 15.1619 29.6718 15.1619 29.9588 15.3129L31.7589 16.2593C32.4816 16.6394 33.3264 16.0255 33.1884 15.2207L33.1349 14.9084Z" fill="#FFD064"/>
<path d="M11.3844 6.58907L10.4843 8.41277C10.3409 8.70351 10.0634 8.90505 9.74256 8.95172L7.72998 9.24418C6.92196 9.36161 6.59919 10.3547 7.184 10.9246L8.64034 12.3442C8.87254 12.5705 8.97844 12.8967 8.9237 13.2162L8.57996 15.2207C8.4419 16.0255 9.28669 16.6392 10.0094 16.2593L11.8095 15.3129C12.0966 15.1619 12.4394 15.1619 12.7264 15.3129L14.5265 16.2593C15.2493 16.6394 16.0941 16.0255 15.956 15.2207L15.6123 13.2162C15.5574 12.8967 15.6634 12.5705 15.8956 12.3442L17.352 10.9246C17.9367 10.3547 17.614 9.36161 16.806 9.24418L14.7934 8.95172C14.4725 8.90505 14.1951 8.70351 14.0516 8.41277L13.1515 6.58907C12.7901 5.85687 11.7458 5.85687 11.3844 6.58907Z" fill="#FFE07D"/>
<path d="M15.9023 14.9084L12.7262 13.2387C12.4392 13.0878 12.0964 13.0878 11.8093 13.2387L8.63323 14.9084L8.57965 15.2207C8.4416 16.0255 9.28638 16.6393 10.0091 16.2593L11.8092 15.3129C12.0963 15.1619 12.4391 15.1619 12.7261 15.3129L14.5262 16.2593C15.249 16.6394 16.0937 16.0255 15.9557 15.2207L15.9023 14.9084Z" fill="#FFD064"/>
<path d="M56.4023 0.844421H44.9094C44.431 0.844421 44.0434 1.23207 44.0434 1.71041C44.0434 2.18875 44.431 2.5764 44.9094 2.5764H56.4023C56.8798 2.5764 57.2683 2.96485 57.2683 3.44239V20.872C57.2683 21.3495 56.8798 21.738 56.4023 21.738H32.5753V21.3216C32.5753 19.6323 31.201 18.2581 29.5118 18.2581C27.8226 18.2581 26.4483 19.6324 26.4483 21.3216V21.738H17.6272C17.149 21.738 16.7612 22.1256 16.7612 22.6039C16.7612 23.0823 17.149 23.4699 17.6272 23.4699H26.4483V38.7307L24.3915 36.4255C23.1218 35.0026 21.3 34.1865 19.3931 34.1865C18.6824 34.1865 18.0414 34.5512 17.6783 35.1622C17.3152 35.7732 17.3013 36.5107 17.641 37.1349L21.0898 43.4704C21.9447 45.0409 23.0352 46.4626 24.3309 47.6955L28.0062 51.1925V53.0475C27.1072 53.2343 26.4298 54.0323 26.4298 54.9859V57.8648C26.4298 58.9565 27.3179 59.8447 28.4096 59.8447H42.0634C43.1551 59.8447 44.0434 58.9565 44.0434 57.8648V54.9859C44.0434 54.053 43.394 53.2707 42.5241 53.0623V51.1373C43.3134 50.1417 45.7606 46.4878 45.7606 39.4688V34.1795C45.7606 32.4903 44.3863 31.1161 42.6971 31.1161C42.1325 31.1161 41.6032 31.2696 41.1484 31.537C40.6971 30.4069 39.5913 29.6063 38.3019 29.6063C37.7374 29.6063 37.2081 29.7598 36.7534 30.0272C36.302 28.8971 35.1962 28.0965 33.9069 28.0965C33.4299 28.0965 32.9781 28.206 32.5752 28.4013V23.4702H56.4022C57.8346 23.4702 59 22.3047 59 20.8723V3.44227C59.0001 2.00979 57.8348 0.844421 56.4023 0.844421V0.844421ZM33.907 29.828C34.6413 29.828 35.2386 30.4254 35.2386 31.1596V32.6696C35.2386 33.1479 35.6263 33.5356 36.1046 33.5356C36.583 33.5356 36.9706 33.1479 36.9706 32.6696C36.9706 31.9353 37.568 31.3379 38.3023 31.3379C39.0364 31.3379 39.6338 31.9353 39.6338 32.6696V34.1794C39.6338 34.6577 40.0214 35.0454 40.4998 35.0454C40.9781 35.0454 41.3658 34.6577 41.3658 34.1794C41.3658 33.4451 41.9632 32.8478 42.6974 32.8478C43.4317 32.8478 44.0291 33.4451 44.0291 34.1794V39.4686C44.0291 46.9084 41.0571 50.1963 41.0301 50.2253C40.8775 50.3861 40.7925 50.5994 40.7925 50.8211V53.0058H38.7004C38.2221 53.0058 37.8344 53.3935 37.8344 53.8718C37.8344 54.3502 38.2221 54.7378 38.7004 54.7378H42.0635C42.2003 54.7378 42.3116 54.8491 42.3116 54.9859V57.8648C42.3116 58.0016 42.2003 58.1128 42.0635 58.1128H28.4096C28.2728 58.1128 28.1616 58.0016 28.1616 57.8648V54.9859C28.1616 54.8491 28.2728 54.7378 28.4096 54.7378H35.2366C35.7149 54.7378 36.1026 54.3502 36.1026 53.8718C36.1026 53.3935 35.7149 53.0058 35.2366 53.0058H29.7381V50.8211C29.7381 50.5839 29.6409 50.3573 29.4691 50.1938L25.5247 46.4407C24.3598 45.3322 23.3795 44.0543 22.6109 42.6422L19.1621 36.3067C19.0807 36.0882 19.162 35.9512 19.393 35.9183C20.8069 35.9183 22.1577 36.5232 23.099 37.5783L26.635 41.5412C27.1367 42.1315 28.2041 41.755 28.1799 40.9647V21.3216C28.1799 20.5873 28.7773 19.99 29.5116 19.99C30.2458 19.99 30.8431 20.5873 30.8431 21.3216V31.1596C30.8431 31.638 31.2308 32.0256 31.7091 32.0256C32.1875 32.0256 32.5751 31.638 32.5751 31.1596C32.5753 30.4254 33.1727 29.828 33.907 29.828Z" fill="#34495E"/>
<path d="M14.1634 21.7378H2.59785C2.12032 21.7378 1.73186 21.3494 1.73186 20.8718V3.44227C1.73186 2.96474 2.12032 2.57628 2.59785 2.57628H41.4455C41.9238 2.57628 42.3115 2.18863 42.3115 1.71029C42.3115 1.23196 41.9238 0.844421 41.4455 0.844421H2.59785C1.16537 0.844421 0 2.00979 0 3.44227V20.8718C0 22.3042 1.16537 23.4697 2.59785 23.4697H14.1634C14.6416 23.4697 15.0294 23.0821 15.0294 22.6037C15.0294 22.1254 14.6417 21.7378 14.1634 21.7378Z" fill="#34495E"/>
<path d="M35.1987 11.5066C35.7075 11.0107 35.8872 10.2829 35.6676 9.60719C35.4481 8.93145 34.8748 8.44816 34.1716 8.34595L32.1554 8.05302C32.1159 8.04726 32.0816 8.02248 32.0639 7.98665L31.1621 6.15949C30.8477 5.52236 30.211 5.12653 29.5004 5.12653C28.7898 5.12653 28.1531 5.52224 27.8386 6.15949L26.9368 7.98676C26.919 8.02248 26.8849 8.04738 26.8456 8.05302L24.8289 8.34595C24.1257 8.44816 23.5525 8.93145 23.333 9.60719C23.1135 10.2829 23.2932 11.0107 23.8019 11.5066L25.2611 12.9291C25.2897 12.9569 25.3027 12.9969 25.2959 13.0363L24.9515 15.0446C24.8314 15.7448 25.1139 16.4393 25.6886 16.8569C26.2634 17.2747 27.0113 17.3287 27.6403 16.9981L29.4439 16.0498C29.4792 16.0312 29.5213 16.0312 29.5566 16.0498L31.3604 16.9981C31.6339 17.1418 31.9299 17.2129 32.2244 17.2129C32.607 17.2129 32.9871 17.0929 33.312 16.8569C33.8867 16.4393 34.1691 15.7448 34.0489 15.0446L33.7046 13.0363C33.6978 12.997 33.7108 12.9569 33.7394 12.9291L35.1987 11.5066ZM32.5306 11.689C32.0937 12.1148 31.8945 12.728 31.9977 13.3292L32.3422 15.3377C32.3455 15.358 32.3548 15.4119 32.2939 15.456C32.2332 15.5003 32.1843 15.4747 32.1662 15.4653L30.3627 14.5171C30.0926 14.375 29.7965 14.3041 29.5003 14.3041C29.2041 14.3041 28.908 14.3751 28.638 14.517L26.8344 15.4653C26.8162 15.4747 26.7677 15.5005 26.7066 15.456C26.6457 15.4118 26.6549 15.3579 26.6585 15.3376L27.0029 13.3292C27.106 12.7279 26.9068 12.1147 26.4699 11.689L25.0108 10.2667C24.9961 10.2523 24.9569 10.214 24.9801 10.1425C25.0033 10.0708 25.0576 10.0628 25.0779 10.0599L27.0946 9.76702C27.6983 9.67921 28.2198 9.30009 28.4897 8.7533L29.3915 6.92614C29.4006 6.90759 29.4248 6.85862 29.5001 6.85862C29.5755 6.85862 29.5996 6.90771 29.6088 6.92614L30.5106 8.75319C30.7804 9.30021 31.3021 9.67921 31.906 9.76714L33.9224 10.0601C33.9428 10.0631 33.9971 10.0709 34.0202 10.1426C34.0435 10.2141 34.0043 10.2524 33.9896 10.2668L32.5306 11.689Z" fill="#34495E"/>
<path d="M16.7829 15.0447L16.4385 13.0364C16.4317 12.9971 16.4447 12.957 16.4734 12.9291L17.9325 11.5067C18.4413 11.0108 18.6209 10.283 18.4014 9.60725C18.1819 8.93152 17.6087 8.44822 16.9054 8.34601L14.889 8.05308C14.8495 8.04732 14.8154 8.02255 14.7977 7.98671L13.8958 6.15955C13.5814 5.52242 12.9447 5.12659 12.2341 5.12659C11.5236 5.12659 10.8868 5.5223 10.5724 6.15955L9.67064 7.98671C9.65289 8.02255 9.61867 8.04732 9.57937 8.05308L7.56277 8.34601C6.85961 8.44822 6.28643 8.93152 6.06691 9.60725C5.84739 10.283 6.02704 11.0108 6.5358 11.5067L7.99501 12.9291C8.02359 12.957 8.03661 12.997 8.02981 13.0364L7.68538 15.0447C7.5653 15.745 7.84774 16.4395 8.42253 16.857C8.99744 17.2748 9.7452 17.3287 10.3741 16.9982L12.1778 16.0499C12.2131 16.0313 12.2552 16.0313 12.2906 16.0499L14.0944 16.9982C14.3679 17.1419 14.6639 17.213 14.9584 17.213C15.341 17.213 15.7211 17.093 16.046 16.857C16.6206 16.4394 16.903 15.7449 16.7829 15.0447ZM15.2646 11.6888C14.8276 12.1146 14.6284 12.7278 14.7315 13.3291L15.076 15.3375C15.0794 15.3578 15.0887 15.4117 15.0278 15.456C14.9669 15.5005 14.9183 15.4746 14.9001 15.4652L13.0964 14.5169C12.8265 14.375 12.5303 14.3041 12.2341 14.3041C11.938 14.3041 11.6417 14.3751 11.3718 14.5169L9.56831 15.4652C9.5501 15.4746 9.50159 15.5003 9.44063 15.456C9.37967 15.4118 9.38889 15.3578 9.39246 15.3375L9.7369 13.3291C9.84004 12.7278 9.64079 12.1146 9.20394 11.689L7.74484 10.2665C7.73009 10.2521 7.69091 10.2138 7.71407 10.1423C7.73735 10.0706 7.79163 10.0627 7.81191 10.0598L9.82863 9.76685C10.4322 9.67904 10.9538 9.30004 11.2238 8.75313L12.1256 6.92597C12.1347 6.90742 12.1589 6.85845 12.2343 6.85845C12.3096 6.85845 12.3338 6.90754 12.3429 6.92597L13.2448 8.75302C13.5146 9.30004 14.0361 9.67904 14.64 9.76697L16.6565 10.0599C16.6769 10.0629 16.7311 10.0707 16.7543 10.1424C16.7776 10.214 16.7384 10.2522 16.7237 10.2666L15.2646 11.6888Z" fill="#34495E"/>
<path d="M52.4651 11.5066C52.9738 11.0107 53.1536 10.2829 52.934 9.60719C52.7144 8.93145 52.1411 8.44816 51.438 8.34595L49.4217 8.05302C49.3821 8.04726 49.348 8.02248 49.3302 7.98665L48.4284 6.15949C48.1139 5.52236 47.4773 5.12653 46.7667 5.12653C46.0562 5.12653 45.4194 5.52224 45.1049 6.15949L44.2032 7.98653C44.1853 8.02237 44.1512 8.04726 44.1118 8.05302L42.0952 8.34595C41.3919 8.44816 40.8189 8.93145 40.5994 9.60731C40.3798 10.283 40.5596 11.0109 41.0682 11.5066L42.5275 12.9291C42.5559 12.9569 42.5691 12.9969 42.5622 13.0363L42.2179 15.0446C42.0978 15.7449 42.3802 16.4394 42.955 16.8571C43.5295 17.2748 44.2774 17.3288 44.9065 16.9982L46.7101 16.05C46.7453 16.0315 46.7877 16.0313 46.8228 16.05L48.6266 16.9982C48.9002 17.1419 49.1961 17.213 49.4906 17.213C49.8732 17.213 50.2534 17.0931 50.5782 16.8571C51.1529 16.4394 51.4353 15.7449 51.3151 15.0448L50.9708 13.0365C50.964 12.9972 50.977 12.9571 51.0056 12.9292L52.4651 11.5066ZM49.7969 11.689C49.3601 12.1148 49.1608 12.728 49.2641 13.3292L49.6085 15.3377C49.6119 15.358 49.6212 15.4119 49.5602 15.456C49.4995 15.5003 49.4506 15.4747 49.4326 15.4653L47.629 14.5171C47.359 14.375 47.0629 14.3041 46.7667 14.3041C46.4706 14.3041 46.1743 14.3751 45.9043 14.517L44.1006 15.4653C44.0827 15.4747 44.034 15.5004 43.9731 15.456C43.9122 15.4119 43.9215 15.358 43.9249 15.3376L44.2691 13.3295C44.3724 12.7282 44.1732 12.1149 43.7364 11.689L42.2773 10.2664C42.2627 10.2522 42.2234 10.2139 42.2466 10.1423C42.27 10.0707 42.3242 10.0627 42.3445 10.0598L44.3612 9.7669C44.9647 9.6791 45.4861 9.30009 45.7563 8.75319L46.6582 6.92603C46.6673 6.90748 46.6916 6.8585 46.7668 6.8585C46.8421 6.8585 46.8663 6.90759 46.8754 6.92603L47.7772 8.75307C48.047 9.30009 48.5686 9.6791 49.1726 9.76702L51.189 10.0599C51.2094 10.0629 51.2636 10.0708 51.2868 10.1425C51.3102 10.214 51.2709 10.2523 51.2561 10.2667L49.7969 11.689Z" fill="#34495E"/>
</svg>
