<svg width="137" height="135" viewBox="0 0 137 135" fill="none" xmlns="http://www.w3.org/2000/svg">
<path opacity="0.5" d="M46 93.8V105.2H90V119.2H46V140H20V119.2H0V105.2H20V0H77.6C96.2667 0 110.8 4 121.2 12C131.733 20 137 31.6667 137 47C137 62.2 131.733 73.8 121.2 81.8C110.8 89.8 96.2667 93.8 77.6 93.8H46ZM110.8 47.2C110.8 39.0667 107.933 32.8667 102.2 28.6C96.4667 24.2 88.2 22 77.4 22H46V72.8H77.4C88.0667 72.8 96.2667 70.6 102 66.2C107.867 61.6667 110.8 55.3333 110.8 47.2Z" fill="#E9EEF2"/>
</svg>
