<svg id="tab-star" width="19" height="18" viewBox="0 0 19 18"  xmlns="http://www.w3.org/2000/svg">
<path d="M13.7327 18C13.3829 17.9988 13.0388 17.9114 12.7308 17.7454L9.49955 16.0169C9.43045 15.9809 9.35369 15.9621 9.27578 15.9621C9.19788 15.9621 9.12111 15.9809 9.05201 16.0169L5.79609 17.7003C5.44388 17.8832 5.04744 17.9637 4.65177 17.9327C4.25611 17.9017 3.87707 17.7603 3.55768 17.5247C3.23828 17.2892 2.99134 16.9687 2.84486 16.5999C2.69839 16.231 2.65826 15.8285 2.72903 15.438L3.37365 11.8289C3.38472 11.7547 3.37823 11.6788 3.3547 11.6075C3.33117 11.5362 3.29125 11.4714 3.23815 11.4183L0.630948 8.83988C0.349012 8.56138 0.150669 8.20951 0.0583722 7.82411C-0.0339249 7.43871 -0.0164906 7.03517 0.108702 6.65916C0.233895 6.28315 0.461846 5.9497 0.766752 5.69655C1.07166 5.4434 1.44134 5.28066 1.83396 5.22675L5.46352 4.72584C5.54114 4.71487 5.61494 4.68523 5.67859 4.63946C5.74224 4.59369 5.79383 4.53316 5.82894 4.46307L7.47127 1.1784C7.6456 0.824232 7.91577 0.526061 8.25109 0.317759C8.5864 0.109458 8.97342 -0.000622908 9.36816 2.32308e-05C9.76789 -0.00185196 10.1599 0.109833 10.4986 0.322079C10.8374 0.534325 11.1088 0.838404 11.2815 1.19893L12.8787 4.48359C12.9126 4.55415 12.9632 4.61535 13.0262 4.66187C13.0892 4.70838 13.1626 4.7388 13.24 4.75047L16.8613 5.30476C17.2538 5.364 17.6217 5.53208 17.9235 5.7899C18.2252 6.04773 18.4486 6.38499 18.5683 6.76339C18.688 7.14179 18.6993 7.54617 18.6007 7.93063C18.5022 8.31509 18.2979 8.66424 18.0109 8.93842L15.3709 11.4758C15.3173 11.5287 15.2768 11.5934 15.2526 11.6646C15.2284 11.7359 15.2211 11.8118 15.2313 11.8864L15.8266 15.5037C15.8806 15.8095 15.8669 16.1234 15.7866 16.4234C15.7063 16.7233 15.5612 17.0021 15.3616 17.24C15.1621 17.4779 14.9128 17.6693 14.6314 17.8006C14.35 17.9319 14.0432 17.9999 13.7327 18ZM9.26962 14.3376C9.61909 14.3373 9.96321 14.4234 10.2714 14.5881L13.5027 16.3166C13.5821 16.3596 13.672 16.3794 13.7621 16.3737C13.8522 16.3679 13.9388 16.3369 14.0121 16.2842C14.0854 16.2315 14.1424 16.1592 14.1764 16.0756C14.2105 15.992 14.2204 15.9005 14.2048 15.8116L13.6095 12.1944C13.5538 11.8544 13.5815 11.5061 13.6902 11.1792C13.7989 10.8524 13.9854 10.5568 14.2336 10.318L16.8777 7.76826C16.9424 7.70599 16.9883 7.62686 17.0103 7.53983C17.0322 7.4528 17.0294 7.36136 17.002 7.27587C16.9746 7.19038 16.9239 7.11427 16.8555 7.05616C16.7871 6.99805 16.7037 6.96027 16.615 6.9471L12.9936 6.39281C12.6555 6.33725 12.3359 6.20068 12.0621 5.99476C11.7882 5.78885 11.5683 5.5197 11.4211 5.21033L9.82391 1.92566C9.78476 1.844 9.72332 1.77507 9.64667 1.72682C9.57003 1.67857 9.48131 1.65297 9.39075 1.65297C9.30018 1.65297 9.21146 1.67857 9.13482 1.72682C9.05818 1.77507 8.99674 1.844 8.95758 1.92566L7.31525 5.21033C7.15432 5.51782 6.92045 5.78116 6.63413 5.97729C6.34781 6.17342 6.01777 6.29635 5.67291 6.33532L2.04336 6.83624C1.95389 6.84813 1.86959 6.88499 1.80011 6.94259C1.73063 7.00018 1.67877 7.07618 1.65049 7.16189C1.62221 7.24759 1.61864 7.33953 1.6402 7.42717C1.66175 7.5148 1.70756 7.5946 1.77237 7.6574L4.38779 10.2318C4.63315 10.4737 4.81595 10.7716 4.92039 11.1C5.02483 11.4283 5.04777 11.7771 4.98724 12.1163L4.34262 15.7254C4.32744 15.814 4.33722 15.9051 4.37087 15.9885C4.40452 16.0719 4.46071 16.1442 4.53315 16.1975C4.60559 16.2508 4.69143 16.2828 4.78105 16.2901C4.87067 16.2973 4.96055 16.2795 5.04061 16.2386L8.29654 14.5552C8.59902 14.4064 8.93258 14.3318 9.26962 14.3376Z"/>
</svg>
