<svg width="18" height="18" viewBox="0 0 18 18" fill="none" xmlns="http://www.w3.org/2000/svg">
<path d="M9 0C4.03834 0 0 4.03834 0 9C0 13.9616 4.03834 18 9 18C13.9617 18 18 13.9616 18 9C18 4.03834 13.9617 0 9 0ZM9 1.5C13.151 1.5 16.5 4.84902 16.5 9C16.5 13.151 13.151 16.5 9 16.5C4.84901 16.5 1.5 13.151 1.5 9C1.5 4.84902 4.84901 1.5 9 1.5ZM9 3C8.5858 3 8.25 3.3358 8.25 3.75V9C8.25 9.41422 8.5858 9.75 9 9.75H13.75C14.1642 9.75 14.5 9.41422 14.5 9C14.5 8.5858 14.1642 8.25 13.75 8.25H9.75V3.75C9.75 3.3358 9.41422 3 9 3Z" fill="#32AD13"/>
</svg>
