<svg width="20" height="20" viewBox="0 0 20 20" fill="none" xmlns="http://www.w3.org/2000/svg">
<g clip-path="url(#clip0)">
<path d="M18.8604 15.1025C18.445 14.8101 17.9656 14.6531 17.4814 14.6275C15.6564 13.4324 14.4609 12.5354 13.7629 11.8374L11.6189 9.69337L12.92 8.237C13.1666 8.37618 13.4314 8.4679 13.6963 8.50573C13.8962 8.53903 14.0295 8.53903 14.1627 8.53903C14.4293 8.53903 14.4959 8.53903 14.7624 8.77223C14.6292 8.87218 14.5625 9.03878 14.5625 9.20534C14.5625 9.37189 14.6292 9.57183 14.7624 9.70509L15.9285 10.8712C16.0951 11.0711 16.3616 11.171 16.6282 11.171C16.8947 11.171 17.1612 11.0711 17.3278 10.8379L19.6933 8.47239C19.8932 8.30579 19.9932 8.03928 19.9932 7.77274C19.9932 7.50619 19.8932 7.27299 19.6933 7.07309L18.5272 5.90699C18.394 5.77374 18.2274 5.70709 18.0608 5.70709C17.8942 5.70709 17.7276 5.80704 17.5943 5.90699C17.3278 5.67379 17.3278 5.60714 17.3278 5.3406C17.3278 5.20734 17.3278 5.04075 17.2612 4.84085C17.1945 4.3744 16.9613 3.908 16.5948 3.5415L15.3954 2.3421C14.6958 1.64245 14.3626 1.3093 13.4631 0.909502C11.5307 0.0099536 9.56501 0.17655 6.69977 1.4759C6.53318 1.54254 6.46657 1.6758 6.49987 1.84239C6.53318 2.00899 6.66647 2.10894 6.83303 2.10894H7.26613C8.73207 2.10894 9.49833 2.10894 10.831 3.44159C11.4146 4.02513 11.4314 4.91987 10.9086 5.57817C10.8381 5.58879 10.7844 5.62042 10.7311 5.67379L9.25111 7.32562L8.13237 6.20688C6.90276 4.97726 6.03788 3.8139 5.37224 2.5185C5.33729 1.86301 5.07426 1.24972 4.60083 0.776288C4.03447 0.209931 3.23487 -0.0566145 2.43527 0.0100318C2.33532 0.0433353 2.23537 0.109982 2.20207 0.176628C2.13542 0.276578 2.13542 0.409831 2.20207 0.509781L3.13492 2.17562C2.93502 2.60873 2.46858 2.87527 2.00217 2.84197L1.03598 1.24273C1.00267 1.14278 0.86938 1.07614 0.76943 1.07614C0.66948 1.04283 0.56953 1.10944 0.502884 1.20939C-0.296715 2.40879 0.00313481 4.00799 1.20253 4.84089C1.61576 5.13605 2.08131 5.30019 2.55279 5.33384C2.55806 5.33607 2.56302 5.3388 2.56849 5.34064C3.86784 6.00698 5.03393 6.87319 6.26663 8.10593L7.48512 9.2967L0.402973 17.2014C0.136427 17.4679 0.00317383 17.8344 0.00317383 18.2009C0.00317383 18.5674 0.136427 18.9005 0.402973 19.1671L0.869419 19.6335C1.13596 19.8667 1.46912 20 1.80227 20C2.13542 20 2.50192 19.8668 2.76847 19.6002L9.84253 11.6818L11.8972 13.7365C12.5962 14.4355 13.4947 15.6666 14.6924 17.4629C14.7354 18.1041 14.9978 18.7028 15.4621 19.1671C15.9618 19.6668 16.6282 19.9334 17.3278 19.9334C17.4278 19.9334 17.5277 19.9334 17.5944 19.9334C17.6943 19.9334 17.7943 19.8667 17.8609 19.7668C17.9276 19.6668 17.9276 19.5336 17.8609 19.4336L16.8947 17.8011C17.1279 17.368 17.5611 17.1015 18.0608 17.1348L18.9937 18.734C19.027 18.8339 19.1603 18.9006 19.2602 18.9006C19.3935 18.8673 19.4934 18.8339 19.5601 18.734C20.3596 17.5346 20.0264 15.9354 18.8604 15.1025ZM11.2642 2.90858C10.1981 1.87577 9.39846 1.54258 8.49891 1.44263C10.398 0.842934 11.7973 0.876238 13.1966 1.50928C13.9961 1.84243 14.2627 2.10898 14.9623 2.80863L16.1617 4.00802C16.4283 4.27457 16.5948 4.60772 16.6282 4.94088C16.6615 5.10747 16.6615 5.24073 16.6615 5.34068C16.6615 5.70717 16.6948 5.97368 17.0946 6.37348C17.2278 6.50673 17.4277 6.57338 17.5943 6.57338C17.7942 6.57338 17.9608 6.50673 18.0608 6.37348L19.2269 7.53957C19.2935 7.60622 19.3268 7.67283 19.3268 7.77278C19.3268 7.87273 19.2935 7.93937 19.2269 8.00598L16.8614 10.3715C16.7281 10.5047 16.5282 10.5047 16.3949 10.3715L15.2289 9.20538C15.3621 9.10543 15.4288 8.93883 15.3954 8.73893C15.3954 8.57234 15.3288 8.37244 15.1955 8.23918C14.7957 7.83938 14.5292 7.80608 14.1627 7.80608C14.0628 7.80608 13.9295 7.80608 13.7629 7.77278C13.3964 7.73947 13.0966 7.57288 12.8301 7.30633L11.3975 5.87373C12.1304 4.97422 12.0638 3.70818 11.2642 2.90858ZM0.802772 2.10898L1.50242 3.30838C1.56907 3.40833 1.66902 3.47497 1.76897 3.47497H1.93556C2.70186 3.50828 3.40151 3.10848 3.73466 2.44217L3.80131 2.27557C3.86795 2.17562 3.86795 2.07567 3.80131 1.97572L3.06831 0.70968C3.46811 0.776327 3.83461 0.976226 4.13446 1.27608C4.47796 1.64819 4.69789 2.11882 4.71089 2.62434C4.70445 2.65 4.70082 2.6776 4.70082 2.70872C4.70082 2.86301 4.68219 3.01352 4.64772 3.15861C4.52204 3.64102 4.22067 4.06163 3.80127 4.34126C3.13492 4.77436 2.23537 4.77436 1.56907 4.30795C0.869419 3.80813 0.569569 2.90858 0.802772 2.10898ZM6.73312 7.63952C5.73362 6.60672 4.73412 5.80712 3.66797 5.17408C3.83457 5.10743 4.03447 5.00748 4.20103 4.90753C4.70078 4.57438 5.03393 4.14124 5.23383 3.60819C5.86683 4.67433 6.66643 5.67383 7.66593 6.67333L8.81028 7.81768L7.91287 8.81932L6.73312 7.63952ZM2.30202 19.1004C2.03547 19.367 1.60237 19.4003 1.33583 19.1338L0.86938 18.7006C0.736126 18.5674 0.66948 18.4008 0.66948 18.2342C0.66948 18.0343 0.736126 17.8677 0.902683 17.7012L1.09138 17.49L1.56903 17.9677C1.63567 18.0343 1.70228 18.0676 1.80223 18.0676C1.90218 18.0676 1.96883 18.0343 2.03543 17.9677C2.16869 17.8344 2.16869 17.6345 2.03543 17.5013L1.53163 16.9974L1.97191 16.5048L2.50188 17.0348C2.56853 17.1015 2.63513 17.1348 2.73508 17.1348C2.83503 17.1348 2.90168 17.1015 2.96829 17.0348C3.10154 16.9016 3.10154 16.7017 2.96829 16.5684L2.41224 16.0123L10.9819 6.42439L12.3812 7.82369L11.0063 9.36194C10.967 9.37857 10.9323 9.40399 10.8977 9.43862L9.56505 10.9379C9.52699 10.9759 9.5002 11.0195 9.48388 11.0653L2.30202 19.1004ZM10.2984 11.1715L11.2102 10.1509L13.3631 12.3039C13.9628 12.9369 14.9956 13.7365 16.4949 14.736C16.295 14.8026 16.0951 14.9026 15.8952 15.0358C15.4818 15.2942 15.1891 15.6528 14.9851 16.0494C14.9821 16.055 14.9793 16.0608 14.9763 16.0665C14.9642 16.0904 14.9524 16.1143 14.9409 16.1385C14.9245 16.1726 14.9089 16.2072 14.8939 16.2421C14.8837 16.2657 14.8735 16.2893 14.8639 16.3131C14.8625 16.3165 14.8612 16.32 14.8598 16.3234C14.8493 16.3495 14.8389 16.3756 14.8291 16.4018C14.6398 16.1242 14.4578 15.8623 14.2826 15.6156L14.7291 15.1691C14.8624 15.0358 14.8624 14.8359 14.7291 14.7027C14.5958 14.5694 14.3959 14.5694 14.2627 14.7027L13.8912 15.0741C13.7528 14.8862 13.6191 14.709 13.4901 14.5424L13.7962 14.2362C13.9295 14.103 13.9295 13.9031 13.7962 13.7698C13.663 13.6365 13.4631 13.6365 13.3298 13.7698L13.0755 14.0241C12.8306 13.729 12.6047 13.4778 12.397 13.27L10.2984 11.1715ZM19.2268 17.8344L18.5272 16.635C18.4605 16.5351 18.3606 16.4684 18.2606 16.4684H18.0941C17.3278 16.4018 16.6281 16.8349 16.295 17.5012L16.2283 17.6678C16.1617 17.7678 16.1617 17.8677 16.2283 17.9677L16.9613 19.2337C16.5615 19.1671 16.195 18.9672 15.8951 18.6673C15.5581 18.3022 15.3403 17.8423 15.3198 17.3478C15.3255 17.3234 15.3287 17.2973 15.3287 17.268C15.3287 16.846 15.4627 16.4508 15.6962 16.1161C15.8397 15.9164 16.0192 15.7416 16.2283 15.6022C16.5614 15.369 16.9279 15.2691 17.3277 15.2691C17.7275 15.2691 18.1273 15.4023 18.4605 15.6355C19.1602 16.1353 19.4601 17.0348 19.2268 17.8344Z" fill="#81909F"/>
</g>
<defs>
<clipPath id="clip0">
<rect width="20" height="20" fill="white"/>
</clipPath>
</defs>
</svg>
