<svg id="tab-info" width="19" height="18" viewBox="0 0 19 18"  xmlns="http://www.w3.org/2000/svg">
<path d="M15.6476 15.072C16.8274 13.7803 17.6053 12.1728 17.886 10.446C18.1668 8.71927 17.9383 6.94812 17.2285 5.34916C16.5187 3.7502 15.3583 2.39273 13.8893 1.44275C12.4203 0.492769 10.7062 -0.00854488 8.95683 0.000110207C7.20742 0.0087653 5.49845 0.527014 4.03889 1.49148C2.57933 2.45595 1.43244 3.82483 0.738488 5.43074C0.0445305 7.03665 -0.166425 8.80997 0.13142 10.5339C0.429264 12.2578 1.223 13.8575 2.41556 15.1375C3.25781 16.0407 4.27692 16.7609 5.40949 17.2534C6.54205 17.7459 7.76383 18 8.99883 18C10.2338 18 11.4556 17.7459 12.5882 17.2534C13.7207 16.7609 14.7398 16.0407 15.5821 15.1375L15.6476 15.072ZM9.00701 1.63542C10.3548 1.63764 11.6761 2.00968 12.8271 2.711C13.978 3.41232 14.9145 4.41603 15.5344 5.61279C16.1543 6.80956 16.4339 8.1535 16.3427 9.4982C16.2516 10.8429 15.7932 12.1368 15.0175 13.239C14.1403 12.3015 13.0557 11.5826 11.8506 11.14C12.4441 10.5766 12.855 9.84826 13.0302 9.04896C13.2054 8.24966 13.137 7.41618 12.8337 6.65618C12.5304 5.89618 12.0062 5.24459 11.3288 4.78556C10.6514 4.32654 9.85189 4.08118 9.03361 4.08118C8.21532 4.08118 7.41584 4.32654 6.73843 4.78556C6.06102 5.24459 5.53681 5.89618 5.23351 6.65618C4.93021 7.41618 4.86177 8.24966 5.03701 9.04896C5.21226 9.84826 5.62314 10.5766 6.21659 11.14C4.99788 11.588 3.90276 12.3185 3.02111 13.2717C2.23748 12.1711 1.77171 10.8761 1.67478 9.52855C1.57784 8.18095 1.85347 6.83266 2.47151 5.63122C3.08955 4.42979 4.02617 3.42152 5.17887 2.71675C6.33158 2.01199 7.65594 1.6379 9.00701 1.63542ZM6.58074 8.18186C6.58074 7.69632 6.72471 7.22169 6.99446 6.81798C7.26421 6.41427 7.64762 6.09962 8.0962 5.91381C8.54477 5.72801 9.03838 5.67939 9.51458 5.77411C9.99079 5.86884 10.4282 6.10265 10.7715 6.44597C11.1149 6.7893 11.3487 7.22672 11.4434 7.70293C11.5381 8.17914 11.4895 8.67274 11.3037 9.12132C11.1179 9.56989 10.8032 9.9533 10.3995 10.223C9.99582 10.4928 9.52119 10.6368 9.03565 10.6368C8.38457 10.6368 7.76015 10.3781 7.29976 9.91775C6.83938 9.45736 6.58074 8.83294 6.58074 8.18186ZM4.12582 14.4951C4.73812 13.7967 5.49201 13.2366 6.33742 12.852C7.18283 12.4674 8.10041 12.2671 9.02919 12.2644C9.95797 12.2617 10.8767 12.4566 11.7243 12.8363C12.572 13.216 13.3291 13.7717 13.9455 14.4664C12.6034 15.6874 10.8556 16.3664 9.04117 16.3717C7.22676 16.377 5.47505 15.7082 4.12582 14.4951Z" />
</svg>
