<svg width="63" height="81" viewBox="0 0 63 81" fill="none" xmlns="http://www.w3.org/2000/svg">
<path d="M56.6871 57.1166C56.4885 57.1164 56.2934 57.0651 56.1203 56.9677C55.9473 56.8703 55.8023 56.73 55.6992 56.5603C55.5961 56.3906 55.5384 56.1972 55.5317 55.9988C55.5249 55.8003 55.5694 55.6035 55.6607 55.4272C56.1849 54.4135 56.6385 53.4461 57.0493 52.4718C57.1721 52.196 57.3979 51.9792 57.6784 51.8675C57.959 51.7559 58.272 51.7583 58.5508 51.8743C58.8295 51.9903 59.0519 52.2106 59.1705 52.4883C59.2891 52.7659 59.2944 53.079 59.1854 53.3605C58.7561 54.395 58.277 55.4191 57.7216 56.4917C57.6235 56.6811 57.4749 56.8397 57.2924 56.9499C57.1098 57.0602 56.9004 57.1179 56.6871 57.1166Z" fill="#34495E"/>
<path d="M31.2544 81C31.0732 80.9997 30.8945 80.9574 30.7325 80.8762C11.4893 71.1643 0 54.8729 0 37.2948V13.8858C5.84575e-05 13.724 0.0340748 13.5639 0.0998501 13.416C0.165625 13.2681 0.261696 13.1357 0.381856 13.0272C0.502377 12.9193 0.644008 12.8375 0.79778 12.7871C0.951552 12.7367 1.11411 12.7188 1.27517 12.7345C12.7181 13.9125 22.5075 9.76526 30.368 0.412097C30.4755 0.284406 30.6093 0.181477 30.7603 0.110371C30.9113 0.0392657 31.0759 0.00166717 31.2428 0.000155015C31.41 -0.00260082 31.5757 0.0314181 31.7283 0.0998042C31.8808 0.16819 32.0165 0.269272 32.1257 0.395897C39.0303 8.29338 48.8718 12.4417 61.3782 12.7287C61.6805 12.7357 61.968 12.8606 62.1793 13.0769C62.3906 13.2931 62.5088 13.5835 62.5087 13.8858V32.9439C62.5087 33.2508 62.3868 33.5452 62.1698 33.7622C61.9528 33.9792 61.6585 34.1011 61.3516 34.1011C61.0447 34.1011 60.7504 33.9792 60.5334 33.7622C60.3164 33.5452 60.1945 33.2508 60.1945 32.9439V15.0083C48.0641 14.5049 38.3465 10.4376 31.2752 2.90342C23.3372 11.8365 13.6045 15.9467 2.31428 15.1483V37.2948C2.31428 53.8234 13.1208 69.2076 31.2544 78.5434C39.0748 74.6327 45.9389 69.049 51.3597 62.1884C51.452 62.0676 51.5672 61.9663 51.6987 61.8901C51.8302 61.8138 51.9754 61.7643 52.126 61.7442C52.2767 61.7241 52.4298 61.7339 52.5767 61.7729C52.7235 61.812 52.8613 61.8797 52.982 61.972C53.1027 62.0643 53.2041 62.1795 53.2803 62.311C53.3565 62.4425 53.4061 62.5877 53.4262 62.7383C53.4463 62.889 53.4365 63.0421 53.3974 63.189C53.3583 63.3358 53.2907 63.4736 53.1984 63.5943C47.4393 70.8839 40.119 76.7893 31.7762 80.8762C31.6142 80.9574 31.4356 80.9997 31.2544 81Z" fill="#34495E"/>
<path d="M60.5542 46.3089C60.4764 46.3094 60.3988 46.3016 60.3227 46.2857C60.0219 46.2257 59.7572 46.0486 59.5868 45.7934C59.4165 45.5382 59.3545 45.2258 59.4144 44.9249C59.6458 43.8014 59.8217 42.6535 59.9559 41.5114C59.9709 41.3583 60.0162 41.2096 60.0893 41.0742C60.1624 40.9389 60.2617 40.8194 60.3815 40.7229C60.5013 40.6263 60.6391 40.5546 60.7869 40.512C60.9348 40.4694 61.0896 40.4566 61.2424 40.4746C61.3952 40.4925 61.5429 40.5407 61.6769 40.6164C61.8108 40.6921 61.9283 40.7937 62.0225 40.9154C62.1167 41.037 62.1857 41.1762 62.2254 41.3249C62.2652 41.4735 62.2749 41.6286 62.254 41.781C62.1128 42.9844 61.9208 44.1948 61.6835 45.3785C61.6313 45.64 61.4904 45.8754 61.2846 46.0449C61.0788 46.2144 60.8208 46.3077 60.5542 46.3089Z" fill="#34495E"/>
<path d="M31.2544 73.4254C31.0557 73.4254 30.8603 73.374 30.6874 73.2761C15.5844 64.7873 6.56909 51.3876 6.56909 37.4302V20.5255C6.56879 20.2274 6.68353 19.9407 6.8894 19.7252C7.09527 19.5096 7.37638 19.3818 7.67416 19.3684C16.256 18.9962 24.4085 15.5113 30.6075 9.56508C30.8147 9.37297 31.0849 9.26327 31.3673 9.25666C31.6498 9.25006 31.9249 9.347 32.1407 9.52921C38.6284 14.8448 46.5616 18.0917 54.9144 18.85C55.1967 18.8821 55.4574 19.0169 55.6467 19.2288C55.8359 19.4407 55.9406 19.7149 55.9408 19.999V37.429C55.9408 51.3865 46.9244 64.7873 31.8214 73.2761C31.6484 73.374 31.4531 73.4254 31.2544 73.4254ZM8.88337 21.6167V37.4302C8.88337 50.3659 17.2333 62.8503 31.2544 70.9329C45.2766 62.8479 53.6265 50.3612 53.6265 37.4256V21.0219C45.5313 20.1037 37.8485 16.9612 31.4303 11.943C25.2138 17.6073 17.2719 21.0148 8.88337 21.6167Z" fill="#34495E"/>
<path d="M26.1988 50.8125C25.892 50.8124 25.5977 50.6905 25.3807 50.4735L18.8649 43.9576C18.6541 43.7394 18.5374 43.4471 18.5401 43.1437C18.5427 42.8403 18.6644 42.55 18.879 42.3355C19.0935 42.121 19.3837 41.9993 19.6871 41.9966C19.9905 41.994 20.2828 42.1106 20.5011 42.3214L26.1988 48.0215L42.0077 32.2091C42.1151 32.1016 42.2427 32.0163 42.3831 31.9581C42.5235 31.8999 42.674 31.8699 42.8259 31.8699C42.9779 31.8698 43.1285 31.8997 43.2689 31.9578C43.4093 32.0159 43.5369 32.1011 43.6445 32.2086C43.752 32.316 43.8373 32.4436 43.8955 32.584C43.9537 32.7244 43.9837 32.8749 43.9837 33.0268C43.9838 33.1788 43.9539 33.3293 43.8958 33.4698C43.8377 33.6102 43.7525 33.7378 43.645 33.8453L27.0169 50.4735C26.8 50.6905 26.5057 50.8124 26.1988 50.8125Z" fill="#51C569"/>
</svg>
