<svg width="59" height="62" viewBox="0 0 59 62" fill="none" xmlns="http://www.w3.org/2000/svg">
<path d="M46.3067 59.8445H3.52577C2.22753 59.8445 1.17517 58.7921 1.17517 57.4939V4.37031C1.17517 3.07208 2.22753 2.01971 3.52577 2.01971H46.3067C47.6049 2.01971 48.6573 3.07208 48.6573 4.37031V57.4939C48.6573 58.7921 47.6049 59.8445 46.3067 59.8445Z" fill="white"/>
<path d="M24.9166 27.6413C30.2393 27.6413 34.5541 23.3264 34.5541 18.0038C34.5541 12.6812 30.2393 8.36633 24.9166 8.36633C19.594 8.36633 15.2792 12.6812 15.2792 18.0038C15.2792 23.3264 19.594 27.6413 24.9166 27.6413Z" fill="#51C569"/>
<path d="M27.972 16.7698V17.5337C27.972 19.2213 26.6039 20.5895 24.9163 20.5895C23.2286 20.5895 21.8605 19.2213 21.8605 17.5337V16.7698C21.8605 15.0822 23.2286 13.714 24.9163 13.714C26.6039 13.714 27.972 15.0822 27.972 16.7698Z" fill="#FFCDAC"/>
<path d="M24.9163 20.5895C21.9334 20.5895 19.3849 22.4426 18.3544 25.0595C20.075 26.6605 22.3806 27.6413 24.9163 27.6413C27.452 27.6413 29.7576 26.6605 31.4782 25.0595C30.4477 22.4426 27.8992 20.5895 24.9163 20.5895Z" fill="#F7F9FC"/>
<path d="M51.3096 19.7186L51.9811 18.5554C53.0198 16.7566 55.3198 16.1403 57.1187 17.1788C58.9175 18.2174 59.5339 20.5174 58.4954 22.3164L43.7053 47.9336L37.191 44.1726L43.5708 33.1224L51.3096 19.7186Z" fill="#51C569"/>
<path d="M57.1189 17.1787C55.3201 16.1401 53.0199 16.7564 51.9813 18.5553L50.2352 21.5797L56.7494 25.3407L58.4955 22.3163C59.534 20.5175 58.9177 18.2173 57.1189 17.1787Z" fill="#81909F"/>
<path d="M43.7053 47.9335L36.15 53.4978L37.1911 44.1725L43.7053 47.9335Z" fill="#FFCDAC"/>
<path d="M48.6574 47.6599C48.0084 47.6599 47.4821 48.1861 47.4821 48.8352V57.4939C47.4821 58.142 46.9549 58.6692 46.3068 58.6692H3.5259C2.87784 58.6692 2.3506 58.142 2.3506 57.4939V4.37032C2.3506 3.72226 2.87784 3.19502 3.5259 3.19502H46.3068C46.9549 3.19502 47.4821 3.72226 47.4821 4.37032V17.1517C47.4821 17.8008 48.0084 18.327 48.6574 18.327C49.3064 18.327 49.8327 17.8008 49.8327 17.1517V4.37032C49.8327 2.42614 48.251 0.844421 46.3068 0.844421H3.5259C1.58172 0.844421 0 2.42614 0 4.37032V57.4939C0 59.4381 1.58172 61.0198 3.5259 61.0198H46.3068C48.251 61.0198 49.8327 59.4381 49.8327 57.4939V48.8352C49.8327 48.1861 49.3064 47.6599 48.6574 47.6599Z" fill="#34495E"/>
<path d="M35.729 18.0038C35.729 12.0416 30.8785 7.19104 24.9163 7.19104C18.9541 7.19104 14.1035 12.0416 14.1035 18.0038C14.1035 21.0968 15.4093 23.8903 17.498 25.8629C17.5372 25.9048 17.5788 25.9444 17.6242 25.9804C19.5483 27.7409 22.109 28.8164 24.9162 28.8164C27.7234 28.8164 30.284 27.7408 32.2081 25.9804C32.2536 25.9444 32.2952 25.9046 32.3343 25.8629C34.4233 23.8903 35.729 21.0968 35.729 18.0038ZM24.9163 9.54164C29.5823 9.54164 33.3784 13.3377 33.3784 18.0038C33.3784 19.8804 32.7636 21.6155 31.726 23.0203C30.8592 21.7348 29.6579 20.735 28.2632 20.1177C28.8167 19.4023 29.1474 18.5061 29.1474 17.5337V16.7697C29.1474 14.4366 27.2494 12.5387 24.9163 12.5387C22.5832 12.5387 20.6852 14.4366 20.6852 16.7697V17.5337C20.6852 18.5061 21.0158 19.4023 21.5694 20.1177C20.1746 20.735 18.9734 21.7348 18.1066 23.0203C17.0689 21.6155 16.4541 19.8804 16.4541 18.0038C16.4541 13.3377 20.2502 9.54164 24.9163 9.54164ZM23.0358 17.5337V16.7697C23.0358 15.7329 23.8794 14.8893 24.9163 14.8893C25.9531 14.8893 26.7968 15.7329 26.7968 16.7697V17.5337C26.7968 18.5705 25.9531 19.4142 24.9163 19.4142C23.8794 19.4142 23.0358 18.5705 23.0358 17.5337ZM19.8048 24.742C20.8377 22.9103 22.7654 21.7648 24.9163 21.7648C27.0672 21.7648 28.9948 22.9103 30.0278 24.742C28.6065 25.8228 26.8354 26.466 24.9163 26.466C22.9971 26.466 21.226 25.8228 19.8048 24.742Z" fill="#34495E"/>
<path d="M31.2629 52.3226H24.9163C24.2673 52.3226 23.741 52.8488 23.741 53.4979C23.741 54.147 24.2673 54.6732 24.9163 54.6732H31.2629C31.9119 54.6732 32.4382 54.147 32.4382 53.4979C32.4382 52.8488 31.9119 52.3226 31.2629 52.3226Z" fill="#34495E"/>
<path d="M31.2629 45.7409H14.5736C13.9246 45.7409 13.3983 46.2671 13.3983 46.9162C13.3983 47.5653 13.9246 48.0915 14.5736 48.0915H31.2629C31.9119 48.0915 32.4382 47.5653 32.4382 46.9162C32.4382 46.2671 31.9119 45.7409 31.2629 45.7409Z" fill="#34495E"/>
<path d="M31.2629 39.1592H14.5736C13.9246 39.1592 13.3983 39.6854 13.3983 40.3345C13.3983 40.9836 13.9246 41.5098 14.5736 41.5098H31.2629C31.9119 41.5098 32.4382 40.9836 32.4382 40.3345C32.4382 39.6854 31.9119 39.1592 31.2629 39.1592Z" fill="#34495E"/>
<path d="M10.3848 32.9219C10.1663 32.7033 9.86308 32.5775 9.5528 32.5775C9.24358 32.5775 8.94035 32.7033 8.72187 32.9219C8.50326 33.1405 8.3775 33.4437 8.3775 33.7528C8.3775 34.0619 8.50314 34.3651 8.72187 34.5838C8.94165 34.8024 9.24358 34.9281 9.5528 34.9281C9.86308 34.9281 10.1651 34.8024 10.3848 34.5838C10.6034 34.3651 10.7293 34.0619 10.7293 33.7528C10.7293 33.4437 10.6035 33.1405 10.3848 32.9219Z" fill="#34495E"/>
<path d="M10.3848 39.5035C10.1651 39.2849 9.86308 39.1592 9.5528 39.1592C9.24358 39.1592 8.94165 39.2849 8.72187 39.5035C8.50326 39.7221 8.3775 40.0254 8.3775 40.3345C8.3775 40.6436 8.50314 40.9468 8.72187 41.1654C8.94165 41.384 9.24358 41.5098 9.5528 41.5098C9.86308 41.5098 10.1651 41.384 10.3848 41.1654C10.6034 40.9468 10.7293 40.6436 10.7293 40.3345C10.7293 40.0254 10.6035 39.7221 10.3848 39.5035Z" fill="#34495E"/>
<path d="M9.5528 45.7409C9.24358 45.7409 8.94165 45.8667 8.72187 46.0853C8.50326 46.3039 8.3775 46.6071 8.3775 46.9162C8.3775 47.2253 8.50314 47.5285 8.72187 47.7471C8.94035 47.9657 9.24358 48.0915 9.5528 48.0915C9.86308 48.0915 10.1663 47.9657 10.3848 47.7471C10.6034 47.5285 10.7293 47.2253 10.7293 46.9162C10.7293 46.6071 10.6035 46.3039 10.3848 46.0853C10.1651 45.8667 9.86308 45.7409 9.5528 45.7409Z" fill="#34495E"/>
<path d="M31.2629 32.5775H14.5736C13.9246 32.5775 13.3983 33.1037 13.3983 33.7528C13.3983 34.4019 13.9246 34.9281 14.5736 34.9281H31.2629C31.9119 34.9281 32.4382 34.4019 32.4382 33.7528C32.4382 33.1037 31.9119 32.5775 31.2629 32.5775Z" fill="#34495E"/>
</svg>
