<svg width="65" height="68" viewBox="0 0 65 68" fill="none" xmlns="http://www.w3.org/2000/svg">
<path d="M63.4384 58.9607L59.7715 62.6276C59.0645 63.3346 57.9183 63.3346 57.2115 62.6276L41.4629 46.879C40.7559 46.172 40.7559 45.0259 41.4629 44.3191L45.1298 40.6521C45.8368 39.9451 46.983 39.9451 47.6898 40.6521L63.4384 56.4007C64.1454 57.1075 64.1454 58.2537 63.4384 58.9607Z" fill="#51C569"/>
<path d="M20.8944 40.116L18.5395 42.4708C17.751 43.2594 16.4724 43.2594 15.6839 42.4708L2.38557 29.1726C1.59706 28.3841 1.59706 27.1055 2.38557 26.317L4.74046 23.9621C5.52897 23.1736 6.80755 23.1736 7.59606 23.9621L20.8943 37.2604C21.6829 38.0489 21.6829 39.3273 20.8944 40.116Z" fill="#51C569"/>
<path d="M64.1347 55.7044L48.3861 39.9559C47.8582 39.428 47.1564 39.1373 46.4099 39.1373C45.9793 39.1373 45.5649 39.2369 45.1889 39.42L33.6749 27.906L35.7554 25.8255C36.7742 24.8067 36.8252 23.1831 35.9121 22.1013L37.3044 20.7092L37.3749 20.7798C37.9605 21.3654 38.7297 21.6582 39.499 21.6582C40.2682 21.6582 41.0373 21.3655 41.623 20.7798L43.9779 18.4249C45.1491 17.2538 45.1491 15.3481 43.9779 14.1769L36.5859 6.78459C36.2012 6.4001 35.578 6.4001 35.1933 6.78459C34.8088 7.16909 34.8088 7.79251 35.1933 8.177L42.5854 15.5691C42.9889 15.9724 42.9889 16.6289 42.5854 17.0323L40.2305 19.3871C39.8271 19.7905 39.1708 19.7905 38.7674 19.3871L38.0007 18.6204L32.1183 12.738L25.4692 6.08892C25.0657 5.68557 25.0657 5.02908 25.4692 4.62573L27.8241 2.27084C28.2275 1.86762 28.884 1.86749 29.2873 2.27084L30.8544 3.83789C31.239 4.22238 31.8624 4.22251 32.2468 3.83789C32.6314 3.4534 32.6314 2.82998 32.2469 2.44549L30.6797 0.878434C29.5083 -0.292837 27.6026 -0.292704 26.4314 0.878434L24.0765 3.23333C22.9054 4.40447 22.9054 6.31019 24.0765 7.48133L24.1471 7.55185L22.7553 8.94359C22.2589 8.52364 21.6373 8.29347 20.9798 8.29347C20.2435 8.29347 19.5515 8.58022 19.0309 9.10071L9.91172 18.2199C8.89292 19.2388 8.84192 20.8624 9.75501 21.944L8.36287 23.3365L8.29221 23.2658C7.12121 22.0948 5.21548 22.0948 4.04421 23.2658L1.68945 25.6207C1.12208 26.1881 0.80957 26.9424 0.80957 27.7448C0.80957 28.5471 1.12194 29.3014 1.68932 29.8687L14.9875 43.1669C15.5731 43.7525 16.3424 44.0453 17.1117 44.0453C17.881 44.0453 18.6501 43.7525 19.2358 43.1669L21.5907 40.812C22.7618 39.6409 22.7618 37.7352 21.5907 36.564L21.5202 36.4935L22.9123 35.1014C23.4236 35.533 24.0552 35.7505 24.6876 35.7505C25.3935 35.7505 26.0993 35.4819 26.6365 34.9446L28.717 32.8641L40.2317 44.379C39.7269 45.4205 39.9034 46.7119 40.7668 47.5754L56.5154 63.324C57.0602 63.8688 57.7759 64.1412 58.4917 64.1412C59.2072 64.1412 59.923 63.8688 60.4679 63.324L64.1348 59.657C64.6626 59.1291 64.9534 58.4273 64.9534 57.6808C64.9532 56.9341 64.6625 56.2323 64.1347 55.7044ZM25.5396 8.94439L35.912 19.3168L34.5281 20.7005L24.1557 10.3282L25.5396 8.94439ZM20.198 39.4198L17.8431 41.7746C17.4399 42.1781 16.7834 42.1783 16.3799 41.7746L3.08159 28.4763C2.88622 28.2809 2.77864 28.0211 2.77864 27.7448C2.77864 27.4684 2.88622 27.2086 3.08172 27.0132L5.43648 24.6583C5.63822 24.4566 5.90319 24.3558 6.16815 24.3558C6.43297 24.3558 6.69807 24.4566 6.89968 24.6583L20.198 37.9564C20.6015 38.3599 20.6015 39.0163 20.198 39.4198ZM20.1276 35.1011L14.9415 29.9149L9.7554 24.7289L11.1392 23.3451L21.5114 33.7175L20.1276 35.1011ZM25.2438 33.5522C24.9372 33.859 24.4377 33.859 24.131 33.5522L23.6011 33.0223L23.5999 33.021L11.8352 21.2563L11.3041 20.7252C10.9973 20.4184 10.9973 19.9192 11.3041 19.6124L20.4233 10.4932C20.5719 10.3446 20.7694 10.2627 20.9796 10.2627C21.1897 10.2627 21.3875 10.3445 21.536 10.4932L22.0664 11.0237L33.8316 22.7891L34.3627 23.3203C34.6695 23.627 34.6695 24.1263 34.3627 24.4331L25.2438 33.5522ZM30.1094 31.4716L31.1959 30.3849L32.2825 29.2984L43.6868 40.7026L41.5135 42.8758L30.1094 31.4716ZM62.7422 58.2645L59.0752 61.9314C58.7533 62.2534 58.2293 62.2531 57.9077 61.9314L42.1592 46.1828C41.8373 45.8609 41.8373 45.3371 42.1592 45.0151L43.9927 43.1817L45.7755 41.3989L45.8261 41.3483C45.9821 41.1924 46.1894 41.1065 46.41 41.1065C46.6305 41.1065 46.8378 41.1924 46.9937 41.3483L62.7423 57.0968C63.0641 57.4187 63.0641 57.9425 62.7422 58.2645Z" fill="#34495E"/>
<path d="M40.1408 57.1831H14.1191C13.5753 57.1831 13.1346 57.6239 13.1346 58.1676C13.1346 58.7114 13.5754 59.1522 14.1191 59.1522H40.1409C42.1024 59.1522 43.6983 60.7479 43.6983 62.7096V66.0307H1.96934V62.7096C1.96934 60.7481 3.56508 59.1522 5.52658 59.1522H8.00101C8.54487 59.1522 8.98555 58.7114 8.98555 58.1676C8.98555 57.6239 8.54474 57.1831 8.00101 57.1831H5.52645C2.47921 57.1831 0 59.6623 0 62.7097V66.2357C0 67.2086 0.791428 68 1.76415 68H43.9028C44.8757 68 45.6671 67.2086 45.6671 66.2357V62.7097C45.6674 59.6622 43.1882 57.1831 40.1408 57.1831Z" fill="#34495E"/>
</svg>
