<svg width="22" height="9" viewBox="0 0 22 9" fill="none" xmlns="http://www.w3.org/2000/svg">
<path d="M19.3749 0.269799C18.9074 0.0907497 18.4144 0 17.9096 0C17.0774 0 16.2861 0.244147 15.6064 0.708292C14.9266 0.244147 14.1353 0 13.3032 0C12.471 0 11.6796 0.244147 10.9999 0.708292C10.3202 0.244147 9.5289 0 8.69669 0C7.86448 0 7.07321 0.244147 6.39345 0.708292C5.71378 0.244147 4.92247 0 4.09026 0C1.83488 0 0 1.83119 0 4.08201C0 6.33282 1.83488 8.16401 4.09026 8.16401C4.92247 8.16401 5.71378 7.91986 6.39349 7.45572C7.07321 7.91986 7.86452 8.16401 8.69669 8.16401C9.52886 8.16401 10.3202 7.91986 10.9999 7.45572C11.4287 7.74846 11.9025 7.95364 12.4117 8.06669C12.5854 8.10527 12.7576 7.99566 12.7962 7.82194C12.8348 7.64817 12.7252 7.47604 12.5514 7.43746C12.0561 7.32746 11.6003 7.11382 11.1969 6.80243C11.0808 6.71292 10.9191 6.71292 10.803 6.80243C10.1952 7.27151 9.46686 7.51948 8.69669 7.51948C7.92652 7.51948 7.19821 7.27151 6.59038 6.80243C6.47436 6.71292 6.31259 6.71292 6.19657 6.80243C5.58874 7.27151 4.86042 7.51948 4.09026 7.51948C2.19028 7.51948 0.644527 5.97743 0.644527 4.08201C0.644527 2.18658 2.19028 0.644527 4.09026 0.644527C4.86038 0.644527 5.58874 0.892498 6.19657 1.36159C6.31259 1.45109 6.47436 1.45109 6.59038 1.36159C7.19821 0.892498 7.92657 0.644527 8.69669 0.644527C9.46681 0.644527 10.1952 0.892498 10.803 1.36159C10.919 1.45109 11.0808 1.45109 11.1968 1.36159C11.8047 0.892498 12.533 0.644527 13.3032 0.644527C14.0733 0.644527 14.8017 0.892498 15.4095 1.36159C15.5255 1.45109 15.6873 1.45109 15.8033 1.36159C16.4111 0.892498 17.1394 0.644527 17.9096 0.644527C18.3353 0.644527 18.7508 0.720968 19.1443 0.871702C19.3106 0.935338 19.4969 0.852237 19.5605 0.686035C19.6242 0.519833 19.5411 0.333479 19.3749 0.269799Z" fill="#51C569"/>
<path d="M17.9096 1.0546C17.282 1.0546 16.6788 1.24576 16.1651 1.60743C16.0944 1.65719 16.0467 1.73324 16.0326 1.81853C16.0186 1.90378 16.0394 1.99114 16.0903 2.06096C16.5211 2.65109 16.7488 3.34997 16.7488 4.08203C16.7488 4.81408 16.5211 5.51296 16.0903 6.10313C16.0393 6.17296 16.0186 6.26027 16.0326 6.34556C16.0467 6.43077 16.0944 6.50682 16.1651 6.55658C16.6787 6.91825 17.2819 7.10946 17.9096 7.10946C19.5822 7.10946 20.9429 5.75131 20.9429 4.08194C20.9429 2.41266 19.5822 1.0546 17.9096 1.0546ZM17.9096 6.46493C17.5209 6.46493 17.1441 6.37182 16.8042 6.19345C17.1906 5.55786 17.3933 4.83466 17.3933 4.08198C17.3934 3.3293 17.1907 2.60614 16.8042 1.97055C17.1442 1.79224 17.5209 1.69912 17.9096 1.69912C19.2267 1.69912 20.2984 2.76805 20.2984 4.08194C20.2984 5.39592 19.2268 6.46493 17.9096 6.46493Z" fill="#51C569"/>
<path d="M15.88 2.48688C15.8211 2.39248 15.7178 2.33511 15.6065 2.33511C15.4953 2.33511 15.3919 2.39248 15.3331 2.48688C15.0344 2.96593 14.8765 3.51752 14.8765 4.082C14.8765 4.64647 15.0344 5.1981 15.3331 5.6772C15.392 5.7716 15.4953 5.82897 15.6065 5.82897C15.7178 5.82897 15.8212 5.7716 15.88 5.6772C16.1787 5.19806 16.3366 4.64643 16.3366 4.082C16.3366 3.51761 16.1787 2.96602 15.88 2.48688ZM15.6065 4.71338C15.55 4.5088 15.521 4.29658 15.521 4.082C15.521 3.86741 15.55 3.65523 15.6065 3.4507C15.663 3.65523 15.6921 3.86746 15.6921 4.082C15.6921 4.29658 15.663 4.5088 15.6065 4.71338Z" fill="#51C569"/>
<path d="M10.516 6.10316C10.0851 5.51299 9.8574 4.8141 9.8574 4.08196C9.8574 3.34987 10.0851 2.65099 10.5159 2.06081C10.5669 1.99099 10.5876 1.90363 10.5736 1.81834C10.5595 1.73309 10.5118 1.65704 10.4411 1.60724C9.92752 1.24566 9.32433 1.05453 8.69674 1.05453C8.0691 1.05453 7.46586 1.2457 6.95222 1.60737C6.88153 1.65712 6.83384 1.73318 6.81974 1.81847C6.80569 1.90372 6.82649 1.99112 6.87745 2.0609C7.30825 2.65099 7.53594 3.34987 7.53594 4.08196C7.53594 4.81402 7.30825 5.5129 6.87741 6.10307C6.82645 6.1729 6.80569 6.26021 6.8197 6.3455C6.83384 6.43079 6.88158 6.50685 6.95222 6.5566C7.46586 6.91827 8.06914 7.10948 8.69678 7.10948C9.32438 7.10948 9.92761 6.91831 10.4412 6.55669C10.5119 6.50693 10.5596 6.43088 10.5736 6.34559C10.5877 6.26034 10.5669 6.17294 10.516 6.10316ZM8.69682 6.46495C8.30817 6.46495 7.93138 6.37184 7.59141 6.19348C7.97787 5.55789 8.18056 4.83469 8.18056 4.08201C8.18056 3.32933 7.97787 2.60613 7.59146 1.97058C7.93138 1.79226 8.30817 1.69915 8.69682 1.69915C9.08539 1.69915 9.46213 1.79226 9.80206 1.97054C9.4156 2.60613 9.21292 3.32933 9.21292 4.08201C9.21292 4.83473 9.4156 5.55793 9.8021 6.19356C9.46218 6.37184 9.08543 6.46495 8.69682 6.46495Z" fill="#51C569"/>
<path d="M5.90964 6.1031C5.4788 5.51293 5.25107 4.81405 5.25107 4.08191C5.25107 3.90393 5.10678 3.75965 4.9288 3.75965C4.75083 3.75965 4.60654 3.90393 4.60654 4.08191C4.60654 4.83463 4.80922 5.55783 5.19572 6.19347C4.8558 6.37174 4.47905 6.46486 4.09045 6.46486C2.77329 6.46486 1.70166 5.39584 1.70166 4.08187C1.70166 2.76798 2.77325 1.69905 4.09045 1.69905C4.47909 1.69905 4.85589 1.79216 5.19585 1.97052C5.07498 2.16973 4.97138 2.37885 4.88648 2.59542C4.82151 2.76119 4.90315 2.94819 5.06884 3.01315C5.23444 3.07808 5.42152 2.99648 5.48653 2.8308C5.59357 2.55782 5.73592 2.2988 5.90964 2.06084C5.9606 1.99102 5.98136 1.90367 5.96731 1.81842C5.95326 1.73312 5.90552 1.65707 5.83484 1.60731C5.32123 1.24569 4.71804 1.05457 4.09045 1.05457C2.4179 1.05457 1.05713 2.41263 1.05713 4.08191C1.05713 5.75128 2.41785 7.10943 4.09045 7.10943C4.71804 7.10943 5.32128 6.91826 5.83488 6.55664C5.90556 6.50688 5.95326 6.43082 5.96731 6.34553C5.9814 6.26028 5.9606 6.17288 5.90964 6.1031Z" fill="#51C569"/>
<path d="M15.1224 6.10318C14.6916 5.513 14.4638 4.81412 14.4638 4.08198C14.4638 3.34984 14.6916 2.65096 15.1224 2.06083C15.1733 1.99101 15.1941 1.90365 15.18 1.8184C15.166 1.73311 15.1183 1.65706 15.0476 1.6073C14.534 1.24572 13.9308 1.0546 13.3032 1.0546C12.6755 1.0546 12.0723 1.24576 11.5587 1.60743C11.488 1.65719 11.4403 1.73324 11.4262 1.81853C11.4121 1.90378 11.4329 1.99118 11.4839 2.06096C11.9147 2.65105 12.1424 3.34993 12.1424 4.08203C12.1424 4.81408 11.9147 5.51296 11.4839 6.10313C11.4329 6.17296 11.4121 6.26027 11.4261 6.34556C11.4402 6.43081 11.4879 6.50687 11.5586 6.55667C12.0723 6.91833 12.6755 7.10954 13.3032 7.10954C13.9307 7.10954 14.534 6.91842 15.0476 6.55675C15.1183 6.50695 15.1661 6.4309 15.1801 6.3456C15.1942 6.26036 15.1734 6.17296 15.1224 6.10318ZM13.3032 6.46493C12.9146 6.46493 12.5378 6.37182 12.1978 6.19345C12.5843 5.55786 12.787 4.83466 12.787 4.08198C12.787 3.3293 12.5843 2.6061 12.1979 1.97055C12.5378 1.79224 12.9146 1.69912 13.3032 1.69912C13.6918 1.69912 14.0685 1.79224 14.4085 1.97051C14.022 2.6061 13.8193 3.3293 13.8193 4.08198C13.8193 4.83466 14.022 5.55791 14.4085 6.1935C14.0686 6.37182 13.6918 6.46493 13.3032 6.46493Z" fill="#51C569"/>
<path d="M20.6642 1.06417C20.5325 0.94442 20.3287 0.954044 20.209 1.08574C20.0892 1.2174 20.0989 1.42124 20.2306 1.54095C20.9456 2.19128 21.3557 3.11742 21.3557 4.08202C21.3557 5.97745 19.8099 7.5195 17.91 7.5195C17.1398 7.5195 16.4115 7.27153 15.8037 6.80244C15.6876 6.71294 15.5259 6.71294 15.4098 6.80244C14.9189 7.18134 14.3349 7.42067 13.7208 7.49458C13.5441 7.51585 13.4181 7.67634 13.4394 7.85307C13.4606 8.02975 13.6211 8.15574 13.7978 8.13451C14.4467 8.05639 15.0671 7.82294 15.6066 7.45565C16.2863 7.91988 17.0776 8.16403 17.91 8.16403C20.1653 8.16403 22.0002 6.33284 22.0002 4.08202C22.0002 2.93627 21.5133 1.83632 20.6642 1.06417Z" fill="#51C569"/>
<path d="M6.6671 2.48688C6.60824 2.39248 6.5049 2.33511 6.39365 2.33511C6.28241 2.33511 6.17902 2.39248 6.1202 2.48688C5.82148 2.96593 5.66357 3.51752 5.66357 4.082C5.66357 4.64647 5.82148 5.1981 6.1202 5.6772C6.17902 5.7716 6.28241 5.82897 6.39365 5.82897C6.5049 5.82897 6.60828 5.7716 6.6671 5.6772C6.96582 5.1981 7.12373 4.64647 7.12373 4.082C7.12373 3.51756 6.96582 2.96598 6.6671 2.48688ZM6.39365 4.71338C6.33711 4.5088 6.3081 4.29658 6.3081 4.082C6.3081 3.86741 6.33711 3.65523 6.39365 3.4507C6.45016 3.65523 6.4792 3.86746 6.4792 4.082C6.4792 4.29658 6.4502 4.5088 6.39365 4.71338Z" fill="#51C569"/>
<path d="M11.2731 2.48688C11.2142 2.39248 11.1109 2.33511 10.9996 2.33511C10.8884 2.33511 10.785 2.39248 10.7262 2.48688C10.4274 2.96593 10.2695 3.51752 10.2695 4.082C10.2695 4.64647 10.4274 5.1981 10.7262 5.6772C10.785 5.7716 10.8884 5.82897 10.9996 5.82897C11.1109 5.82897 11.2142 5.7716 11.2731 5.6772C11.5718 5.1981 11.7297 4.64647 11.7297 4.082C11.7297 3.51756 11.5718 2.96598 11.2731 2.48688ZM10.9996 4.71338C10.9431 4.5088 10.9141 4.29658 10.9141 4.082C10.9141 3.86741 10.9431 3.65523 10.9996 3.4507C11.0561 3.65523 11.0852 3.86746 11.0852 4.082C11.0852 4.29658 11.0562 4.5088 10.9996 4.71338Z" fill="#51C569"/>
</svg>
