<svg width="20" height="20" viewBox="0 0 20 20" fill="none" xmlns="http://www.w3.org/2000/svg">
<path d="M12.1957 3.15972C12.1491 3.06015 12.0616 2.98625 11.9558 2.95695C11.3219 2.78125 10.6639 2.69218 9.99987 2.69218C9.33502 2.69218 8.67616 2.78144 8.04167 2.95746C7.93584 2.98679 7.84846 3.0607 7.80178 3.16027C7.75502 3.26008 7.7542 3.37492 7.79952 3.47535L7.79956 3.47539L9.65678 7.58675C9.71756 7.72132 9.85221 7.80824 9.99987 7.80824C10.1475 7.80824 10.2823 7.72129 10.3431 7.58656L12.198 3.4748C12.2433 3.37437 12.2425 3.25953 12.1957 3.15972ZM8.33362 3.23422C8.33366 3.23429 8.3337 3.23433 8.3337 3.23437L8.33362 3.23422ZM9.99975 6.92269L8.436 3.46082C8.94573 3.33953 9.47065 3.27812 9.99991 3.27812C10.5284 3.27812 11.0526 3.33937 11.5617 3.46043L9.99975 6.92269Z" fill="#51C569"/>
<path d="M15.8718 5.64903C15.3565 4.95462 14.7289 4.362 14.0067 3.88762C13.9157 3.82778 13.8031 3.81047 13.6983 3.84008C13.593 3.86977 13.5059 3.94356 13.4593 4.04266L11.0045 9.26981H9.00319L6.54003 4.04215C6.49347 3.9434 6.40639 3.86977 6.30128 3.84016C6.19624 3.81059 6.08397 3.82794 5.99288 3.88766C5.27307 4.36044 4.64733 4.95071 4.13304 5.64204C4.0514 5.75172 4.03569 5.89735 4.09194 6.02196L7.23225 12.9877C7.29159 13.1195 7.41819 13.2045 7.56264 13.2094C7.70764 13.2141 7.83917 13.1382 7.90737 13.0108L8.9928 10.9832H11.007L12.0925 13.011C12.1586 13.1345 12.2848 13.2098 12.424 13.2098C12.4284 13.2098 12.4328 13.2097 12.4371 13.2096C12.5815 13.2047 12.7081 13.1199 12.7675 12.9883L14.6305 8.86559C14.6971 8.71817 14.6316 8.54462 14.4842 8.47797C14.3367 8.4113 14.1632 8.47684 14.0965 8.6243L12.4085 12.3598L11.4643 10.596C11.3986 10.4734 11.2715 10.3973 11.1324 10.3973H8.86729C8.72819 10.3973 8.60108 10.4734 8.53538 10.5961L7.59151 12.3592L4.67702 5.89426C5.08659 5.3638 5.56897 4.90067 6.11456 4.51391L8.52964 9.63965C8.59143 9.77094 8.72514 9.85579 8.87026 9.85579H11.1375C11.2828 9.85579 11.4165 9.77083 11.4783 9.63934L13.8852 4.51403C14.4329 4.90231 14.9169 5.36762 15.3275 5.90059L14.6153 7.47653C14.5487 7.62395 14.6142 7.79751 14.7616 7.86415C14.9092 7.93087 15.0826 7.86524 15.1493 7.71782L15.9126 6.02876C15.9688 5.90419 15.9532 5.75864 15.8718 5.64903Z" fill="#51C569"/>
<path d="M7.03639 15.9385L3.5883 8.28398C3.52186 8.13644 3.36904 8.04797 3.20764 8.06394C3.04678 8.07984 2.91439 8.19629 2.87822 8.35355C2.75459 8.89043 2.69189 9.44433 2.69189 9.99992C2.69189 12.6807 4.15623 15.1424 6.51354 16.4243C6.56998 16.455 6.63166 16.47 6.69303 16.47C6.78576 16.47 6.87764 16.4357 6.949 16.3694C7.06775 16.2593 7.10287 16.0861 7.03639 15.9385ZM3.27787 9.99992C3.27787 9.71258 3.29607 9.42582 3.33221 9.14207L6.22459 15.5629C4.39193 14.3182 3.27787 12.2423 3.27787 9.99992Z" fill="#51C569"/>
<path d="M12.2057 16.6234L10.2673 12.3188C10.2201 12.2136 10.1156 12.1461 10.0003 12.1461C10.0003 12.1461 10.0003 12.1461 10.0002 12.1461C9.88505 12.1461 9.78052 12.2136 9.73318 12.3186L7.79251 16.6225C7.75755 16.7 7.75798 16.7889 7.79372 16.866C7.82943 16.9432 7.89693 17.001 7.97861 17.0245C8.63251 17.2125 9.31267 17.3078 10.0002 17.3078C10.6864 17.3078 11.3658 17.2127 12.0194 17.0253C12.1011 17.0018 12.1686 16.944 12.2043 16.8669C12.2401 16.7897 12.2406 16.7009 12.2057 16.6234ZM10.0002 16.7219C9.48204 16.7219 8.96861 16.6631 8.46939 16.5469L10.0001 13.1522L11.529 16.5473C11.0301 16.6633 10.5174 16.7219 10.0002 16.7219Z" fill="#51C569"/>
<path d="M17.1257 8.37019C17.0898 8.21262 16.9576 8.09594 16.7967 8.07973C16.6352 8.06367 16.4822 8.15184 16.4156 8.29937L12.9641 15.9379C12.8974 16.0855 12.9324 16.2588 13.0512 16.3691C13.1226 16.4354 13.2145 16.4698 13.3073 16.4698C13.3686 16.4698 13.4303 16.4548 13.4868 16.424C15.8439 15.1421 17.3081 12.6805 17.3081 9.99988C17.3081 9.44977 17.2467 8.90144 17.1257 8.37019ZM13.7771 15.5617L16.6701 9.15926C16.7047 9.4373 16.7221 9.71832 16.7221 9.99992C16.7221 12.2418 15.6089 14.317 13.7771 15.5617Z" fill="#51C569"/>
<path d="M17.0703 2.92848C15.1812 1.04004 12.6703 0 10 0C7.53301 0 5.16328 0.906328 3.32742 2.55199C3.20691 2.66 3.1968 2.84523 3.3048 2.9657C3.41277 3.08617 3.59801 3.09633 3.71852 2.98832C5.44676 1.4391 7.67754 0.585938 10 0.585938C15.1909 0.585938 19.4141 4.80832 19.4141 9.99832C19.4141 12.5137 18.4346 14.8784 16.656 16.6568C14.8778 18.4348 12.514 19.4141 10 19.4141C7.48602 19.4141 5.12219 18.4348 3.34398 16.6568C1.56543 14.8783 0.585938 12.5136 0.585938 9.99832C0.585938 7.80273 1.35859 5.66566 2.76156 3.98078C2.86508 3.85645 2.84824 3.67172 2.72387 3.56816C2.59961 3.46469 2.41484 3.48145 2.31125 3.60582C0.820859 5.39578 0 7.66602 0 9.99832C0 12.6702 1.04047 15.182 2.92973 17.0711C4.81855 18.9598 7.32953 20 10 20C12.6705 20 15.1814 18.9598 17.0703 17.0711C18.9595 15.182 20 12.6702 20 9.99832C20 7.32793 18.9595 4.81715 17.0703 2.92848Z" fill="#51C569"/>
<path d="M9.99981 1.36522C5.23977 1.36522 1.36719 5.2385 1.36719 9.99944C1.36719 11.6258 1.82375 13.2114 2.68762 14.5846C3.5277 15.9201 4.71461 17.0013 6.12004 17.7114C6.26434 17.7844 6.44063 17.7265 6.51363 17.582C6.5866 17.4376 6.52867 17.2614 6.38422 17.1884C5.07375 16.5263 3.96695 15.5181 3.18355 14.2726C2.37859 12.9929 1.95309 11.5153 1.95309 9.99944C1.95309 5.56162 5.56281 1.95116 9.99977 1.95116C14.4368 1.95116 18.0466 5.56159 18.0466 9.99944C18.0466 14.4372 14.4368 18.0476 9.99977 18.0476C9.13238 18.0476 8.27871 17.9097 7.46258 17.6378C7.30891 17.5867 7.14313 17.6696 7.09203 17.8231C7.0409 17.9766 7.12387 18.1425 7.27738 18.1937C8.1534 18.4855 9.06934 18.6335 9.99981 18.6335C14.7599 18.6335 18.6326 14.7603 18.6326 9.99944C18.6326 5.23854 14.7599 1.36522 9.99981 1.36522Z" fill="#51C569"/>
</svg>
