<svg width="89" height="60" viewBox="0 0 89 60" fill="none" xmlns="http://www.w3.org/2000/svg">
<g opacity="0.05">
<path d="M53.4836 25.5037C53.1976 25.2174 52.8581 24.9903 52.4844 24.8354C52.1106 24.6805 51.71 24.6007 51.3054 24.6007C50.9008 24.6007 50.5002 24.6805 50.1265 24.8354C49.7527 24.9903 49.4132 25.2174 49.1273 25.5037L44.3861 30.2448L39.6296 25.4883C39.0519 24.9106 38.2684 24.5861 37.4515 24.5861C36.6345 24.5861 35.851 24.9106 35.2733 25.4883C34.6956 26.066 34.3711 26.8495 34.3711 27.6664C34.3711 28.4834 34.6956 29.2669 35.2733 29.8446L40.0298 34.6011L35.2733 39.3576C34.9873 39.6437 34.7604 39.9832 34.6056 40.357C34.4508 40.7307 34.3711 41.1313 34.3711 41.5358C34.3711 41.9403 34.4508 42.3409 34.6056 42.7146C34.7604 43.0883 34.9873 43.4279 35.2733 43.7139C35.5594 44 35.8989 44.2269 36.2727 44.3817C36.6464 44.5365 37.0469 44.6161 37.4515 44.6161C37.856 44.6161 38.2565 44.5365 38.6303 44.3817C39.004 44.2269 39.3436 44 39.6296 43.7139L44.3861 38.9574L49.1427 43.7139C49.7203 44.2916 50.5038 44.6161 51.3208 44.6161C52.1378 44.6161 52.9213 44.2916 53.499 43.7139C54.0766 43.1362 54.4012 42.3527 54.4012 41.5358C54.4012 40.7188 54.0766 39.9353 53.499 39.3576L48.7424 34.6011L53.499 29.8446C54.0703 29.2657 54.3894 28.4843 54.3865 27.6709C54.3836 26.8576 54.059 26.0785 53.4836 25.5037Z" fill="#E31823"/>
<path d="M76.189 25.8115C76.0543 19.9155 73.9503 14.2341 70.2123 9.67241C66.4742 5.11076 61.3171 1.93128 55.5625 0.640474C49.8078 -0.650331 43.7868 0.0217958 38.4584 2.54978C33.1301 5.07776 28.801 9.31618 26.1609 14.5898C25.0607 14.4195 23.9492 14.332 22.8359 14.3281C16.7795 14.3281 10.9711 16.7341 6.68849 21.0166C2.40592 25.2992 0 31.1076 0 37.1641C0 43.2205 2.40592 49.0289 6.68849 53.3115C10.9711 57.5941 16.7795 60 22.8359 60H71.3248C75.5243 59.9995 79.5826 58.4837 82.7542 55.731C85.9259 52.9784 87.9977 49.1738 88.5893 45.0161C89.1808 40.8584 88.2523 36.6269 85.9743 33.0989C83.6963 29.5709 80.2218 26.9833 76.189 25.8115ZM71.3248 53.8427H22.8359C20.4587 53.8479 18.1078 53.3445 15.941 52.3665C13.7742 51.3885 11.8417 49.9583 10.2731 48.172C8.70444 46.3857 7.53599 44.2846 6.84612 42.0096C6.15625 39.7346 5.96091 37.3384 6.27321 34.9817C6.58552 32.6251 7.39824 30.3624 8.65685 28.3457C9.91546 26.3289 11.5908 24.6046 13.5706 23.2886C15.5503 21.9725 17.7887 21.0951 20.1354 20.7152C22.4821 20.3352 24.883 20.4616 27.1768 21.0858C27.9116 21.2802 28.6923 21.1959 29.3687 20.8492C30.0451 20.5025 30.5693 19.9179 30.8404 19.2078C32.5245 14.7811 35.7064 11.0844 39.8331 8.76015C43.9598 6.43591 48.7704 5.63111 53.4289 6.48559C58.0874 7.34008 62.2993 9.79984 65.3325 13.4374C68.3656 17.0749 70.0284 21.6602 70.0317 26.3965C70.0317 26.9506 70.0317 27.5048 69.9394 28.0589C69.8741 28.8541 70.1201 29.6436 70.6254 30.261C71.1308 30.8784 71.8562 31.2754 72.6486 31.3685C75.4835 31.7324 78.0748 33.1585 79.8989 35.359C81.723 37.5595 82.644 40.3702 82.476 43.2234C82.3079 46.0767 81.0632 48.7599 78.9934 50.731C76.9236 52.7021 74.1828 53.8142 71.3248 53.8427Z" fill="#E31823"/>
</g>
</svg>
