<svg width="294" height="280" viewBox="0 0 294 280" fill="none" xmlns="http://www.w3.org/2000/svg">
<path d="M265.94 267.954C265.008 267.953 264.093 267.712 263.281 267.255C262.469 266.798 261.789 266.14 261.305 265.344C260.822 264.548 260.551 263.641 260.519 262.71C260.488 261.779 260.696 260.855 261.125 260.028C263.584 255.273 265.712 250.734 267.639 246.164C268.215 244.87 269.274 243.852 270.59 243.329C271.907 242.805 273.375 242.816 274.683 243.36C275.991 243.904 277.034 244.938 277.59 246.241C278.146 247.543 278.171 249.012 277.66 250.333C275.646 255.186 273.399 259.99 270.793 265.022C270.333 265.911 269.636 266.655 268.779 267.172C267.923 267.689 266.94 267.96 265.94 267.954Z" fill="#34495E"/>
<path d="M146.625 380C145.775 379.999 144.937 379.8 144.177 379.419C53.9002 333.857 0 257.428 0 174.963V65.1435C0.000274245 64.3841 0.159857 63.6333 0.468432 62.9394C0.777008 62.2456 1.22771 61.6242 1.79142 61.1155C2.35683 60.6089 3.02127 60.2252 3.74267 59.9888C4.46407 59.7524 5.22671 59.6684 5.98228 59.742C59.6653 65.2683 105.591 45.8124 142.467 1.93329C142.971 1.33425 143.599 0.851372 144.308 0.517791C145.016 0.184209 145.788 0.00782127 146.571 0.000727229C147.355 -0.0122014 148.133 0.147394 148.849 0.468217C149.564 0.789041 150.201 1.26325 150.713 1.8573C183.105 38.9072 229.275 58.3686 287.947 59.7149C289.365 59.7475 290.714 60.3338 291.705 61.3484C292.696 62.3629 293.251 63.7251 293.251 65.1435V154.552C293.251 155.992 292.679 157.372 291.661 158.39C290.643 159.408 289.262 159.98 287.822 159.98C286.383 159.98 285.002 159.408 283.984 158.39C282.966 157.372 282.394 155.992 282.394 154.552V70.4092C225.486 68.0477 179.897 48.9663 146.723 13.621C109.483 55.5295 63.8236 74.8117 10.8571 71.066V174.963C10.8571 252.505 61.5545 324.678 146.625 368.475C183.314 350.129 215.516 323.934 240.947 291.748C241.38 291.181 241.92 290.706 242.537 290.348C243.154 289.991 243.835 289.758 244.542 289.664C245.249 289.57 245.967 289.616 246.656 289.799C247.345 289.982 247.991 290.3 248.558 290.733C249.124 291.166 249.599 291.706 249.957 292.323C250.315 292.94 250.547 293.621 250.641 294.328C250.736 295.035 250.69 295.753 250.506 296.442C250.323 297.131 250.006 297.777 249.573 298.344C222.555 332.542 188.213 360.246 149.074 379.419C148.314 379.8 147.476 379.999 146.625 380Z" fill="#34495E"/>
<path d="M284.082 217.252C283.717 217.255 283.353 217.218 282.996 217.144C281.584 216.862 280.343 216.031 279.543 214.834C278.744 213.637 278.453 212.171 278.734 210.76C279.82 205.488 280.645 200.103 281.275 194.745C281.345 194.027 281.558 193.33 281.901 192.695C282.243 192.059 282.709 191.499 283.271 191.046C283.833 190.593 284.48 190.257 285.174 190.057C285.867 189.857 286.594 189.797 287.31 189.881C288.027 189.965 288.72 190.192 289.349 190.547C289.977 190.902 290.528 191.379 290.97 191.949C291.412 192.52 291.736 193.173 291.922 193.87C292.109 194.568 292.154 195.295 292.056 196.01C291.394 201.656 290.493 207.334 289.38 212.888C289.135 214.114 288.474 215.218 287.508 216.014C286.543 216.809 285.332 217.246 284.082 217.252Z" fill="#34495E"/>
<path d="M146.625 344.465C145.693 344.465 144.777 344.224 143.965 343.764C73.1118 303.94 30.8179 241.078 30.8179 175.598V96.2925C30.8165 94.8941 31.3547 93.5491 32.3205 92.5378C33.2864 91.5265 34.6052 90.9269 36.0021 90.8639C76.2624 89.118 114.509 72.7689 143.591 44.8732C144.563 43.9719 145.83 43.4573 147.155 43.4263C148.48 43.3953 149.771 43.8501 150.784 44.7049C181.219 69.6421 218.437 84.8744 257.623 88.4319C258.948 88.5826 260.17 89.2152 261.058 90.2093C261.946 91.2034 262.437 92.4895 262.438 93.8225V175.593C262.438 241.072 220.139 303.94 149.285 343.764C148.474 344.224 147.558 344.465 146.625 344.465ZM41.675 101.412V175.598C41.675 236.284 80.8475 294.853 146.625 332.771C212.409 294.842 251.581 236.263 251.581 175.577V98.6213C213.603 94.3136 177.561 79.5711 147.451 56.0289C118.287 82.6023 81.0285 98.5878 41.675 101.412Z" fill="#34495E"/>
<path d="M122.909 238.379C121.469 238.379 120.088 237.807 119.071 236.789L88.5024 206.221C87.5135 205.197 86.9664 203.825 86.9787 202.402C86.9911 200.979 87.562 199.617 88.5685 198.611C89.575 197.604 90.9366 197.033 92.3599 197.021C93.7833 197.009 95.1545 197.556 96.1784 198.545L122.909 225.286L197.074 151.104C197.578 150.6 198.176 150.2 198.835 149.927C199.493 149.654 200.199 149.513 200.912 149.513C201.625 149.512 202.332 149.653 202.99 149.925C203.649 150.198 204.248 150.598 204.752 151.102C205.257 151.606 205.657 152.204 205.93 152.863C206.203 153.521 206.344 154.227 206.344 154.94C206.344 155.653 206.204 156.36 205.931 157.018C205.659 157.677 205.259 158.276 204.755 158.78L126.747 236.789C125.729 237.807 124.348 238.379 122.909 238.379Z" fill="#32AD13"/>
</svg>
