<svg xmlns="http://www.w3.org/2000/svg" display="none">


	<symbol viewBox="0 0 20 20" id="stars">
		<path d="M19.566 9.06341C19.9596 8.66296 20.0986 8.07524 19.9288 7.52891C19.7586 6.98257 19.3153 6.59257 18.7706 6.5098L13.9281 5.77537C13.7218 5.74401 13.5436 5.609 13.4515 5.41379L11.2865 0.834096C11.0434 0.319529 10.5501 -0.000246922 10.0002 -0.000246777C9.45075 -0.000246633 8.95736 0.319529 8.71427 0.834097L6.5489 5.41421C6.45679 5.60942 6.27818 5.74443 6.07193 5.77579L1.22938 6.51023C0.685131 6.59257 0.241404 6.98299 0.0712015 7.52933C-0.0986002 8.07567 0.0403649 8.66338 0.434033 9.06384L3.9378 12.6286C4.08717 12.7808 4.15566 12.9998 4.12041 13.2138L3.29383 18.2475C3.22054 18.6906 3.33188 19.1215 3.6066 19.4614C4.03351 19.991 4.7788 20.1523 5.3747 19.8254L9.70545 17.4487C9.88646 17.3496 10.1143 17.3504 10.2949 17.4487L14.6261 19.8254C14.8367 19.9412 15.0614 19.9998 15.2933 19.9998C15.7166 19.9998 16.1179 19.8033 16.3938 19.4614C16.6689 19.1215 16.7799 18.6897 16.7066 18.2475L15.8796 13.2138C15.8443 12.9994 15.9128 12.7808 16.0622 12.6286L19.566 9.06341Z"/>
	</symbol>


</svg>
